<svg width="277" height="286" viewBox="0 0 277 286" fill="none" xmlns="http://www.w3.org/2000/svg">
<path d="M75.456 165.491C75.456 165.491 68.8848 167.25 74.646 180.745C80.4072 194.241 84.6276 201.034 84.6276 201.034C84.6276 201.034 85.5858 204.136 82.893 204.387C80.2002 204.637 74.4432 203.274 72.9846 206.27C71.472 209.378 73.6446 212.602 78.3612 215.66C83.0778 218.718 93.1536 225.78 94.0626 226.421C94.9542 227.052 95.7732 228.525 93.9678 228.977C92.1624 229.427 78.9156 229.663 79.4094 235.649C79.9032 241.634 94.5114 248.095 96.0942 248.831C97.677 249.566 98.0088 250.259 97.7988 251.105C97.5888 251.95 93.1284 251.629 89.364 251.844C85.5996 252.058 81.2736 252.936 81.8622 256.366C82.4508 259.796 90.7488 267.58 112.253 271.374L122.339 272.51L128.573 264.813C140.861 247.567 140.89 236.469 138.744 233.658C136.598 230.847 132.903 233.163 130.096 235.564C127.289 237.966 124.393 241.215 123.614 240.763C122.836 240.311 122.552 239.599 123.116 238.008C123.68 236.418 129.131 221.972 125.014 217.43C120.896 212.887 111.407 221.701 109.801 222.608C108.196 223.516 107.672 221.924 107.829 220.876C107.989 219.81 109.805 208.014 110.84 202.666C111.875 197.319 110.997 193.579 107.616 192.419C104.356 191.302 101.325 196.164 99.2448 197.813C97.1652 199.462 95.5248 196.632 95.5248 196.632C95.5248 196.632 93.4248 188.994 87.4074 175.6C81.39 162.206 75.3264 165.535 75.3264 165.535" fill="#EBEBEB"/>
<path d="M121.103 270.849C116.722 260.997 110.791 247.336 104.292 232.226C97.7952 217.12 91.902 203.448 87.579 193.574C85.4172 188.649 83.6658 184.659 82.4484 181.884C81.849 180.514 81.3816 179.445 81.0576 178.704C80.9064 178.349 80.7894 178.073 80.7036 177.873C80.6256 177.685 80.5938 177.586 80.5938 177.586C80.5938 177.586 80.6472 177.676 80.736 177.86C80.829 178.057 80.9568 178.328 81.1218 178.677C81.4602 179.413 81.948 180.474 82.5732 181.833C83.8302 184.575 85.6176 188.556 87.8064 193.482C92.1876 203.335 98.118 216.993 104.614 232.099C111.113 247.209 117.007 260.882 121.33 270.757" fill="#E0E0E0"/>
<path d="M80.958 208.487C80.9682 208.466 81.2136 208.552 81.6492 208.726C82.086 208.898 82.7082 209.165 83.4744 209.503C85.0044 210.181 87.0924 211.171 89.3742 212.305C91.6128 213.429 93.6366 214.445 95.202 215.232C95.8956 215.577 96.486 215.87 96.9714 216.111C97.3896 216.318 97.617 216.442 97.6068 216.462C97.5972 216.483 97.3512 216.399 96.9138 216.228C96.4776 216.054 95.8542 215.787 95.0922 215.441C93.5682 214.749 91.4952 213.733 89.214 212.599C86.9682 211.491 84.9378 210.489 83.3664 209.713C82.6704 209.372 82.0782 209.081 81.5916 208.842C81.1746 208.633 80.9478 208.507 80.958 208.487Z" fill="#E0E0E0"/>
<path d="M98.3538 215.902C98.2668 215.864 100.215 211.67 102.704 206.536C105.195 201.4 107.284 197.27 107.371 197.308C107.458 197.346 105.511 201.54 103.02 206.676C100.531 211.809 98.4408 215.941 98.3538 215.902Z" fill="#E0E0E0"/>
<path d="M107.234 239.532C107.217 239.517 107.381 239.316 107.694 238.966C108.058 238.565 108.504 238.075 109.028 237.498C110.154 236.258 111.703 234.54 113.339 232.587C114.982 230.637 116.405 228.823 117.426 227.503C117.902 226.889 118.307 226.368 118.639 225.942C118.928 225.574 119.097 225.378 119.117 225.39C119.137 225.403 119.005 225.625 118.75 226.015C118.495 226.405 118.114 226.962 117.627 227.639C116.656 228.997 115.259 230.838 113.612 232.795C111.97 234.754 110.386 236.453 109.212 237.655C108.622 238.254 108.139 238.733 107.794 239.054C107.45 239.377 107.252 239.548 107.234 239.532Z" fill="#E0E0E0"/>
<path d="M89.9514 236.126C89.9562 236.104 90.2016 236.127 90.6426 236.188C91.083 236.249 91.719 236.348 92.5026 236.477C94.0704 236.736 96.231 237.115 98.6142 237.554C100.998 237.994 103.151 238.41 104.707 238.728C105.485 238.887 106.114 239.02 106.546 239.12C106.979 239.221 107.216 239.286 107.212 239.309C107.207 239.331 106.961 239.308 106.52 239.247C106.08 239.186 105.445 239.087 104.66 238.957C103.093 238.699 100.931 238.319 98.5482 237.88C96.1656 237.44 94.0116 237.025 92.4564 236.707C91.6788 236.549 91.05 236.414 90.6174 236.315C90.1842 236.215 89.9472 236.149 89.9514 236.126Z" fill="#E0E0E0"/>
<path d="M95.0118 257.937C95.016 257.915 95.3304 257.947 95.895 258.026C96.5262 258.122 97.3254 258.244 98.28 258.39C100.291 258.711 103.064 259.177 106.124 259.713C109.184 260.248 111.951 260.751 113.951 261.131C114.897 261.318 115.69 261.475 116.315 261.598C116.872 261.716 117.178 261.792 117.174 261.815C117.17 261.837 116.855 261.804 116.291 261.726C115.66 261.63 114.861 261.508 113.907 261.362C111.896 261.041 109.122 260.575 106.062 260.039C103.003 259.503 100.236 259 98.2362 258.62C97.29 258.433 96.4974 258.276 95.8716 258.153C95.3136 258.035 95.0076 257.959 95.0118 257.937Z" fill="#E0E0E0"/>
<path d="M116.671 261.579C116.653 261.564 116.854 261.305 117.235 260.849C117.659 260.347 118.204 259.702 118.857 258.93C120.226 257.31 122.11 255.066 124.117 252.533C126.129 250.003 127.888 247.669 129.151 245.972C129.754 245.164 130.257 244.489 130.649 243.963C131.005 243.49 131.212 243.235 131.232 243.248C131.252 243.26 131.083 243.54 130.761 244.035C130.439 244.531 129.96 245.239 129.353 246.105C128.141 247.839 126.41 250.2 124.394 252.734C122.383 255.271 120.465 257.496 119.046 259.08C118.334 259.871 117.751 260.505 117.337 260.934C116.926 261.363 116.689 261.594 116.671 261.579Z" fill="#E0E0E0"/>
<path d="M201.581 270.792C187.259 262.032 183.386 244.919 183.299 229.409C183.284 226.82 182.873 224.105 184.07 221.788C185.267 219.472 188.213 217.808 190.686 218.807C192.737 219.635 193.707 221.835 194.91 223.641C196.51 226.043 198.828 227.992 201.509 229.194C203.272 229.984 205.43 230.426 207.098 229.466C209.386 228.148 209.535 225.056 209.412 222.485C209.182 217.694 208.954 212.901 208.724 208.111C208.601 205.54 208.485 202.915 209.224 200.443C209.962 197.971 211.722 195.634 214.259 194.853C216.798 194.071 220.029 195.363 220.675 197.86C220.943 198.898 220.765 199.994 220.883 201.059C221.002 202.124 221.573 203.285 222.649 203.542C223.738 203.804 224.787 203.034 225.562 202.251C228.239 199.55 229.991 196.135 231.619 192.742C233.248 189.35 234.821 185.88 237.23 182.954C239.64 180.027 243.041 177.652 246.896 177.298C250.751 176.946 254.96 179.064 256.085 182.643C257.214 186.231 255.147 189.993 252.854 193.018C249.452 197.506 245.374 201.515 240.787 204.88C239.961 205.487 239.065 206.143 238.779 207.108C238.264 208.844 240.038 210.483 241.837 210.98C243.874 211.543 246.047 211.262 248.16 211.419C250.273 211.577 252.588 212.376 253.462 214.241C254.675 216.828 252.483 219.669 250.288 221.559C245.894 225.342 240.824 228.391 235.37 230.532C233.414 231.298 231.351 231.984 229.805 233.373C228.26 234.763 227.39 237.11 228.431 238.884C229.473 240.661 231.978 241.148 234.041 240.702C236.104 240.257 237.92 239.111 239.872 238.325C243.523 236.852 248.321 236.916 250.821 239.881C252.464 241.83 252.717 244.621 252.026 247.043C251.336 249.466 249.82 251.587 248.199 253.552C242.532 260.42 235.147 266.055 226.664 269.219C218.186 272.384 210.25 273.452 201.581 270.792Z" fill="#F5F5F5"/>
<path d="M205.374 260.925C207.443 253.018 210.464 244.531 213.945 235.757C214.823 233.567 215.692 231.403 216.547 229.27C217.406 227.143 218.258 225.033 219.226 223.019C221.142 218.981 223.307 215.238 225.478 211.747C227.649 208.254 229.842 205.014 231.916 201.999C233.998 198.987 235.994 196.215 237.926 193.762C241.775 188.841 245.366 185.229 247.937 182.845C249.22 181.649 250.247 180.753 250.952 180.154C251.292 179.869 251.558 179.646 251.759 179.478C251.942 179.328 252.039 179.254 252.044 179.26C252.05 179.266 251.965 179.352 251.793 179.514C251.601 179.69 251.345 179.925 251.02 180.225C250.338 180.846 249.333 181.764 248.072 182.978C245.546 185.399 242.008 189.033 238.207 193.966C236.297 196.424 234.323 199.201 232.26 202.219C230.203 205.241 228.025 208.483 225.87 211.974C223.715 215.463 221.567 219.196 219.668 223.214C218.71 225.218 217.868 227.31 217.008 229.443C216.154 231.575 215.287 233.739 214.409 235.928C210.932 244.695 207.905 253.157 205.817 261.034" fill="#E0E0E0"/>
<path d="M219.367 222.995C219.334 223.002 219.226 222.614 219.058 221.909C218.887 221.203 218.675 220.175 218.432 218.902C217.945 216.356 217.399 212.817 216.811 208.915C216.224 205.01 215.626 201.49 215.1 198.958C214.84 197.691 214.62 196.667 214.457 195.962C214.3 195.255 214.228 194.86 214.261 194.851C214.294 194.843 214.429 195.222 214.644 195.916C214.864 196.609 215.138 197.624 215.441 198.887C216.058 201.41 216.714 204.937 217.301 208.845C217.871 212.698 218.385 216.183 218.778 218.847C218.963 220.049 219.121 221.061 219.247 221.875C219.356 222.589 219.401 222.989 219.367 222.995Z" fill="#E0E0E0"/>
<path d="M253.792 215.516C253.794 215.549 253.303 215.622 252.415 215.726C251.528 215.835 250.244 215.986 248.664 216.221C245.501 216.666 241.154 217.428 236.398 218.469C231.641 219.518 227.38 220.642 224.321 221.54C222.788 221.979 221.558 222.366 220.706 222.628C219.854 222.894 219.378 223.026 219.365 222.995C219.353 222.964 219.808 222.773 220.641 222.452C221.475 222.136 222.692 221.699 224.215 221.217C227.254 220.233 231.517 219.054 236.287 218.001C241.058 216.959 245.431 216.246 248.616 215.885C250.207 215.692 251.501 215.592 252.396 215.541C253.293 215.494 253.789 215.482 253.792 215.516Z" fill="#E0E0E0"/>
<path d="M205.775 260.301C205.76 260.308 205.673 260.173 205.521 259.907C205.348 259.589 205.135 259.202 204.878 258.733C204.325 257.711 203.566 256.213 202.652 254.35C200.822 250.626 198.465 245.405 195.946 239.61C193.424 233.813 191.122 228.578 189.376 224.823C188.522 222.997 187.818 221.496 187.295 220.379C187.072 219.895 186.887 219.496 186.736 219.167C186.614 218.888 186.556 218.738 186.572 218.73C186.587 218.723 186.674 218.859 186.827 219.125C187 219.442 187.212 219.829 187.469 220.298C188.022 221.32 188.782 222.818 189.695 224.681C191.525 228.406 193.882 233.626 196.402 239.424C198.922 245.219 201.226 250.453 202.97 254.209C203.826 256.034 204.529 257.536 205.051 258.651C205.275 259.136 205.459 259.536 205.61 259.864C205.734 260.144 205.791 260.294 205.775 260.301Z" fill="#E0E0E0"/>
<path d="M251.276 244.413C251.281 244.429 251.126 244.496 250.826 244.61C250.47 244.739 250.034 244.897 249.505 245.088C248.285 245.516 246.637 246.094 244.633 246.797C240.52 248.242 234.862 250.299 228.614 252.58C222.364 254.863 216.681 256.873 212.534 258.236C210.461 258.918 208.778 259.454 207.608 259.802C207.066 259.959 206.62 260.088 206.257 260.195C205.946 260.279 205.78 260.316 205.775 260.3C205.771 260.285 205.925 260.217 206.225 260.102C206.58 259.975 207.017 259.817 207.546 259.625C208.766 259.197 210.413 258.619 212.417 257.915C216.531 256.472 222.19 254.414 228.439 252.131C234.688 249.85 240.37 247.84 244.516 246.477C246.589 245.794 248.272 245.258 249.443 244.91C249.984 244.753 250.43 244.623 250.793 244.517C251.105 244.434 251.27 244.397 251.276 244.413Z" fill="#E0E0E0"/>
<path d="M235.885 56.214L225.49 85.6572C224.64 88.0647 225.806 90.6982 228.208 91.7976C230.743 92.9565 233.785 92.019 235.127 89.6646L250.832 62.1211C252.022 60.0356 251.025 57.4284 248.707 56.5612L241.321 53.7985C239.118 52.9742 236.64 54.0753 235.885 56.214Z" fill="#E0E0E0"/>
<path d="M229.27 111.049C226.417 114.223 221.407 114.591 218.078 111.872C214.748 109.152 214.362 104.376 217.214 101.202C220.066 98.0288 225.077 97.6604 228.406 100.379C231.736 103.098 232.122 107.875 229.27 111.049Z" fill="#E0E0E0"/>
<path d="M252.925 108.358L256.686 118.992C256.994 119.861 257.933 120.376 258.875 120.191C259.87 119.997 260.53 119.093 260.377 118.136L258.578 106.942C258.442 106.094 257.558 105.552 256.693 105.786L253.935 106.53C253.112 106.752 252.652 107.586 252.925 108.358Z" fill="#E0E0E0"/>
<path d="M263.595 125.508C263.502 127.015 262.146 128.165 260.565 128.076C258.984 127.988 257.777 126.694 257.87 125.188C257.963 123.681 259.32 122.531 260.9 122.619C262.481 122.707 263.687 124 263.595 125.508Z" fill="#E0E0E0"/>
<path d="M285.311 273.014C285.311 273.096 224.726 273.163 150.007 273.163C75.2616 273.163 14.6892 273.096 14.6892 273.014C14.6892 272.932 75.2622 272.865 150.007 272.865C224.725 272.865 285.311 272.932 285.311 273.014Z" fill="#263238"/>
<path d="M182.25 93.917C181.46 96.6609 180.662 99.4683 180.859 102.308C181.057 105.147 182.437 108.075 185.053 109.446C188.056 111.019 192.637 110.734 193.891 113.773C194.749 115.851 193.355 118.439 194.573 120.346C196.3 123.05 200.976 121.515 203.723 123.293C205.849 124.669 206.115 127.539 205.879 129.979C205.643 132.419 205.159 135.058 206.444 137.18C207.928 139.632 211.34 140.591 212.75 143.083C214.484 146.148 212.419 149.885 210.107 152.58C207.794 155.275 205.003 158.15 205.202 161.626L162.129 162.885L159.437 97.5338L182.25 93.917Z" fill="#263238"/>
<path d="M186.11 122.633C186.077 122.639 186.03 122.319 185.795 121.793C185.558 121.271 185.081 120.564 184.27 119.896C183.462 119.227 182.351 118.601 181.036 118.083C179.727 117.548 178.214 117.07 176.78 116.226C176.067 115.805 175.422 115.294 174.919 114.702C174.413 114.111 174.048 113.452 173.808 112.795C173.335 111.472 173.279 110.204 173.322 109.169C173.369 108.128 173.511 107.298 173.622 106.729C173.677 106.444 173.729 106.224 173.768 106.077C173.806 105.928 173.831 105.852 173.842 105.854C173.866 105.858 173.817 106.174 173.742 106.747C173.668 107.319 173.561 108.148 173.543 109.175C173.527 110.196 173.609 111.435 174.079 112.703C174.317 113.333 174.671 113.958 175.156 114.518C175.638 115.079 176.254 115.566 176.945 115.975C178.334 116.793 179.835 117.279 181.15 117.831C182.477 118.371 183.605 119.03 184.417 119.739C185.234 120.447 185.699 121.201 185.908 121.75C186.007 122.027 186.07 122.246 186.088 122.4C186.113 122.551 186.121 122.631 186.11 122.633Z" fill="#455A64"/>
<path d="M119.987 247.428L114.989 273.005H213.364C213.364 273.005 209.992 257.871 195.986 241.11L119.987 247.428Z" fill="#263238"/>
<path d="M118.57 222.94L115.04 174.014L120.883 123.935L152.826 119.688L176.194 122.151L192.139 173.551L196.436 219.355C196.436 219.355 198.715 226.582 201.359 235.024C202.828 239.716 200.828 244.79 196.441 247.334C192.644 249.536 186.967 251.249 178.758 250.433C159.83 248.551 138.365 245.258 128.002 246.905C117.64 248.552 116.159 246.199 116.159 246.199C116.159 246.199 112.889 243.141 113.907 239.613C114.925 236.084 118.57 222.94 118.57 222.94Z" fill="#E8505B"/>
<path d="M195.387 219.064C195.393 219.072 195.301 219.146 195.119 219.279C194.908 219.429 194.642 219.617 194.315 219.848C193.582 220.364 192.579 221.069 191.354 221.93C188.861 223.696 185.464 226.197 181.744 228.998C178.023 231.802 174.658 234.345 172.191 236.149C170.959 237.052 169.955 237.776 169.253 238.264C168.923 238.491 168.654 238.676 168.441 238.822C168.253 238.948 168.152 239.009 168.145 239.001C168.139 238.993 168.227 238.915 168.403 238.774C168.607 238.616 168.864 238.416 169.18 238.172C169.892 237.63 170.866 236.888 172.056 235.984C174.516 234.114 177.858 231.573 181.552 228.764C185.273 225.962 188.696 223.485 191.225 221.76C192.489 220.897 193.522 220.211 194.247 219.753C194.587 219.54 194.864 219.368 195.085 219.23C195.277 219.112 195.381 219.055 195.387 219.064Z" fill="white"/>
<path d="M169.604 137.517C169.535 137.567 168.797 136.74 167.956 135.672C167.115 134.602 166.49 133.696 166.559 133.647C166.628 133.597 167.365 134.423 168.206 135.492C169.047 136.562 169.673 137.468 169.604 137.517Z" fill="#263238"/>
<path d="M173.449 129.977C173.368 130.028 172.691 128.992 171.448 128.121C170.216 127.235 168.98 126.913 169.009 126.825C169.012 126.751 170.341 126.955 171.634 127.882C172.936 128.798 173.521 129.953 173.449 129.977Z" fill="#263238"/>
<path d="M143.216 136.55C143.291 136.609 142.45 137.492 141.98 138.851C141.49 140.203 141.597 141.391 141.5 141.395C141.427 141.42 141.17 140.183 141.684 138.755C142.182 137.323 143.173 136.488 143.216 136.55Z" fill="#263238"/>
<path d="M131.042 126.542C131.041 126.629 129.658 126.657 127.979 126.892C126.298 127.12 124.964 127.468 124.937 127.384C124.909 127.312 126.223 126.83 127.934 126.597C129.644 126.358 131.047 126.465 131.042 126.542Z" fill="#263238"/>
<g opacity="0.3">
<path d="M118.88 218.621C127.125 215.388 132.668 207.81 136 199.928C139.332 192.045 140.905 183.585 143.927 175.59C144.81 173.254 146.356 170.58 148.959 170.506C151.091 170.446 152.74 172.213 153.962 173.879C159.744 181.755 163.402 190.829 167.848 199.457C172.294 208.084 177.826 216.591 186.172 221.986C187.713 222.982 189.415 223.885 191.274 223.986C193.133 224.087 195.167 223.168 195.763 221.486C196.006 220.799 195.995 220.056 195.981 219.33C195.898 215.015 195.816 210.7 195.733 206.385C195.644 201.723 195.529 196.937 193.681 192.62C190.983 186.315 185.029 181.928 179.557 177.551C172.362 171.796 165.554 165.511 160.105 158.218C158.168 155.626 156.36 152.863 153.731 150.9C151.103 148.938 147.375 147.924 144.38 149.332C141.047 150.9 139.779 154.729 138.82 158.153C133.363 177.626 127.229 196.926 120.43 216.01" fill="black"/>
</g>
<path d="M118.06 215.871C124.091 215.379 128.717 209.025 130.367 203.473L143.615 158.916L123.386 145.99L115.32 171.612L120.883 123.935C120.883 123.935 102.314 128.417 97.9626 149.87C94.2726 168.064 93.0024 184.997 93.8706 191.619C93.8706 191.619 94.0044 217.837 118.06 215.871Z" fill="#E8505B"/>
<path d="M152.578 162.658C152.578 162.658 161.776 184.854 170.859 197.725C179.544 210.031 194.22 222.432 203.644 220.964C213.067 219.496 217.987 196.595 217.987 188.042C217.987 179.489 206.46 144.298 206.46 144.298C206.46 144.298 204.152 124.521 184.085 122.151L169.96 121.494L191.408 172.09L182.388 161.83C182.388 161.83 183.545 159.071 182.099 156.036C180.652 153.001 171.101 145.275 171.101 145.275L152.578 162.658Z" fill="#E8505B"/>
<path d="M115.82 165.264C115.799 165.268 115.721 165.016 115.598 164.558C115.48 164.099 115.293 163.439 115.045 162.63C114.551 161.011 113.747 158.805 112.588 156.483C111.422 154.163 110.128 152.18 109.117 150.796C108.613 150.104 108.191 149.55 107.892 149.174C107.596 148.795 107.439 148.579 107.456 148.566C107.473 148.553 107.66 148.744 107.987 149.101C108.316 149.456 108.766 149.993 109.297 150.673C110.359 152.033 111.694 154.015 112.869 156.354C114.038 158.696 114.815 160.931 115.257 162.573C115.479 163.395 115.634 164.065 115.716 164.533C115.804 165 115.841 165.26 115.82 165.264Z" fill="#263238"/>
<path d="M181.484 192.497C181.474 192.5 181.426 192.401 181.345 192.207C181.255 191.981 181.142 191.699 181.004 191.354C180.855 190.984 180.683 190.527 180.518 189.986C180.349 189.447 180.132 188.838 179.965 188.147C179.778 187.46 179.581 186.706 179.425 185.885C179.236 185.07 179.113 184.186 178.967 183.258C178.726 181.396 178.577 179.333 178.609 177.166C178.66 174.999 178.887 172.943 179.199 171.09C179.38 170.167 179.537 169.288 179.756 168.48C179.944 167.664 180.17 166.918 180.382 166.238C180.576 165.553 180.816 164.953 181.006 164.42C181.191 163.885 181.38 163.435 181.543 163.07C181.694 162.73 181.817 162.453 181.916 162.23C182.004 162.039 182.055 161.941 182.065 161.945C182.075 161.949 182.044 162.055 181.974 162.253C181.89 162.48 181.785 162.765 181.657 163.111C181.511 163.481 181.34 163.935 181.171 164.473C180.997 165.009 180.773 165.611 180.594 166.297C180.396 166.977 180.184 167.722 180.008 168.535C179.801 169.341 179.654 170.217 179.483 171.134C179.188 172.977 178.971 175.02 178.921 177.172C178.889 179.323 179.029 181.371 179.252 183.223C179.389 184.146 179.502 185.026 179.679 185.839C179.823 186.657 180.007 187.409 180.179 188.096C180.331 188.787 180.533 189.396 180.685 189.938C180.833 190.481 180.988 190.941 181.119 191.316C181.234 191.667 181.328 191.955 181.403 192.185C181.466 192.386 181.493 192.493 181.484 192.497Z" fill="#263238"/>
<path d="M206.232 197.724C206.221 197.722 206.221 197.629 206.23 197.452C206.245 197.241 206.262 196.986 206.284 196.68C206.317 196.346 206.348 195.938 206.341 195.461C206.341 194.985 206.376 194.444 206.321 193.847C206.304 193.547 206.285 193.235 206.267 192.91C206.245 192.585 206.185 192.249 206.144 191.9C206.075 191.199 205.905 190.466 205.749 189.69C205.375 188.152 204.83 186.488 204.054 184.821C203.256 183.163 202.308 181.673 201.346 180.387C200.839 179.762 200.374 179.154 199.868 178.642C199.621 178.381 199.397 178.116 199.155 177.886C198.912 177.657 198.679 177.437 198.454 177.226C198.021 176.792 197.572 176.459 197.198 176.144C196.828 175.823 196.486 175.576 196.201 175.378C195.947 175.191 195.735 175.036 195.559 174.907C195.414 174.796 195.341 174.733 195.347 174.725C195.353 174.716 195.438 174.762 195.595 174.857C195.781 174.974 196.004 175.115 196.273 175.285C196.57 175.469 196.925 175.704 197.309 176.015C197.696 176.321 198.159 176.645 198.606 177.073C198.837 177.282 199.078 177.499 199.328 177.725C199.577 177.954 199.807 178.218 200.062 178.478C200.581 178.989 201.059 179.597 201.577 180.224C202.564 181.515 203.531 183.02 204.338 184.699C205.124 186.386 205.667 188.072 206.03 189.632C206.18 190.417 206.342 191.162 206.401 191.871C206.437 192.224 206.491 192.564 206.507 192.893C206.519 193.221 206.531 193.537 206.542 193.84C206.583 194.443 206.532 194.989 206.516 195.468C206.506 195.947 206.457 196.357 206.405 196.691C206.36 196.996 206.323 197.249 206.292 197.459C206.263 197.635 206.243 197.726 206.232 197.724Z" fill="#263238"/>
<path d="M206.806 182.106C206.769 182.133 206.291 181.577 205.501 180.696C204.704 179.825 203.604 178.608 202.189 177.481C200.786 176.346 199.28 175.595 198.101 175.388C196.924 175.159 196.168 175.33 196.161 175.261C196.157 175.24 196.341 175.202 196.682 175.15C196.853 175.113 197.063 175.106 197.309 175.114C197.437 175.115 197.568 175.116 197.704 175.118C197.845 175.138 197.991 175.159 198.141 175.18C199.378 175.34 200.962 176.094 202.39 177.252C203.832 178.4 204.915 179.651 205.672 180.562C206.048 181.021 206.339 181.401 206.532 181.67C206.725 181.939 206.824 182.094 206.806 182.106Z" fill="#263238"/>
<path d="M211.021 178.035C210.973 178.139 208.808 176.892 205.817 176.309C202.822 175.717 200.329 176.166 200.324 176.057C200.318 176.025 200.926 175.876 201.935 175.792C202.942 175.708 204.358 175.724 205.88 176.017C207.4 176.312 208.711 176.813 209.615 177.239C210.521 177.669 211.039 178.005 211.021 178.035Z" fill="#263238"/>
<path d="M197.929 128.871C197.933 128.881 197.831 128.937 197.634 129.037C197.405 129.149 197.118 129.288 196.766 129.459C196.573 129.55 196.363 129.649 196.136 129.756C195.912 129.874 195.681 130.025 195.426 130.175C194.923 130.484 194.323 130.798 193.745 131.263C193.446 131.483 193.134 131.713 192.809 131.952C192.499 132.208 192.195 132.496 191.87 132.782C191.196 133.333 190.609 134.047 189.935 134.743C188.693 136.228 187.494 137.984 186.465 139.946C184.427 143.892 183.418 147.794 182.845 150.616C182.684 151.32 182.596 151.967 182.494 152.532C182.39 153.096 182.322 153.586 182.27 153.986C182.215 154.359 182.17 154.663 182.134 154.906C182.099 155.117 182.077 155.227 182.066 155.225C182.055 155.224 182.057 155.113 182.072 154.9C182.092 154.655 182.118 154.348 182.15 153.972C182.183 153.569 182.234 153.076 182.321 152.508C182.407 151.939 182.48 151.288 182.627 150.577C183.147 147.735 184.127 143.797 186.185 139.813C187.224 137.833 188.444 136.06 189.713 134.568C190.402 133.867 191.003 133.152 191.692 132.602C192.025 132.316 192.337 132.029 192.655 131.775C192.988 131.538 193.307 131.311 193.613 131.093C194.206 130.635 194.821 130.33 195.337 130.031C195.598 129.888 195.835 129.742 196.066 129.631C196.298 129.531 196.514 129.439 196.712 129.354C197.075 129.203 197.372 129.08 197.608 128.982C197.815 128.9 197.925 128.861 197.929 128.871Z" fill="#263238"/>
<path d="M110.143 180.018C110.14 180.016 110.156 179.961 110.192 179.854C110.233 179.738 110.287 179.582 110.357 179.381C110.512 178.954 110.734 178.339 111.022 177.545C111.616 175.932 112.478 173.592 113.568 170.636C115.777 164.703 118.904 156.299 122.6 146.37L122.657 146.216L122.805 146.298C126.076 148.102 129.252 150.387 132.743 152.466C136.273 154.503 139.936 156.619 143.697 158.791L143.798 158.849L143.765 158.958C143.552 159.666 143.323 160.428 143.092 161.194C137.692 179.067 132.853 195.084 129.632 205.745L129.631 205.751L129.629 205.755C127.574 210.108 125.074 213.227 122.796 214.709C121.666 215.454 120.625 215.768 119.917 215.846C119.561 215.882 119.291 215.894 119.109 215.877C118.927 215.87 118.835 215.86 118.835 215.86C118.835 215.86 118.928 215.852 119.109 215.85C119.29 215.858 119.558 215.837 119.909 215.793C120.606 215.698 121.625 215.372 122.732 214.622C124.963 213.135 127.426 210.012 129.44 205.681L129.436 205.691C132.632 195.023 137.434 178.996 142.792 161.112C143.023 160.346 143.252 159.583 143.465 158.876L143.533 159.043C139.773 156.869 136.111 154.752 132.583 152.711C129.079 150.618 125.909 148.331 122.663 146.531L122.867 146.46C119.128 156.374 115.963 164.766 113.728 170.69C112.606 173.636 111.719 175.967 111.106 177.574C110.801 178.362 110.564 178.972 110.4 179.396C110.321 179.594 110.259 179.748 110.213 179.862C110.171 179.967 110.147 180.019 110.143 180.018Z" fill="#263238"/>
<path d="M110.624 179.634C110.646 179.684 109.828 179.997 108.602 180.669C107.376 181.337 105.767 182.415 104.263 183.887C102.763 185.365 101.68 186.929 101.015 188.117C100.346 189.305 100.042 190.093 99.9882 190.074C99.9678 190.067 100.03 189.865 100.159 189.505C100.282 189.143 100.505 188.632 100.819 188.02C101.441 186.793 102.514 185.182 104.039 183.68C105.569 182.183 107.227 181.114 108.495 180.485C109.129 180.169 109.657 179.941 110.033 179.813C110.407 179.679 110.617 179.614 110.624 179.634Z" fill="#263238"/>
<path d="M110.851 177.945C110.847 177.992 110.233 177.959 109.244 177.978C108.257 177.994 106.894 178.088 105.416 178.363C103.94 178.642 102.641 179.049 101.72 179.391C100.799 179.731 100.244 179.983 100.221 179.941C100.204 179.911 100.724 179.591 101.635 179.196C102.544 178.801 103.855 178.355 105.356 178.071C106.857 177.791 108.247 177.729 109.246 177.767C110.246 177.803 110.855 177.91 110.851 177.945Z" fill="#263238"/>
<path d="M197.362 220.127C197.362 220.127 197.239 220.089 197.005 220.001C196.762 219.907 196.417 219.774 195.969 219.601C195.521 219.41 194.936 219.234 194.302 218.91C193.66 218.597 192.921 218.238 192.091 217.834C188.829 216.106 184.384 213.067 179.767 208.455C175.115 203.876 170.36 197.735 165.876 190.487C161.406 183.228 157.18 174.863 153.582 165.775C153.182 164.749 152.792 163.728 152.43 162.704L152.399 162.616L152.47 162.551C159.841 155.728 166.811 149.275 173.054 143.496L173.158 143.4L173.254 143.5C176.338 146.698 179.052 149.877 181.102 153.106C181.607 153.917 182.063 154.735 182.426 155.573C182.779 156.409 183.069 157.274 183.062 158.16C183.063 158.604 182.908 159.04 182.782 159.423C182.653 159.817 182.561 160.214 182.493 160.608C182.442 161.001 182.421 161.397 182.503 161.765C182.572 162.125 182.809 162.478 183.133 162.562L183.171 162.572L183.19 162.59C187.13 166.492 190.268 169.598 192.43 171.738C193.496 172.802 194.321 173.626 194.887 174.191C195.159 174.467 195.367 174.678 195.516 174.829C195.656 174.973 195.722 175.052 195.722 175.052C195.722 175.052 195.642 174.986 195.495 174.848C195.341 174.701 195.126 174.496 194.846 174.229C194.27 173.672 193.433 172.86 192.35 171.812C190.173 169.686 187.012 166.601 183.043 162.726L183.1 162.754C182.623 162.631 182.386 162.204 182.299 161.81C182.206 161.404 182.228 160.989 182.279 160.58C182.347 160.173 182.441 159.765 182.57 159.363C182.703 158.952 182.836 158.575 182.836 158.157C182.84 157.324 182.557 156.479 182.207 155.66C181.848 154.838 181.393 154.03 180.89 153.227C178.847 150.032 176.126 146.862 173.051 143.685L173.251 143.689C167.014 149.475 160.051 155.934 152.688 162.765L152.728 162.612C153.086 163.627 153.476 164.649 153.875 165.671C157.466 174.741 161.678 183.098 166.124 190.349C170.586 197.589 175.31 203.727 179.927 208.309C184.509 212.926 188.917 215.979 192.151 217.733C192.974 218.145 193.706 218.512 194.342 218.831C194.971 219.162 195.55 219.346 195.994 219.546C196.437 219.73 196.777 219.872 197.018 219.972C197.246 220.07 197.362 220.127 197.362 220.127Z" fill="#263238"/>
<path d="M163.35 194.29C163.349 194.308 163.057 194.308 162.533 194.261C162.008 194.214 161.252 194.101 160.339 193.868C158.521 193.416 156.06 192.374 153.93 190.491C151.799 188.607 150.523 186.345 149.913 184.652C149.602 183.802 149.425 183.091 149.338 182.596C149.248 182.101 149.227 181.824 149.245 181.821C149.307 181.808 149.453 182.917 150.12 184.579C150.775 186.232 152.056 188.428 154.142 190.272C156.228 192.116 158.622 193.168 160.4 193.666C162.187 194.176 163.358 194.23 163.35 194.29Z" fill="#263238"/>
<path d="M182.061 232.482C182.064 232.486 182.021 232.517 181.934 232.575C181.831 232.64 181.702 232.722 181.543 232.823C181.175 233.048 180.666 233.359 180.022 233.753C179.688 233.954 179.319 234.177 178.918 234.419C178.507 234.652 178.044 234.876 177.556 235.133C176.569 235.629 175.475 236.25 174.182 236.776C173.543 237.055 172.874 237.347 172.177 237.651C171.477 237.95 170.72 238.195 169.952 238.484C168.424 239.088 166.727 239.555 164.954 240.085C161.375 241.03 157.359 241.809 153.087 242.195C148.809 242.536 144.712 242.449 141.012 242.124C139.169 241.902 137.411 241.728 135.794 241.392C134.985 241.237 134.195 241.124 133.45 240.948C132.708 240.766 131.995 240.592 131.314 240.426C129.944 240.127 128.751 239.701 127.688 239.379C127.16 239.209 126.663 239.066 126.215 238.907C125.775 238.736 125.371 238.579 125.005 238.437C124.298 238.158 123.739 237.938 123.335 237.779C123.16 237.706 123.018 237.648 122.905 237.601C122.808 237.559 122.76 237.536 122.762 237.531C122.764 237.527 122.816 237.541 122.917 237.573C123.034 237.613 123.179 237.662 123.359 237.723C123.768 237.87 124.333 238.072 125.048 238.328C125.416 238.463 125.822 238.611 126.266 238.772C126.715 238.923 127.214 239.058 127.743 239.22C128.808 239.526 130.001 239.937 131.37 240.221C132.05 240.381 132.761 240.548 133.502 240.723C134.245 240.893 135.033 240.999 135.841 241.149C137.452 241.473 139.204 241.636 141.039 241.85C144.723 242.159 148.801 242.238 153.058 241.898C157.309 241.513 161.306 240.746 164.874 239.82C166.641 239.3 168.334 238.843 169.859 238.252C170.626 237.968 171.382 237.73 172.081 237.438C172.778 237.141 173.447 236.856 174.086 236.584C175.381 236.073 176.479 235.466 177.47 234.986C177.961 234.737 178.426 234.52 178.841 234.295C179.247 234.061 179.619 233.847 179.956 233.653C180.613 233.279 181.131 232.985 181.506 232.772C181.672 232.681 181.806 232.607 181.914 232.548C182.009 232.5 182.058 232.477 182.061 232.482Z" fill="#263238"/>
<path d="M173.826 217.801C173.836 217.806 173.789 217.901 173.692 218.079C173.575 218.286 173.431 218.541 173.255 218.851C173.066 219.188 172.825 219.594 172.509 220.044C172.198 220.497 171.866 221.029 171.43 221.569C171.217 221.845 170.995 222.133 170.764 222.433C170.531 222.731 170.26 223.021 169.995 223.333C169.473 223.964 168.848 224.581 168.203 225.242C166.872 226.526 165.313 227.85 163.545 229.079C161.764 230.291 159.955 231.285 158.257 232.085C157.395 232.46 156.583 232.832 155.791 233.104C155.012 233.412 154.266 233.642 153.583 233.846C152.906 234.071 152.272 234.203 151.724 234.342C151.176 234.486 150.696 234.577 150.301 234.641C149.936 234.703 149.637 234.753 149.395 234.793C149.187 234.825 149.077 234.837 149.075 234.827C149.074 234.816 149.18 234.785 149.383 234.735C149.621 234.68 149.917 234.611 150.275 234.528C150.664 234.447 151.138 234.34 151.679 234.181C152.221 234.028 152.848 233.883 153.515 233.647C154.189 233.431 154.926 233.19 155.695 232.876C156.478 232.595 157.279 232.217 158.13 231.839C159.808 231.032 161.597 230.04 163.362 228.838C165.115 227.619 166.666 226.314 167.997 225.051C168.642 224.4 169.27 223.794 169.797 223.174C170.065 222.868 170.338 222.584 170.575 222.291C170.809 221.998 171.035 221.716 171.251 221.445C171.697 220.916 172.039 220.395 172.363 219.954C172.691 219.514 172.946 219.119 173.15 218.792C173.347 218.494 173.507 218.248 173.637 218.05C173.752 217.882 173.816 217.795 173.826 217.801Z" fill="#263238"/>
<path d="M159.975 164.238C159.92 164.291 158.92 163.305 158.171 161.792C157.412 160.284 157.24 158.923 157.318 158.915C157.411 158.896 157.714 160.198 158.454 161.664C159.181 163.136 160.049 164.182 159.975 164.238Z" fill="#263238"/>
<path d="M165.677 158.435C165.598 158.468 164.947 157.227 164.222 155.662C163.497 154.096 162.973 152.8 163.052 152.767C163.132 152.734 163.783 153.976 164.508 155.541C165.232 157.106 165.756 158.402 165.677 158.435Z" fill="#263238"/>
<path d="M171.858 152.909C171.771 152.937 171.295 151.75 170.521 150.376C169.755 148.998 168.986 147.96 169.06 147.907C169.121 147.858 170.016 148.833 170.797 150.236C171.584 151.636 171.935 152.887 171.858 152.909Z" fill="#263238"/>
<path d="M134.192 161.727C134.109 161.704 134.516 160.129 135.1 158.207C135.415 157.171 135.718 156.246 135.94 155.628L135.937 155.641C136.052 155.073 136.141 154.738 136.181 154.743C136.22 154.749 136.203 155.094 136.142 155.67V155.672L136.139 155.683C135.979 156.319 135.716 157.254 135.401 158.29C134.816 160.211 134.275 161.75 134.192 161.727Z" fill="#263238"/>
<path d="M127.853 149.336C127.935 149.362 127.622 150.459 127.155 151.785C126.687 153.111 126.242 154.165 126.16 154.139C126.079 154.113 126.391 153.017 126.859 151.69C127.326 150.364 127.772 149.31 127.853 149.336Z" fill="#263238"/>
<g opacity="0.2">
<path d="M110.387 179.876C110.351 178.909 109.58 178.078 108.671 177.647C107.762 177.215 106.728 177.108 105.718 177.008C107.2 176.462 108.722 175.893 109.879 174.855C111.194 173.675 111.896 172.019 112.561 170.418C114.083 166.746 115.618 162.655 114.171 158.955C113.947 158.382 113.837 157.48 114.473 157.397C114.9 157.342 115.195 157.781 115.373 158.154C115.983 159.427 116.593 160.701 117.203 161.974" fill="black"/>
</g>
<g opacity="0.2">
<path d="M149.978 184.376C149.723 186.709 150.106 189.101 151.076 191.256C151.975 193.251 153.473 195.112 155.582 195.932C157.691 196.752 160.448 196.248 161.672 194.416C159.128 193.538 156.54 192.637 154.392 191.07C152.243 189.502 150.565 187.133 150.566 184.554" fill="black"/>
</g>
<path d="M188.699 123.355C188.703 123.359 188.64 123.42 188.513 123.538C188.375 123.663 188.186 123.834 187.944 124.054C187.428 124.512 186.686 125.171 185.737 126.016C183.8 127.72 181.016 130.169 177.581 133.191C170.665 139.237 161.128 147.573 150.593 156.78C149.65 157.602 148.715 158.417 147.841 159.18L147.738 159.269L147.634 159.182C137.473 150.792 128.396 143.296 121.847 137.888C118.595 135.185 115.971 133.004 114.148 131.488C113.255 130.738 112.559 130.153 112.074 129.745C111.848 129.551 111.671 129.399 111.541 129.287C111.422 129.183 111.362 129.128 111.366 129.124C111.37 129.12 111.435 129.169 111.561 129.266C111.696 129.372 111.879 129.517 112.114 129.702C112.607 130.1 113.316 130.672 114.224 131.404C116.063 132.904 118.708 135.061 121.987 137.735C128.552 143.125 137.651 150.596 147.838 158.958L147.631 158.961C148.505 158.199 149.44 157.383 150.383 156.561C160.941 147.379 170.5 139.065 177.433 133.036C180.896 130.044 183.703 127.618 185.656 125.931C186.622 125.104 187.377 124.459 187.902 124.01C188.153 123.8 188.348 123.636 188.492 123.516C188.625 123.406 188.696 123.351 188.699 123.355Z" fill="white"/>
<path d="M208.648 153.273C208.648 153.294 208.277 153.33 207.609 153.378C207.274 153.398 206.866 153.427 206.394 153.49C205.922 153.548 205.382 153.589 204.794 153.698C204.203 153.79 203.557 153.893 202.873 154.051C202.183 154.181 201.462 154.384 200.699 154.583C199.187 155.022 197.554 155.594 195.904 156.336C194.26 157.092 192.766 157.943 191.456 158.787C190.814 159.227 190.195 159.633 189.655 160.063C189.095 160.471 188.605 160.885 188.159 161.265C187.7 161.633 187.327 162.007 186.982 162.32C186.635 162.63 186.353 162.914 186.127 163.15C185.667 163.615 185.404 163.866 185.388 163.853C185.371 163.84 185.603 163.563 186.037 163.072C186.25 162.824 186.52 162.526 186.857 162.203C187.192 161.877 187.557 161.49 188.009 161.109C188.449 160.716 188.935 160.29 189.492 159.871C190.03 159.429 190.649 159.012 191.291 158.562C192.604 157.697 194.109 156.831 195.769 156.067C197.435 155.318 199.088 154.748 200.618 154.319C201.39 154.126 202.12 153.93 202.818 153.81C203.51 153.661 204.163 153.569 204.761 153.49C205.355 153.394 205.901 153.367 206.377 153.324C206.853 153.277 207.265 153.264 207.602 153.262C208.276 153.249 208.648 153.252 208.648 153.273Z" fill="white"/>
<path d="M211.021 214.611C211.011 214.606 211.057 214.481 211.153 214.247C211.264 213.986 211.408 213.649 211.587 213.231C211.775 212.79 212.033 212.261 212.239 211.613C212.352 211.292 212.473 210.95 212.6 210.588C212.665 210.406 212.731 210.22 212.799 210.028C212.86 209.835 212.906 209.632 212.963 209.426C213.173 208.601 213.455 207.708 213.592 206.717C213.667 206.223 213.793 205.719 213.836 205.189C213.881 204.659 213.928 204.114 213.976 203.556C214.079 201.317 213.902 198.841 213.308 196.314C212.737 193.779 211.761 191.472 210.751 189.448C209.756 187.41 208.615 185.694 207.658 184.26C206.659 182.851 205.826 181.723 205.209 180.973C204.926 180.61 204.698 180.318 204.521 180.092C204.367 179.889 204.29 179.779 204.298 179.773C204.307 179.766 204.4 179.864 204.571 180.055C204.759 180.272 205.003 180.553 205.305 180.902C205.952 181.631 206.815 182.743 207.842 184.142C208.826 185.568 209.994 187.281 211.01 189.329C212.042 191.361 213.035 193.687 213.613 196.249C214.214 198.802 214.384 201.309 214.264 203.571C214.211 204.135 214.159 204.686 214.108 205.22C214.06 205.755 213.928 206.264 213.847 206.761C213.697 207.76 213.4 208.657 213.175 209.485C213.115 209.691 213.064 209.894 212.999 210.088C212.927 210.279 212.857 210.466 212.789 210.648C212.653 211.009 212.523 211.35 212.402 211.671C212.179 212.317 211.904 212.842 211.698 213.277C211.497 213.687 211.335 214.018 211.21 214.274C211.095 214.499 211.03 214.615 211.021 214.611Z" fill="white"/>
<path d="M182.985 210.362C182.992 210.312 183.595 210.638 184.737 210.517C185.854 210.41 187.492 209.715 188.639 208.085C189.809 206.485 190.517 204.21 191.311 201.743C192.071 199.257 192.71 196.468 193.106 193.503C193.922 187.564 193.535 182.111 192.921 178.242C192.598 176.306 192.254 174.752 191.99 173.684C191.861 173.172 191.758 172.763 191.68 172.455C191.612 172.173 191.581 172.024 191.591 172.021C191.602 172.018 191.653 172.162 191.74 172.439C191.833 172.745 191.955 173.149 192.109 173.656C192.409 174.717 192.787 176.269 193.14 178.209C193.813 182.084 194.237 187.569 193.417 193.541C193.018 196.523 192.367 199.327 191.588 201.821C190.775 204.294 190.047 206.573 188.821 208.207C188.215 209.017 187.493 209.637 186.764 210.019C186.04 210.41 185.331 210.586 184.75 210.632C184.167 210.682 183.712 210.604 183.42 210.522C183.125 210.441 182.985 210.362 182.985 210.362Z" fill="white"/>
<path d="M178.421 171.855C178.439 171.867 178.272 172.097 177.954 172.506C177.799 172.713 177.599 172.96 177.338 173.222C177.08 173.487 176.805 173.807 176.444 174.107C176.098 174.421 175.713 174.761 175.261 175.081C174.83 175.428 174.321 175.734 173.795 176.069C172.715 176.697 171.463 177.291 170.08 177.746C168.69 178.183 167.316 178.434 166.057 178.558C165.425 178.595 164.825 178.645 164.263 178.618C163.699 178.625 163.178 178.577 162.702 178.527C162.224 178.497 161.802 178.4 161.429 178.339C161.054 178.281 160.739 178.2 160.483 178.125C159.971 177.983 159.692 177.896 159.698 177.876C159.715 177.811 160.842 178.161 162.724 178.317C163.194 178.353 163.709 178.388 164.264 178.371C164.819 178.387 165.409 178.328 166.029 178.284C167.266 178.147 168.614 177.893 169.98 177.463C171.34 177.017 172.573 176.441 173.644 175.835C174.166 175.511 174.673 175.218 175.104 174.885C175.556 174.578 175.943 174.253 176.295 173.952C177.692 172.742 178.366 171.813 178.421 171.855Z" fill="white"/>
<path d="M186.015 165.573C186.037 165.574 186.035 165.79 186.014 166.181C185.999 166.571 185.929 167.135 185.8 167.824C185.676 168.514 185.459 169.324 185.154 170.204C184.835 171.079 184.42 172.021 183.889 172.965C183.349 173.903 182.745 174.749 182.149 175.48C181.54 176.203 180.946 176.818 180.406 177.293C179.87 177.771 179.413 178.133 179.077 178.358C178.745 178.587 178.556 178.706 178.544 178.69C178.508 178.646 179.231 178.126 180.252 177.143C180.766 176.654 181.335 176.033 181.922 175.312C182.497 174.582 183.083 173.747 183.616 172.823C184.138 171.894 184.554 170.971 184.883 170.114C185.198 169.252 185.435 168.459 185.585 167.782C185.893 166.43 185.957 165.569 186.015 165.573Z" fill="white"/>
<path d="M173.583 200.672C173.587 200.676 173.557 200.711 173.496 200.775C173.421 200.85 173.33 200.942 173.219 201.054C172.952 201.313 172.589 201.666 172.132 202.111C171.158 203.039 169.781 204.351 168.083 205.967C164.622 209.225 159.859 213.707 154.563 218.692L154.479 218.771L154.376 218.715C154.098 218.563 153.799 218.399 153.497 218.234C146.852 214.575 140.837 211.263 136.455 208.851C134.3 207.648 132.548 206.67 131.308 205.978C130.721 205.644 130.257 205.378 129.917 205.184C129.773 205.098 129.655 205.029 129.559 204.971C129.479 204.922 129.44 204.894 129.443 204.89C129.445 204.886 129.49 204.904 129.575 204.945C129.676 204.995 129.799 205.057 129.949 205.133C130.296 205.315 130.77 205.564 131.369 205.879C132.62 206.551 134.39 207.501 136.565 208.669C140.959 211.062 146.99 214.347 153.653 217.976C153.954 218.141 154.254 218.305 154.532 218.457L154.345 218.48C159.667 213.521 164.453 209.062 167.932 205.82C169.658 204.231 171.058 202.942 172.049 202.03C172.524 201.602 172.9 201.262 173.176 201.013C173.296 200.908 173.394 200.823 173.474 200.753C173.542 200.696 173.579 200.668 173.583 200.672Z" fill="white"/>
<path d="M152.764 187.924C152.774 187.923 152.782 187.99 152.787 188.119C152.785 188.247 152.762 188.441 152.661 188.67C152.476 189.131 151.912 189.706 151.012 189.96C150.101 190.248 148.931 189.957 147.908 189.366C146.873 188.765 145.872 187.971 144.767 187.196C142.579 185.619 140.609 184.178 139.193 183.124C138.527 182.62 137.968 182.197 137.525 181.862C137.136 181.559 136.927 181.384 136.94 181.367C136.953 181.351 137.187 181.495 137.599 181.77C138.058 182.085 138.637 182.482 139.327 182.955C140.777 183.967 142.768 185.381 144.956 186.958C146.058 187.732 147.068 188.54 148.056 189.131C149.042 189.713 150.111 189.996 150.953 189.757C151.797 189.545 152.346 189.036 152.551 188.621C152.771 188.203 152.726 187.92 152.764 187.924Z" fill="white"/>
<path d="M161.469 180.405C161.486 180.448 160.847 180.711 159.84 181.184C158.833 181.657 157.469 182.359 156.043 183.259C154.619 184.163 153.41 185.089 152.563 185.789C151.714 186.489 151.211 186.949 151.177 186.917C151.149 186.893 151.597 186.38 152.414 185.633C153.23 184.887 154.431 183.924 155.871 183.011C157.312 182.101 158.709 181.42 159.747 180.993C160.786 180.565 161.456 180.371 161.469 180.405Z" fill="white"/>
<g opacity="0.3">
<path d="M181.9 162.32C178.77 170.066 178.208 177.983 179.245 186.225C179.459 187.932 180.363 190.33 181.06 191.915C181.757 193.501 182.944 194.955 184.585 195.67C186.079 196.321 188.074 196.202 189.104 194.982C189.838 194.112 189.934 192.903 189.832 191.792C189.571 188.928 188.242 186.27 187.1 183.61C184.196 176.837 182.409 169.629 181.823 162.334" fill="black"/>
</g>
<g opacity="0.3">
<path d="M202.775 177.775C205.888 180.139 208.082 183.577 208.856 187.299C209.063 188.296 209.185 189.344 209.748 190.207C210.311 191.07 211.498 191.676 212.46 191.238C213.637 190.703 213.679 189.126 213.394 187.913C212.105 182.427 207.506 177.768 201.84 176.208" fill="black"/>
</g>
<path d="M153.392 242.177C153.349 242.249 145.836 238.236 136.613 233.216C127.387 228.195 119.944 224.067 119.987 223.996C120.029 223.924 127.541 227.936 136.768 232.957C145.991 237.978 153.435 242.106 153.392 242.177Z" fill="white"/>
<path d="M165.183 239.89C165.195 239.907 164.987 240.066 164.6 240.341C164.157 240.646 163.603 241.027 162.944 241.48C161.538 242.432 159.583 243.73 157.414 245.148C156.838 245.522 156.277 245.888 155.738 246.238L155.66 246.289L155.579 246.246C153.701 245.257 152.066 244.382 150.905 243.747C150.369 243.447 149.917 243.195 149.548 242.988C149.234 242.806 149.066 242.699 149.075 242.683C149.084 242.668 149.269 242.745 149.6 242.899C149.98 243.084 150.446 243.311 151.001 243.581C152.188 244.172 153.841 245.015 155.726 245.991L155.566 245.998C156.103 245.646 156.663 245.279 157.237 244.902C159.407 243.484 161.381 242.213 162.819 241.306C163.5 240.884 164.073 240.529 164.531 240.244C164.939 240.001 165.171 239.873 165.183 239.89Z" fill="white"/>
<g opacity="0.3">
<path d="M178.622 234.746C176.515 232.457 172.9 231.913 169.781 232.573C166.663 233.234 163.899 234.896 161.159 236.46C158.419 238.025 155.535 239.552 152.361 239.893C148.646 240.293 144.989 239.029 141.323 238.334C137.656 237.639 133.421 237.657 130.696 240.096C130.696 240.096 142.368 243.884 156.385 241.793C166.67 240.259 178.622 234.746 178.622 234.746Z" fill="black"/>
</g>
<path d="M134.875 184.988C134.872 185.009 134.516 184.972 133.874 184.889C133.552 184.85 133.16 184.795 132.709 184.707C132.257 184.622 131.738 184.54 131.177 184.401C130.045 184.157 128.717 183.789 127.268 183.305C125.825 182.806 124.266 182.183 122.687 181.416C121.114 180.638 119.675 179.79 118.41 178.962C117.155 178.119 116.068 177.303 115.202 176.567C114.757 176.213 114.385 175.858 114.05 175.558C113.712 175.259 113.437 174.987 113.216 174.76C112.772 174.31 112.534 174.055 112.55 174.041C112.565 174.026 112.833 174.254 113.302 174.677C113.534 174.891 113.821 175.15 114.169 175.435C114.514 175.723 114.893 176.064 115.345 176.407C116.225 177.118 117.319 177.911 118.573 178.736C119.837 179.546 121.268 180.378 122.83 181.151C124.396 181.912 125.939 182.538 127.365 183.047C128.798 183.54 130.111 183.928 131.229 184.196C131.784 184.347 132.296 184.443 132.742 184.543C133.188 184.647 133.576 184.718 133.893 184.774C134.528 184.893 134.878 184.968 134.875 184.988Z" fill="white"/>
<path d="M99.5982 207.87C99.588 207.872 99.5562 207.776 99.5052 207.589C99.4494 207.367 99.3804 207.096 99.297 206.767C99.2532 206.584 99.2052 206.384 99.1536 206.17C99.1092 205.95 99.0786 205.709 99.0366 205.451C98.964 204.933 98.8458 204.347 98.8182 203.689C98.7948 203.359 98.7702 203.015 98.745 202.658C98.7228 202.299 98.7408 201.925 98.7378 201.538C98.7168 200.763 98.802 199.939 98.8692 199.07C99.072 197.339 99.4512 195.451 100.089 193.533C100.751 191.622 101.605 189.879 102.503 188.364C102.983 187.622 103.42 186.907 103.913 186.29C104.154 185.978 104.369 185.665 104.608 185.387C104.848 185.111 105.079 184.846 105.301 184.592C105.727 184.074 106.183 183.665 106.561 183.286C106.753 183.1 106.926 182.922 107.097 182.769C107.27 182.624 107.431 182.489 107.58 182.366C107.85 182.145 108.073 181.964 108.254 181.816C108.41 181.693 108.495 181.632 108.502 181.64C108.509 181.648 108.437 181.724 108.295 181.861C108.125 182.02 107.916 182.215 107.663 182.451C107.521 182.58 107.367 182.72 107.201 182.871C107.038 183.029 106.872 183.212 106.687 183.402C106.324 183.789 105.883 184.205 105.47 184.728C105.256 184.984 105.032 185.25 104.799 185.528C104.567 185.807 104.36 186.121 104.126 186.433C103.646 187.05 103.221 187.764 102.754 188.501C101.878 190.009 101.042 191.735 100.387 193.626C99.756 195.523 99.3726 197.389 99.156 199.1C99.0816 199.959 98.9874 200.774 98.9976 201.543C98.9952 201.926 98.9712 202.296 98.9868 202.652C99.0054 203.007 99.0228 203.348 99.0396 203.675C99.0522 204.329 99.1542 204.912 99.2106 205.429C99.2442 205.686 99.2658 205.927 99.3012 206.147C99.3426 206.362 99.3816 206.561 99.417 206.745C99.477 207.078 99.5268 207.353 99.567 207.577C99.597 207.766 99.6084 207.867 99.5982 207.87Z" fill="white"/>
<path d="M113.228 170.829C113.215 170.845 112.975 170.689 112.552 170.392C112.082 170.059 111.484 169.635 110.768 169.129C109.207 168.036 107.142 166.591 104.86 164.994C102.544 163.388 100.448 161.933 98.9454 160.86C98.1936 160.325 97.5894 159.886 97.1772 159.576C96.7644 159.266 96.543 159.087 96.5556 159.07C96.5682 159.054 96.8148 159.201 97.2492 159.482C97.7304 159.801 98.343 160.206 99.0756 160.69C100.611 161.718 102.727 163.147 105.044 164.753C107.36 166.359 109.432 167.849 110.903 168.962C111.64 169.517 112.228 169.975 112.628 170.301C113.027 170.626 113.242 170.813 113.228 170.829Z" fill="white"/>
<path d="M177.517 55.5308C177.741 61.4041 185.954 64.9636 185.849 70.8398C185.804 73.3617 184.163 75.6257 183.841 78.1293C183.408 81.4944 185.381 84.6719 186.109 87.99C187.61 94.8272 183.44 102.04 177.253 105.782C171.066 109.525 163.3 110.24 156.04 109.292" fill="#263238"/>
<path d="M127.921 54.0908C128.165 57.2437 125.981 60.0602 123.781 62.4254C121.58 64.7907 119.131 67.256 118.656 70.3848C117.813 75.9298 123.508 81.0783 122.333 86.5684C121.703 89.5108 119.176 91.8743 118.726 94.8464C118.291 97.7207 119.906 100.534 121.91 102.723C123.913 104.911 126.233 104.591 128.005 106.954C129.871 109.443 132.875 111.997 135.691 113.466C142.073 116.798 149.733 111.977 152.812 111.112" fill="#263238"/>
<path d="M178.753 58.9124C178.839 56.053 176.065 53.8439 173.273 52.7966C170.48 51.7492 167.377 51.3546 164.888 49.757C162.684 48.3424 161.203 46.1368 159.337 44.3338C154.76 39.9106 147.614 38.0773 141.326 39.7121C135.039 41.3474 129.86 46.3867 128.273 52.4128C127.201 56.4848 127.933 61.2999 131.3 64.0061C135.208 67.1469 141.002 66.4491 146.009 65.4721C151.017 64.4951 156.685 63.5313 160.865 66.3347C163.386 68.0255 164.831 70.7751 166.373 73.3205C167.914 75.8653 169.849 78.4639 172.763 79.4209C175.677 80.3778 179.635 78.7253 179.749 75.7887" fill="#263238"/>
<path d="M138.883 125.519C138.842 118.957 138.801 112.564 138.799 112.598C138.799 112.598 127.865 110.844 125.631 97.2345C124.52 90.4666 124.902 79.375 125.522 70.3088C126.081 62.1486 131.776 52.1472 140.304 53.0252L166.925 59.4997C169.516 59.7662 171.462 61.8786 171.405 64.3622L168.968 125.975C168.658 133.792 161.837 139.931 153.632 139.776C145.474 139.623 138.931 133.297 138.883 125.519Z" fill="#FFBE9D"/>
<path d="M130.054 78.0833C130.017 79.0048 130.805 79.7936 131.814 79.8473C132.821 79.9011 133.668 79.1998 133.704 78.2783C133.74 77.3574 132.952 76.5669 131.945 76.5131C130.937 76.4594 130.09 77.1618 130.054 78.0833Z" fill="#263238"/>
<path d="M128.033 76.0841C128.259 76.3124 129.648 75.3365 131.617 75.3463C133.585 75.3285 135.028 76.2975 135.242 76.0681C135.347 75.9669 135.116 75.5556 134.488 75.1175C133.87 74.6816 132.814 74.256 131.587 74.2583C130.361 74.2623 129.328 74.6907 128.734 75.13C128.128 75.5711 127.921 75.9823 128.033 76.0841Z" fill="#263238"/>
<path d="M149.174 78.554C149.137 79.4754 149.926 80.2642 150.934 80.318C151.94 80.3712 152.788 79.6705 152.824 78.749C152.86 77.8281 152.072 77.0376 151.065 76.9844C150.057 76.9301 149.21 77.633 149.174 78.554Z" fill="#263238"/>
<path d="M147.39 76.4754C147.617 76.7036 149.007 75.7284 150.975 75.7375C152.942 75.7198 154.385 76.6882 154.6 76.4588C154.705 76.357 154.477 75.9463 153.846 75.5082C153.227 75.0717 152.172 74.6467 150.946 74.6484C149.719 74.6524 148.686 75.0809 148.092 75.5202C147.487 75.9623 147.279 76.3736 147.39 76.4754Z" fill="#263238"/>
<path d="M140.21 90.3835C140.22 90.2765 138.996 90.0723 137.013 89.8263C136.51 89.776 136.034 89.6793 135.95 89.3521C135.833 89.0055 136.045 88.489 136.289 87.9319C136.765 86.773 137.263 85.5581 137.785 84.2848C139.862 79.0916 141.367 74.8211 141.147 74.7433C140.927 74.6655 139.064 78.8113 136.987 84.0045C136.487 85.2852 136.009 86.5059 135.554 87.6739C135.362 88.2184 135.034 88.8356 135.289 89.5552C135.423 89.9138 135.792 90.1741 136.114 90.2576C136.436 90.352 136.719 90.3577 136.968 90.3726C138.964 90.479 140.203 90.4904 140.21 90.3835Z" fill="#263238"/>
<path d="M138.799 112.598C138.799 112.598 148.397 113.208 157.921 107.778C157.76 107.811 152.659 117.236 138.984 115.81L138.799 112.598Z" fill="#EB996E"/>
<path d="M146.995 67.1786C147.042 67.7191 149.006 67.9771 151.163 68.8099C153.337 69.6015 154.958 70.6889 155.38 70.324C155.572 70.1467 155.39 69.6021 154.799 68.9375C154.214 68.2745 153.193 67.5246 151.895 67.0361C150.596 66.5505 149.312 66.4355 148.411 66.5408C147.503 66.6432 146.981 66.9234 146.995 67.1786Z" fill="#263238"/>
<path d="M128.431 70.7523C128.86 71.1035 130.096 70.4097 131.69 70.0762C133.271 69.6895 134.701 69.7787 134.919 69.2811C135.01 69.042 134.707 68.6656 134.03 68.3859C133.362 68.1062 132.319 67.9747 131.227 68.2218C130.199 68.3533 129.485 68.6279 128.803 69.5717C128.33 70.1116 128.237 70.5778 128.431 70.7523Z" fill="#263238"/>
<path d="M172.965 105.011C169.04 105.765 168.691 103.862 165.758 101.263C162.826 98.6646 161.312 94.6846 161.815 90.8985C162.258 87.5575 164.148 84.1581 162.933 80.9955C161.326 76.8147 155.179 75.5283 153.547 71.3556C152.599 68.9309 153.45 66.0937 152.375 63.7177C151.365 61.4829 148.898 60.1959 146.498 59.3687C144.098 58.5411 141.524 57.9702 139.508 56.4767C137.493 54.9832 136.236 52.1644 137.536 50.0703C148.182 51.2864 158.674 53.7168 168.719 57.293C171.047 58.1224 173.494 59.1188 174.871 61.0922C176.328 63.1806 176.258 65.8781 176.136 68.3835C175.538 80.5985 174.94 92.8142 174.342 105.029" fill="#263238"/>
<path d="M181.941 77.2588C182.392 72.7755 186.224 68.7961 190.871 67.9856C195.519 67.175 200.581 69.6032 202.667 73.6443C204.651 77.4865 203.965 82.162 202.113 86.0642C199.913 90.7003 195.406 94.9365 190.073 94.706C185.056 94.4892 181.018 90.2884 179.572 85.7038C178.126 81.1187 178.709 76.2041 179.306 71.4502" fill="#263238"/>
<path d="M184.736 95.8911C184.752 95.9076 185.081 95.676 185.483 95.1017C185.891 94.5354 186.349 93.6054 186.548 92.3796C186.757 91.1589 186.718 89.674 186.419 88.0815C186.128 86.4799 185.562 84.8034 185.15 83.0222C184.73 81.2479 184.533 79.5118 184.839 77.9886C185.131 76.4739 185.879 75.1869 186.208 73.9909C186.568 72.7971 186.522 71.7447 186.293 71.0811C186.068 70.4102 185.759 70.1333 185.738 70.1534C185.69 70.1802 185.918 70.496 186.056 71.1389C186.199 71.7767 186.177 72.7508 185.783 73.8679C185.422 74.9965 184.628 76.2503 184.272 77.8845C183.913 79.5101 184.11 81.3428 184.538 83.1515C184.96 84.9681 185.542 86.639 185.851 88.1816C186.173 89.726 186.254 91.1498 186.109 92.3218C185.842 94.7087 184.613 95.8299 184.736 95.8911Z" fill="#455A64"/>
<path d="M184.943 79.554C184.892 79.5883 185.57 80.5349 187.131 81.596C188.665 82.6531 191.188 83.7364 194.144 83.7879C197.101 83.8354 199.663 82.8367 201.235 81.8317C202.834 80.8238 203.546 79.9006 203.497 79.864C203.421 79.7873 202.604 80.5904 201.003 81.4707C199.423 82.3522 196.961 83.2348 194.155 83.1896C191.35 83.141 188.923 82.1772 187.376 81.2431C185.808 80.3096 185.021 79.4796 184.943 79.554Z" fill="#455A64"/>
<path d="M185.65 81.6862C185.59 81.7136 185.94 82.5922 186.859 83.8226C187.771 85.0507 189.324 86.5796 191.404 87.7768C193.489 88.9672 195.634 89.5592 197.199 89.7508C198.77 89.9482 199.748 89.8315 199.745 89.7674C199.747 89.6667 198.781 89.6318 197.275 89.3344C195.77 89.0421 193.735 88.4106 191.727 87.2649C189.725 86.1112 188.185 84.6932 187.21 83.5641C186.228 82.4349 185.743 81.6376 185.65 81.6862Z" fill="#455A64"/>
<path d="M182.058 100.446C182.066 100.452 182.119 100.395 182.214 100.277C182.302 100.154 182.461 99.9879 182.608 99.7328C182.93 99.2397 183.317 98.4458 183.548 97.3538C183.776 96.2682 183.797 94.861 183.319 93.3367C182.873 91.8157 181.761 90.1821 179.998 89.0787C178.304 87.9404 176.1 87.1476 174.7 85.3372C174.001 84.4529 173.705 83.3055 173.925 82.1426C174.116 80.9752 174.676 79.8306 175.166 78.6128C176.258 76.1749 176.268 73.1302 174.983 70.4904C174.335 69.1782 173.374 67.9547 172.087 67.0613C170.809 66.1398 169.249 65.665 167.71 65.3315C166.165 64.9952 164.623 64.8007 163.192 64.3889C161.765 63.9822 160.4 63.3724 159.409 62.4161C158.392 61.4717 157.961 60.1635 157.768 58.8468C157.573 57.5306 157.469 56.1652 157.096 54.8914C156.398 52.3397 155.038 50.0792 153.244 48.4553C151.451 46.821 149.255 45.883 147.182 45.5878C145.101 45.2789 143.14 45.6462 141.665 46.384C140.174 47.1076 139.14 48.1103 138.475 49.0175C137.812 49.9367 137.502 50.7627 137.358 51.3261C137.21 51.8913 137.219 52.2013 137.219 52.2013C137.312 52.2379 137.331 50.9251 138.673 49.1537C139.348 48.2934 140.375 47.3496 141.821 46.6832C143.251 46.0037 145.123 45.6845 147.112 46.0054C149.093 46.3137 151.187 47.2363 152.883 48.8122C154.584 50.3817 155.877 52.5622 156.536 55.0293C156.889 56.2613 156.979 57.5609 157.175 58.9309C157.36 60.2779 157.835 61.7708 158.97 62.8262C160.07 63.8895 161.528 64.5313 163.012 64.958C164.512 65.3899 166.058 65.5838 167.571 65.9144C169.076 66.2404 170.543 66.6935 171.718 67.5406C172.91 68.3649 173.812 69.5049 174.425 70.7375C175.639 73.232 175.656 76.0748 174.626 78.4172C174.155 79.615 173.581 80.791 173.38 82.0637C173.141 83.3295 173.5 84.6766 174.279 85.629C175.836 87.5806 178.105 88.3402 179.748 89.4282C181.457 90.4698 182.515 91.9776 182.984 93.4373C183.475 94.8914 183.493 96.2539 183.307 97.3138C182.917 99.4662 181.964 100.408 182.058 100.446Z" fill="#455A64"/>
<path d="M181.103 62.4633C181.103 62.4633 181.237 62.266 181.279 61.8358C181.327 61.4131 181.261 60.7382 180.806 60.0289C180.363 59.3282 179.575 58.5789 178.42 58.1476C177.251 57.7192 175.808 57.7335 174.321 58.0183C172.825 58.2883 171.275 58.858 169.577 59.1709C167.91 59.4769 165.921 59.521 164.416 58.397C162.899 57.2976 162.138 55.3934 161.359 53.5007C160.598 51.5673 159.518 49.6196 158.062 47.8979C155.153 44.4453 151.211 42.0772 147.263 41.2393C145.288 40.8309 143.296 40.868 141.561 41.3817C139.831 41.8925 138.376 42.8249 137.386 43.9546C136.378 45.0768 135.887 46.4021 135.806 47.5593C135.705 48.7239 135.944 49.7266 136.277 50.4754C136.607 51.2304 137.035 51.732 137.352 52.0295C137.669 52.3298 137.87 52.4488 137.878 52.4385C137.952 52.3853 137.098 51.8705 136.504 50.3896C136.219 49.6585 136.027 48.6941 136.155 47.5919C136.267 46.4925 136.753 45.2713 137.723 44.2297C138.676 43.1835 140.066 42.3204 141.712 41.8565C143.355 41.3914 145.247 41.3714 147.14 41.7775C150.925 42.6086 154.756 44.9235 157.573 48.2714C158.989 49.9508 160.027 51.807 160.789 53.7169C161.578 55.5936 162.359 57.6053 164.068 58.8374C164.9 59.4512 165.916 59.7612 166.885 59.8459C167.861 59.9368 168.799 59.8213 169.678 59.6582C171.439 59.3087 172.964 58.719 174.412 58.433C175.844 58.1299 177.218 58.0967 178.298 58.4616C179.384 58.8328 180.155 59.5147 180.6 60.1536C181.058 60.8011 181.159 61.4246 181.154 61.8307C181.153 62.242 181.065 62.4548 181.103 62.4633Z" fill="#455A64"/>
<path d="M185.592 97.6838C185.609 97.6918 185.511 97.9274 185.29 98.3353C185.071 98.7431 184.711 99.3146 184.193 99.9718C183.171 101.285 181.405 102.915 179.005 103.994C176.604 105.073 174.161 105.335 172.447 105.252C171.586 105.215 170.894 105.115 170.425 105.017C169.954 104.921 169.701 104.842 169.706 104.825C169.717 104.767 170.752 105.021 172.453 105.041C174.143 105.069 176.526 104.779 178.871 103.724C181.216 102.67 182.968 101.103 184.019 99.8419C185.084 98.5772 185.539 97.6546 185.592 97.6838Z" fill="#455A64"/>
<path d="M140.678 103.241L147.056 112.077L148.283 117.184C148.283 117.184 148.501 115.563 148.841 114.023C149.182 112.483 148.841 107.862 148.841 107.862L144.164 101.214C144.164 101.214 141.443 97.5659 143.739 95.3774L148.283 99.6743C148.283 99.6743 144.419 94.5532 147.056 92.6553L150.801 95.6777C150.801 95.6777 149.739 94.4662 151.185 93.4933L160.832 102.35L162.022 117.185L161.512 132.831L171.101 144.857L157.219 157.884C157.219 157.884 144.198 137.65 143.432 134.569C142.667 131.488 143.399 114.509 143.399 114.509C143.399 114.509 139.438 109.052 139.488 106.645C139.537 104.238 140.678 103.241 140.678 103.241Z" fill="#FFBE9D"/>
<path d="M151.657 148.599C151.651 148.602 151.613 148.559 151.546 148.47C151.475 148.373 151.378 148.24 151.251 148.068C150.995 147.698 150.625 147.163 150.142 146.467C149.186 145.053 147.79 142.968 146.124 140.23C145.303 138.854 144.379 137.335 143.594 135.55C143.167 134.651 143.079 133.606 143.005 132.579C142.939 131.542 142.902 130.467 142.888 129.356C142.827 124.912 142.94 119.886 143.143 114.373L143.188 114.523C142.049 112.911 140.928 111.194 140.014 109.27C139.787 108.788 139.582 108.29 139.424 107.763C139.342 107.502 139.284 107.227 139.243 106.945L139.211 106.511L139.231 106.096C139.271 105.543 139.374 104.984 139.568 104.444C139.769 103.899 140.018 103.387 140.486 102.916L140.713 102.688L140.912 102.962C142.943 105.769 145.09 108.733 147.302 111.79L147.335 111.835L147.347 111.888C147.734 113.489 148.154 115.23 148.58 116.994L147.982 117.022C148.112 116.281 148.244 115.529 148.378 114.768C148.444 114.393 148.51 114.015 148.577 113.635C148.631 113.273 148.658 112.89 148.67 112.504C148.716 110.957 148.638 109.357 148.532 107.758L148.584 107.902C147.671 106.606 146.733 105.272 145.778 103.915C145.3 103.237 144.819 102.553 144.334 101.865C144.1 101.522 143.836 101.181 143.606 100.802C143.381 100.428 143.173 100.045 143.007 99.6397C142.691 98.9064 142.487 98.1079 142.518 97.2848C142.541 96.4657 142.891 95.6203 143.519 95.042L143.743 94.8361L143.959 95.0414C145.49 96.4897 147.005 97.9232 148.502 99.3394L148.032 99.7221C147.233 98.6061 146.566 97.441 146.135 96.162C145.927 95.5242 145.787 94.8481 145.844 94.148C145.894 93.4513 146.26 92.7271 146.872 92.2987L147.076 92.1562L147.26 92.3147C148.556 93.4312 149.835 94.5318 151.097 95.6186L150.649 95.9938C150.365 95.5596 150.194 95.0946 150.221 94.5661C150.24 94.0341 150.595 93.5462 151.01 93.2648L151.213 93.1275L151.39 93.2882C154.742 96.3313 157.96 99.2519 161.023 102.033L161.101 102.103L161.109 102.205C161.524 107.545 161.91 112.504 162.263 117.043L162.264 117.056L162.263 117.067C162.043 123.091 161.85 128.334 161.689 132.712L161.654 132.605C164.548 136.331 166.84 139.28 168.414 141.306C169.186 142.317 169.781 143.096 170.189 143.63C170.383 143.891 170.531 144.092 170.636 144.235C170.735 144.372 170.782 144.444 170.775 144.448C170.768 144.453 170.708 144.39 170.597 144.262C170.483 144.126 170.322 143.934 170.112 143.685C169.687 143.162 169.067 142.401 168.263 141.414C166.658 139.41 164.322 136.493 161.371 132.807L161.334 132.761L161.336 132.701C161.461 128.322 161.611 123.078 161.782 117.053L161.783 117.078C161.407 112.541 160.997 107.584 160.555 102.245L160.64 102.417C157.568 99.6449 154.342 96.7328 150.98 93.6995L151.36 93.723C151.046 93.9478 150.832 94.2469 150.817 94.6033C150.791 94.9516 150.937 95.3583 151.143 95.6683L152.323 97.4398L150.695 96.0436C149.431 94.9596 148.15 93.8608 146.851 92.7466L147.239 92.7626C146.771 93.0995 146.502 93.6177 146.454 94.1994C146.407 94.7812 146.527 95.3949 146.722 95.9875C147.121 97.1744 147.779 98.3258 148.535 99.3772L148.065 99.7593C146.567 98.3436 145.051 96.9113 143.519 95.4641L143.96 95.4636C143.441 95.9463 143.166 96.6116 143.142 97.3117C143.116 98.0124 143.291 98.7371 143.586 99.4178C143.74 99.7924 143.936 100.153 144.146 100.502C144.353 100.845 144.608 101.177 144.848 101.528C145.333 102.217 145.815 102.902 146.293 103.581C147.248 104.94 148.186 106.275 149.099 107.573L149.146 107.64L149.151 107.718C149.256 109.337 149.333 110.936 149.284 112.526C149.271 112.923 149.245 113.32 149.182 113.726C149.114 114.112 149.047 114.495 148.979 114.876C148.846 115.627 148.714 116.368 148.585 117.098L148.327 118.549L147.986 117.126C147.564 115.361 147.147 113.619 146.764 112.017L146.809 112.115C144.605 109.053 142.468 106.083 140.444 103.27L140.869 103.316C140.54 103.645 140.267 104.14 140.099 104.618C139.921 105.106 139.823 105.62 139.784 106.136C139.671 107.144 140.097 108.122 140.509 109.063C141.388 110.936 142.498 112.657 143.609 114.246L143.658 114.316L143.655 114.395C143.424 119.898 143.278 124.922 143.302 129.353C143.308 130.461 143.335 131.53 143.39 132.559C143.457 133.589 143.527 134.564 143.926 135.427C144.675 137.179 145.581 138.714 146.38 140.093C148.003 142.845 149.359 144.952 150.272 146.39C150.727 147.103 151.076 147.65 151.317 148.028C151.429 148.209 151.516 148.349 151.579 148.451C151.636 148.545 151.663 148.595 151.657 148.599Z" fill="#EB996E"/>
<path d="M154.489 114.891C154.402 114.896 154.269 113.925 154.124 112.352C153.978 110.779 153.82 108.603 153.684 106.199C153.671 105.972 153.659 105.748 153.647 105.538L153.727 105.721C152.143 104.044 150.751 102.527 149.771 101.416C148.792 100.305 148.223 99.6002 148.284 99.5476C148.345 99.495 149.024 100.104 150.087 101.143C151.15 102.183 152.596 103.653 154.19 105.322L154.264 105.4L154.27 105.506C154.282 105.716 154.295 105.94 154.308 106.167C154.444 108.571 154.532 110.75 154.565 112.329C154.598 113.908 154.575 114.887 154.489 114.891Z" fill="#EB996E"/>
<path d="M158.15 110.234C158.068 110.238 157.945 109.358 157.81 107.913C157.675 106.467 157.529 104.457 157.399 102.201L157.492 102.398C157.321 102.239 157.138 102.069 156.954 101.898C155.137 100.203 153.516 98.6446 152.365 97.4955C151.214 96.3463 150.532 95.6062 150.593 95.5472C150.653 95.4883 151.444 96.1221 152.674 97.1946C153.904 98.2665 155.574 99.7772 157.391 101.473C157.575 101.644 157.757 101.814 157.927 101.974L158.014 102.055L158.02 102.17C158.137 104.426 158.21 106.44 158.234 107.892C158.258 109.343 158.232 110.23 158.15 110.234Z" fill="#EB996E"/>
<path d="M128.486 124.441C128.486 124.441 127.467 117.82 126.508 115.465C125.548 113.11 122.895 110.13 122.895 110.13C122.895 110.13 124.342 108.591 126.668 109.892C129.694 111.586 129.533 115.437 129.533 115.437L128.486 124.441Z" fill="#FFBE9D"/>
<path d="M129.245 116.067C129.245 116.067 127.6 105.093 127.71 104.362C127.82 103.63 132.095 94.0147 132.095 94.0147C132.095 94.0147 134.616 93.8059 134.288 96.1048C133.959 98.4042 133.082 100.912 133.082 100.912L139.878 93.3872C139.878 93.3872 142.4 93.91 141.413 96.3136C141.413 96.3136 143.715 96.0001 143.058 99.658L140.018 105.211L140.364 110.984L145.36 104.727C145.36 104.727 147.772 106.138 146.566 108.437C145.36 110.737 142.839 116.066 142.839 116.066L143.571 124.323C143.571 124.323 144.852 128.922 143.571 131.326C142.291 133.729 141.085 135.925 141.085 135.925L138.797 155.976L123.923 147.076L128.258 126.937L129.245 116.067Z" fill="#FFBE9D"/>
<path d="M138.799 155.976C138.788 155.974 138.792 155.856 138.808 155.624C138.829 155.384 138.858 155.042 138.896 154.596C138.988 153.683 139.121 152.351 139.293 150.631C139.665 147.171 140.204 142.157 140.878 135.903L140.882 135.867L140.9 135.831C141.335 135.019 141.785 134.179 142.249 133.313C142.48 132.881 142.715 132.442 142.954 131.997C143.193 131.548 143.454 131.106 143.603 130.65C143.908 129.71 143.938 128.659 143.867 127.602C143.79 126.545 143.608 125.455 143.328 124.386L143.322 124.363L143.32 124.344C143.081 121.726 142.829 118.964 142.567 116.089L142.561 116.02L142.591 115.958C143.47 114.149 144.382 112.274 145.318 110.347C145.553 109.865 145.789 109.38 146.026 108.892C146.262 108.387 146.524 107.946 146.586 107.464C146.752 106.497 146.085 105.522 145.207 104.967L145.599 104.897C144.02 106.878 142.332 108.997 140.609 111.159L140.109 111.787L140.061 110.999C139.951 109.176 139.831 107.213 139.711 105.226L139.706 105.145L139.745 105.072C140.71 103.31 141.741 101.424 142.783 99.5185L142.753 99.6061C142.841 99.0369 142.909 98.434 142.813 97.8643C142.729 97.2952 142.423 96.7861 141.893 96.6523C141.754 96.6116 141.574 96.5968 141.46 96.6071L140.941 96.6528L141.125 96.2038C141.35 95.6564 141.419 95.0632 141.163 94.6028C140.924 94.14 140.356 93.814 139.815 93.6767L140.117 93.58C137.806 96.1369 135.535 98.6485 133.316 101.102L132.332 102.191L132.793 100.818C133.246 99.4665 133.627 98.0903 133.88 96.7249C133.945 96.3846 134.001 96.0322 134.015 95.729C134.011 95.4213 133.949 95.1273 133.786 94.9008C133.471 94.4415 132.746 94.2676 132.124 94.2962L132.373 94.1234C131.522 96.0557 130.689 97.9513 129.873 99.8057C129.476 100.736 129.083 101.657 128.695 102.566C128.507 103.021 128.318 103.477 128.15 103.926C128.112 104.034 128.06 104.157 128.034 104.253L127.991 104.395L127.992 104.54C128 104.751 128.019 105 128.044 105.233C128.467 109.034 129.014 112.649 129.496 116.031L129.5 116.06L129.498 116.086C129.125 120.039 128.782 123.671 128.471 126.952L128.47 126.965L128.468 126.976C127.076 133.247 125.961 138.273 125.191 141.741C124.796 143.462 124.49 144.794 124.28 145.708C124.172 146.151 124.088 146.491 124.03 146.731C123.971 146.961 123.935 147.077 123.925 147.075C123.915 147.073 123.931 146.953 123.971 146.719C124.016 146.477 124.08 146.133 124.163 145.685C124.348 144.766 124.617 143.427 124.964 141.697C125.69 138.22 126.741 133.181 128.053 126.895L128.049 126.918C128.335 123.635 128.651 120.001 128.996 116.045L128.998 116.1C128.494 112.713 127.931 109.114 127.488 105.284C127.462 105.039 127.441 104.808 127.431 104.537L127.435 104.32L127.491 104.112C127.531 103.973 127.575 103.871 127.617 103.749C127.79 103.283 127.977 102.828 128.165 102.368C128.551 101.455 128.941 100.531 129.336 99.5969C130.147 97.7385 130.976 95.8394 131.822 93.9026L131.894 93.7385L132.071 93.7305C132.488 93.711 132.868 93.7505 133.261 93.8746C133.646 93.9965 134.034 94.2264 134.283 94.5782C134.536 94.9288 134.615 95.3475 134.62 95.7348C134.602 96.1312 134.542 96.4726 134.478 96.825C134.22 98.2315 133.839 99.6152 133.375 101.005L132.851 100.721C135.067 98.2653 137.335 95.7519 139.645 93.1928L139.771 93.0532L139.948 93.0961C140.326 93.1876 140.642 93.3284 140.956 93.5274C141.262 93.7259 141.539 93.9965 141.717 94.3294C142.091 95.0089 141.964 95.8005 141.707 96.4217L141.371 96.0185C141.631 95.995 141.838 96.0219 142.066 96.0814C142.459 96.1878 142.818 96.44 143.036 96.7592C143.251 97.0761 143.385 97.4285 143.429 97.7676C143.541 98.4512 143.461 99.0981 143.367 99.7079L143.36 99.7508L143.336 99.7954C142.292 101.701 141.259 103.585 140.294 105.347L140.329 105.194C140.446 107.182 140.563 109.145 140.671 110.967L140.122 110.808C141.85 108.649 143.543 106.534 145.126 104.556L145.295 104.345L145.517 104.486C146.06 104.832 146.482 105.26 146.803 105.786C147.12 106.306 147.254 106.944 147.165 107.541C147.082 108.148 146.764 108.667 146.545 109.14C146.307 109.626 146.07 110.109 145.834 110.588C144.892 112.507 143.976 114.373 143.091 116.176L143.114 116.046C143.362 118.921 143.6 121.686 143.826 124.304L143.818 124.262C144.104 125.379 144.28 126.479 144.354 127.573C144.418 128.664 144.386 129.757 144.047 130.786C143.869 131.31 143.597 131.755 143.36 132.195C143.117 132.638 142.879 133.076 142.643 133.508C142.172 134.371 141.715 135.208 141.272 136.018L141.295 135.947C140.542 142.193 139.938 147.2 139.521 150.655C139.301 152.37 139.131 153.698 139.014 154.609C138.951 155.052 138.902 155.392 138.868 155.631C138.832 155.86 138.809 155.977 138.799 155.976Z" fill="#EB996E"/>
<path d="M132.321 112.651C132.15 112.672 131.621 109.938 131.141 106.542C131.001 105.552 130.88 104.615 130.786 103.797L130.774 103.69L130.831 103.612C132.075 101.945 132.982 100.847 133.083 100.912C133.184 100.977 132.453 102.189 131.294 103.91L131.34 103.725C131.476 104.537 131.62 105.471 131.761 106.462C132.241 109.857 132.492 112.629 132.321 112.651Z" fill="#EB996E"/>
<path d="M136.14 110.13C135.999 110.145 135.609 107.816 135.198 104.596L135.185 104.493L135.248 104.403C135.653 103.832 136.088 103.218 136.539 102.582C139.09 99.0267 141.272 96.2211 141.415 96.3138C141.557 96.4064 139.606 99.3631 137.054 102.919C136.596 103.55 136.154 104.158 135.742 104.726L135.793 104.533C136.129 107.761 136.281 110.116 136.14 110.13Z" fill="#EB996E"/>
<path d="M59.2542 176.078C52.2276 165.832 52.4982 150.856 60.8904 141.59C63.495 138.714 67.1358 136.215 71.1066 136.539C75.1728 136.871 78.4482 140.195 79.6854 143.903C80.9226 147.61 80.4936 151.627 79.767 155.455C78.7494 160.815 77.0454 166.3 73.1454 170.28C69.2448 174.261 64.2684 178.69 59.2542 176.078Z" fill="#E8505B"/>
<path d="M62.3856 225.056C59.7396 219.17 61.6584 211.717 66.8628 207.668C68.478 206.411 70.5912 205.438 72.6066 205.948C74.67 206.47 76.0416 208.466 76.3266 210.483C76.6116 212.5 76.0086 214.532 75.2706 216.441C74.2368 219.115 72.8376 221.794 70.4496 223.508C68.0622 225.222 64.7208 226.835 62.3856 225.056Z" fill="#E8505B"/>
<path d="M45.4416 221.538C47.3736 212.455 42.3522 202.432 33.7266 198.156C31.0494 196.828 27.7542 196.042 25.056 197.33C22.2936 198.649 20.9658 201.863 21.1854 204.8C21.4044 207.739 22.8864 210.45 24.5226 212.948C26.8134 216.446 29.6232 219.849 33.5364 221.608C37.449 223.368 42.6816 224.715 45.4416 221.538Z" fill="#E8505B"/>
<path d="M46.659 196.977C50.0232 186.627 44.319 174.078 34.8126 168.14C31.8618 166.297 28.1256 165.014 24.8292 166.212C21.4536 167.437 19.5144 171.027 19.4082 174.469C19.302 177.91 20.6922 181.229 22.2876 184.318C24.522 188.644 27.372 192.916 31.707 195.399C36.042 197.882 43.0584 200.362 46.659 196.977Z" fill="#E8505B"/>
<path d="M53.4156 247.563C53.4 247.564 53.3622 247.392 53.3058 247.062C53.247 246.685 53.172 246.207 53.0802 245.619C53.0334 245.299 52.983 244.952 52.9278 244.575C52.8504 244.193 52.7676 243.783 52.6788 243.344C52.5024 242.461 52.3194 241.453 52.0158 240.358C51.876 239.807 51.7302 239.231 51.5784 238.633C51.396 238.039 51.2064 237.423 51.0102 236.786C50.6478 235.502 50.1132 234.173 49.6116 232.758C48.4992 229.963 47.1168 226.947 45.4206 223.899C43.6926 220.865 41.8206 218.1 39.9918 215.67C39.0312 214.489 38.1654 213.33 37.2426 212.332C36.7938 211.824 36.36 211.333 35.9424 210.86C35.5032 210.409 35.0808 209.974 34.6764 209.559C33.8874 208.713 33.1068 208.01 32.4324 207.382C32.0982 207.069 31.785 206.776 31.494 206.504C31.1952 206.252 30.9192 206.02 30.666 205.806C30.2022 205.407 29.826 205.084 29.529 204.829C29.2722 204.602 29.142 204.477 29.1516 204.465C29.1612 204.453 29.3112 204.555 29.5878 204.761C29.8998 205 30.2958 205.303 30.7836 205.677C31.0458 205.882 31.3314 206.106 31.641 206.348C31.941 206.614 32.2644 206.899 32.6088 207.203C33.303 207.817 34.1034 208.508 34.9122 209.345C35.3256 209.756 35.7576 210.187 36.207 210.634C36.6336 211.104 37.077 211.593 37.5348 212.098C38.4756 213.092 39.3582 214.249 40.3338 215.431C42.1926 217.861 44.088 220.638 45.8268 223.691C47.5338 226.759 48.9132 229.799 50.01 232.619C50.5038 234.047 51.0276 235.387 51.3762 236.684C51.5646 237.327 51.7464 237.949 51.9216 238.548C52.0644 239.152 52.2012 239.733 52.3326 240.29C52.617 241.394 52.7784 242.412 52.9314 243.303C53.007 243.745 53.0778 244.159 53.1438 244.545C53.1846 244.925 53.2224 245.276 53.2566 245.597C53.3136 246.192 53.3604 246.674 53.397 247.054C53.4246 247.387 53.4312 247.562 53.4156 247.563Z" fill="#263238"/>
<path d="M53.1672 249.423C53.1594 249.421 53.1594 249.352 53.1672 249.216C53.1798 249.055 53.1948 248.858 53.2134 248.616C53.2674 248.054 53.3418 247.287 53.436 246.317C53.4882 245.814 53.5452 245.261 53.6076 244.657C53.6556 244.049 53.673 243.387 53.712 242.676C53.7678 241.254 53.91 239.637 53.8578 237.845C53.853 236.949 53.8482 236.011 53.8434 235.034C53.8332 234.058 53.736 233.043 53.6844 231.993C53.6106 229.887 53.31 227.655 53.0448 225.302C52.3704 220.614 51.3174 215.498 49.7142 210.252C48.0582 205.019 46.0152 200.182 43.8996 195.901C42.7764 193.79 41.7522 191.762 40.6098 189.958C40.0524 189.05 39.5538 188.149 39.0036 187.325C38.4492 186.503 37.917 185.714 37.4082 184.961C36.4278 183.432 35.3838 182.15 34.524 180.987C34.0848 180.412 33.6918 179.865 33.3036 179.381C32.9064 178.907 32.5416 178.473 32.211 178.079C31.5774 177.315 31.0764 176.709 30.7098 176.267C30.5562 176.074 30.4308 175.917 30.3282 175.788C30.2442 175.679 30.204 175.62 30.21 175.615C30.216 175.61 30.2682 175.659 30.3642 175.759C30.4764 175.88 30.6132 176.028 30.7812 176.209C31.1646 176.64 31.689 177.228 32.3514 177.972C32.6922 178.36 33.0684 178.787 33.4782 179.252C33.8772 179.73 34.2816 180.271 34.7316 180.841C35.6136 181.993 36.6792 183.266 37.6806 184.789C38.199 185.541 38.7414 186.328 39.3066 187.146C39.8664 187.969 40.3752 188.868 40.9416 189.777C42.1026 191.58 43.1448 193.61 44.2824 195.725C46.4286 200.015 48.4932 204.871 50.1564 210.128C51.7668 215.398 52.8126 220.541 53.466 225.252C53.7216 227.616 54.0084 229.859 54.0666 231.974C54.1104 233.03 54.1986 234.048 54.1998 235.029C54.1944 236.009 54.1896 236.95 54.1842 237.849C54.216 239.647 54.0504 241.268 53.97 242.692C53.9184 243.404 53.889 244.068 53.8272 244.676C53.7498 245.28 53.679 245.833 53.6148 246.335C53.4846 247.303 53.3814 248.069 53.3064 248.629C53.2692 248.868 53.2392 249.063 53.2146 249.224C53.1906 249.356 53.175 249.424 53.1672 249.423Z" fill="#263238"/>
<path d="M71.46 148.912C71.4666 148.916 71.436 148.981 71.37 149.103C71.289 149.248 71.1894 149.424 71.067 149.641C70.7742 150.14 70.3728 150.822 69.8658 151.685C69.6078 152.13 69.2988 152.612 69 153.162C68.7102 153.718 68.3964 154.319 68.0598 154.964C67.7208 155.612 67.359 156.302 66.9762 157.033C66.6102 157.773 66.2622 158.573 65.874 159.403C65.4978 160.238 65.0748 161.101 64.686 162.021C64.3116 162.947 63.9222 163.91 63.5196 164.906C63.3186 165.405 63.114 165.912 62.9058 166.427C62.7204 166.95 62.5314 167.481 62.3406 168.021C61.959 169.099 61.5666 170.21 61.1646 171.347C59.6754 175.939 58.2642 181.052 57.0726 186.481C55.9188 191.92 55.1088 197.153 54.5112 201.926C53.9988 206.708 53.6202 211.026 53.5164 214.662C53.4198 216.479 53.4 218.123 53.394 219.568C53.3694 221.013 53.364 222.257 53.3994 223.274C53.4138 224.263 53.4258 225.046 53.4342 225.617C53.433 225.863 53.4324 226.064 53.4318 226.227C53.4288 226.365 53.4228 226.435 53.415 226.436C53.4072 226.437 53.397 226.366 53.385 226.23C53.3736 226.067 53.3592 225.867 53.3418 225.621C53.3124 225.05 53.2722 224.268 53.2212 223.279C53.1582 222.261 53.1372 221.015 53.1372 219.568C53.1192 218.121 53.1156 216.473 53.1918 214.652C53.2536 211.008 53.5998 206.678 54.09 201.882C54.666 197.095 55.4652 191.847 56.622 186.393C57.8172 180.949 59.2446 175.823 60.7614 171.225C61.1712 170.085 61.5708 168.974 61.9596 167.894C62.1552 167.354 62.3478 166.822 62.5374 166.299C62.7498 165.783 62.9586 165.276 63.1644 164.777C63.5772 163.781 63.9756 162.818 64.359 161.892C64.758 160.973 65.1912 160.111 65.5782 159.278C65.9766 158.449 66.336 157.651 66.7134 156.913C67.1088 156.186 67.482 155.498 67.8324 154.854C68.1816 154.213 68.5074 153.616 68.8086 153.063C69.1194 152.519 69.441 152.041 69.7116 151.602C70.251 150.755 70.6776 150.085 70.9896 149.596C71.1276 149.388 71.2398 149.219 71.3316 149.081C71.4096 148.966 71.4534 148.908 71.46 148.912Z" fill="#263238"/>
<path d="M69.072 211.782C69.0984 211.799 68.8308 212.244 68.325 213.032C67.8114 213.815 67.1058 214.972 66.279 216.421C65.445 217.867 64.5372 219.632 63.6174 221.628C62.7198 223.632 61.8222 225.873 61.0344 228.275C60.2634 230.682 59.6784 233.015 59.2338 235.154C58.8126 237.296 58.5174 239.242 58.3506 240.885C58.176 242.526 58.074 243.861 58.035 244.783C57.9858 245.706 57.9438 246.217 57.912 246.217C57.8802 246.217 57.8616 245.705 57.8556 244.779C57.84 243.852 57.8922 242.51 58.026 240.857C58.152 239.202 58.4154 237.24 58.8168 235.079C59.2416 232.922 59.8182 230.569 60.5946 228.145C61.3878 225.727 62.304 223.474 63.2292 221.465C64.1766 219.465 65.1204 217.704 65.9952 216.27C66.8628 214.833 67.6134 213.696 68.175 212.94C68.7282 212.177 69.0462 211.765 69.072 211.782Z" fill="#263238"/>
<path d="M39.615 242.951H70.4808L66.7458 273.005H43.4598L39.615 242.951Z" fill="#455A64"/>
<path d="M40.7418 269.761L43.3632 273.005H66.7458L69.4422 269.865L40.7418 269.761Z" fill="#263238"/>
<path d="M69.2778 251.79C69.2778 251.912 62.8728 252.009 54.9732 252.009C47.0712 252.009 40.6668 251.911 40.6668 251.79C40.6668 251.669 47.0706 251.571 54.9732 251.571C62.8728 251.571 69.2778 251.67 69.2778 251.79Z" fill="#FAFAFA"/>
<path d="M69.2778 253.791C69.2778 253.913 62.8728 254.01 54.9732 254.01C47.0712 254.01 40.6668 253.912 40.6668 253.791C40.6668 253.67 47.0706 253.572 54.9732 253.572C62.8728 253.572 69.2778 253.67 69.2778 253.791Z" fill="#FAFAFA"/>
<path d="M68.8926 255.728C68.8926 255.85 62.7114 255.948 55.089 255.948C47.4636 255.948 41.2836 255.849 41.2836 255.728C41.2836 255.607 47.463 255.509 55.089 255.509C62.712 255.509 68.8926 255.607 68.8926 255.728Z" fill="#FAFAFA"/>
<path d="M44.331 178.18C44.3418 178.181 44.34 178.28 44.3274 178.466C44.3082 178.687 44.2848 178.956 44.2566 179.283C44.1768 180.035 44.0694 181.047 43.9392 182.277C43.6572 184.804 43.2468 188.292 42.774 192.143C42.756 192.29 42.738 192.437 42.7212 192.573L42.705 192.703L42.5682 192.705C38.6028 192.763 35.0346 192.8 32.457 192.812C31.2048 192.811 30.1752 192.811 29.4084 192.811C29.0784 192.805 28.8054 192.8 28.581 192.796C28.392 192.789 28.2924 192.781 28.2924 192.771C28.2924 192.761 28.3914 192.75 28.5798 192.737C28.8042 192.726 29.0766 192.713 29.406 192.697C30.1722 192.674 31.2012 192.643 32.4528 192.604C35.0292 192.539 38.5974 192.468 42.5628 192.408L42.4104 192.539C42.4272 192.403 42.4452 192.256 42.4632 192.108C42.936 188.258 43.3812 184.773 43.719 182.253C43.89 181.028 44.0304 180.019 44.1354 179.269C44.187 178.946 44.2296 178.679 44.2644 178.46C44.298 178.275 44.3202 178.179 44.331 178.18Z" fill="#263238"/>
<path d="M37.3128 169.193C37.3236 169.193 37.3314 169.295 37.3368 169.488C37.3386 169.715 37.3416 169.994 37.3446 170.332C37.3374 171.109 37.3272 172.157 37.3146 173.433C37.2756 176.052 37.2006 179.668 37.098 183.662C37.0938 183.824 37.0896 183.985 37.086 184.134L37.0818 184.291L36.9174 184.279C32.8554 183.977 29.1852 183.974 26.5398 184.055C25.2168 184.094 24.1482 184.145 23.4108 184.183C23.0712 184.199 22.7904 184.211 22.5612 184.222C22.3668 184.228 22.2642 184.226 22.2636 184.216C22.263 184.206 22.3632 184.188 22.5564 184.163C22.749 184.139 23.034 184.103 23.4024 184.069C24.138 183.997 25.2066 183.914 26.5314 183.847C29.181 183.712 32.865 183.682 36.942 183.981L36.774 184.126C36.7776 183.977 36.7818 183.816 36.786 183.654C36.8886 179.66 36.9984 176.045 37.0938 173.427C37.1466 172.153 37.1904 171.105 37.2228 170.328C37.2432 169.991 37.26 169.713 37.2738 169.486C37.2888 169.293 37.302 169.193 37.3128 169.193Z" fill="#263238"/>
<path d="M29.0988 166.131C29.1204 166.128 29.1846 166.436 29.2908 166.994C29.4084 167.603 29.5626 168.399 29.7486 169.359C30.1488 171.356 30.7734 174.11 31.656 177.123L31.749 177.44L31.4358 177.296C31.3188 177.242 31.1922 177.184 31.0656 177.126C28.0338 175.728 25.0236 175.082 22.839 174.832C21.744 174.703 20.8506 174.655 20.2332 174.634C19.6158 174.614 19.2726 174.607 19.272 174.584C19.272 174.574 19.3572 174.562 19.5198 174.551C19.683 174.541 19.9236 174.521 20.2344 174.518C20.8554 174.504 21.756 174.519 22.8636 174.622C25.0722 174.82 28.131 175.441 31.2012 176.857C31.3296 176.916 31.4574 176.975 31.5762 177.029L31.356 177.202C30.4728 174.177 29.8812 171.406 29.5356 169.395C29.3616 168.389 29.2428 167.574 29.1738 167.009C29.103 166.447 29.0784 166.134 29.0988 166.131Z" fill="#263238"/>
<path d="M72.6846 220.921C72.6786 220.966 71.7894 220.879 70.35 220.825C68.9118 220.773 66.9192 220.775 64.7364 220.999C64.293 221.043 63.8598 221.096 63.4452 221.15L63.2976 221.17L63.2718 221.031C62.9388 219.252 62.6586 217.684 62.472 216.558C62.2848 215.432 62.1912 214.75 62.229 214.744C62.2674 214.737 62.4312 215.407 62.6718 216.524C62.9124 217.64 63.2298 219.202 63.5754 220.979L63.402 220.86C63.8196 220.803 64.257 220.748 64.7046 220.704C66.9072 220.477 68.9196 220.509 70.3632 220.615C71.0856 220.668 71.6676 220.739 72.0684 220.795C72.468 220.856 72.6876 220.901 72.6846 220.921Z" fill="#263238"/>
<path d="M75.6006 215.398C75.5886 215.445 74.7366 215.254 73.3392 215.089C71.9442 214.926 69.9948 214.822 67.8624 215.037C67.53 215.069 67.2042 215.111 66.8952 215.152L66.7344 215.173L66.7182 215.021C66.5238 213.191 66.366 211.57 66.267 210.406C66.168 209.241 66.1272 208.532 66.1668 208.528C66.2064 208.524 66.3192 209.226 66.4734 210.385C66.6276 211.544 66.8226 213.162 67.0266 214.99L66.8496 214.859C67.1628 214.816 67.4934 214.774 67.83 214.741C69.993 214.523 71.9706 214.662 73.3704 214.881C74.0718 214.99 74.6316 215.113 75.0156 215.21C75.3978 215.311 75.6054 215.379 75.6006 215.398Z" fill="#263238"/>
<path d="M77.6916 163.081C77.6958 163.091 77.5902 163.143 77.3856 163.233C77.148 163.334 76.8498 163.46 76.4838 163.615C75.6558 163.952 74.5254 164.41 73.146 164.97C70.2804 166.102 66.3888 167.639 62.0886 169.337C61.884 169.416 61.6806 169.496 61.4916 169.57L61.3512 169.625L61.29 169.493C59.4648 165.563 57.8238 162.031 56.6184 159.435C56.0496 158.177 55.5846 157.148 55.2438 156.393C55.0986 156.057 54.9798 155.782 54.885 155.562C54.8064 155.371 54.7692 155.269 54.7788 155.265C54.7884 155.261 54.8442 155.355 54.9408 155.538C55.0494 155.752 55.1856 156.019 55.3518 156.347C55.7148 157.092 56.2104 158.108 56.8158 159.351C58.044 161.937 59.715 165.456 61.5744 169.371L61.3728 169.295C61.5618 169.221 61.7652 169.142 61.9698 169.061C66.2832 167.395 70.1868 165.887 73.062 164.776C74.457 164.252 75.6006 163.823 76.4376 163.508C76.812 163.375 77.118 163.265 77.3616 163.178C77.574 163.105 77.6874 163.071 77.6916 163.081Z" fill="#263238"/>
<path d="M80.3952 150.37C80.4006 150.379 80.307 150.444 80.124 150.561C79.9104 150.692 79.6428 150.857 79.314 151.06C78.5676 151.504 77.5476 152.109 76.3008 152.85C73.7046 154.359 70.1718 156.413 66.2472 158.694L66.0864 158.787L66.0198 158.617C65.9622 158.472 65.9004 158.314 65.838 158.155C64.1994 153.94 62.7162 150.126 61.6248 147.318C61.1106 145.955 60.6894 144.839 60.3816 144.022C60.2502 143.656 60.1434 143.358 60.0582 143.121C59.9874 142.914 59.9556 142.803 59.9658 142.799C59.976 142.796 60.0282 142.899 60.1176 143.1C60.2172 143.332 60.342 143.624 60.4956 143.982C60.8268 144.791 61.2792 145.896 61.8318 147.246C62.9454 150.045 64.4586 153.849 66.1308 158.053C66.1932 158.211 66.255 158.369 66.3126 158.515L66.0852 158.439C70.029 156.188 73.5786 154.161 76.188 152.672C77.4558 151.965 78.4932 151.385 79.2522 150.962C79.593 150.779 79.8702 150.63 80.0916 150.511C80.286 150.41 80.3898 150.362 80.3952 150.37Z" fill="#263238"/>
<path d="M79.5096 143.588C79.5186 143.606 79.281 143.733 78.8472 143.961C78.4134 144.19 77.7864 144.526 77.025 144.976C75.5022 145.872 73.4538 147.26 71.4312 149.15L71.0442 149.511L71.1738 149.008C71.3094 148.482 71.4336 147.927 71.5296 147.356C72.045 144.297 71.6424 141.464 71.0934 139.514C70.8186 138.535 70.515 137.765 70.3026 137.233C70.0764 136.708 69.9522 136.415 69.9726 136.405C69.9906 136.396 70.152 136.672 70.4142 137.187C70.662 137.708 71.001 138.473 71.3058 139.457C71.916 141.413 72.3618 144.291 71.838 147.402C71.7408 147.982 71.613 148.546 71.4732 149.081L71.2158 148.939C73.2678 147.038 75.3594 145.666 76.92 144.809C77.7006 144.379 78.3462 144.067 78.7968 143.867C79.248 143.668 79.5018 143.573 79.5096 143.588Z" fill="#263238"/>
<path d="M44.2895 209.566C44.3105 209.571 44.2553 209.84 44.1479 210.326C44.0405 210.812 43.8857 211.516 43.7171 212.393C43.3769 214.147 43.0109 216.602 42.8879 219.363L42.8819 219.497L42.7415 219.505C42.5219 219.517 42.2867 219.531 42.0497 219.545C38.9891 219.721 36.2177 219.863 34.2107 219.952C33.2519 219.988 32.4533 220.018 31.8329 220.041C31.2713 220.055 30.9599 220.054 30.9587 220.033C30.9575 220.013 31.2665 219.975 31.8257 219.925C32.4443 219.877 33.2411 219.815 34.1975 219.741C36.2009 219.598 38.9705 219.423 42.0311 219.247C42.2681 219.233 42.5033 219.22 42.7229 219.207L42.5765 219.349C42.7055 216.57 43.1099 214.103 43.5071 212.353C43.7039 211.477 43.8911 210.777 44.0339 210.298C44.1767 209.82 44.2703 209.56 44.2895 209.566Z" fill="#263238"/>
<path d="M38.2242 201.275C38.2446 201.278 38.2254 201.55 38.1732 202.042C38.1078 202.588 38.0244 203.289 37.9236 204.134C37.6992 205.904 37.3674 208.362 36.978 211.118L36.9612 211.239L36.8334 211.247C36.5172 211.266 36.18 211.287 35.8398 211.308C32.7036 211.511 29.8752 211.82 27.8328 212.074C26.8554 212.199 26.0418 212.302 25.4136 212.383C24.8424 212.457 24.5244 212.49 24.5208 212.469C24.5172 212.449 24.828 212.378 25.3938 212.269C25.9602 212.162 26.7816 212.019 27.8016 211.866C29.8404 211.558 32.6736 211.216 35.8188 211.012C36.1602 210.991 36.498 210.97 36.8148 210.951L36.6696 211.079C37.0662 208.324 37.4346 205.871 37.7142 204.107C37.8534 203.268 37.9692 202.571 38.0592 202.029C38.1468 201.54 38.2044 201.273 38.2242 201.275Z" fill="#263238"/>
<path d="M31.0848 197.706C31.1298 197.716 30.9426 198.514 30.7218 199.827C30.4998 201.139 30.2682 202.975 30.2256 205.035L30.222 205.2L30.0486 205.179C29.8842 205.159 29.7084 205.138 29.5308 205.116C27.2658 204.849 25.197 204.786 23.7012 204.786C23.0064 204.794 22.4148 204.8 21.9276 204.805C21.5082 204.813 21.2754 204.81 21.2736 204.789C21.2718 204.769 21.5016 204.733 21.9198 204.69C22.338 204.648 22.9446 204.603 23.697 204.576C25.1994 204.521 27.2862 204.552 29.5686 204.82C29.7474 204.842 29.9244 204.864 30.09 204.884L29.9136 205.028C29.9622 202.95 30.2322 201.102 30.5106 199.791C30.6486 199.135 30.7836 198.611 30.8886 198.253C30.9942 197.895 31.0656 197.701 31.0848 197.706Z" fill="#263238"/>
<path d="M71.7492 205.995C71.8272 206.035 71.1588 207.347 70.3716 208.98C69.5814 210.612 68.9694 211.95 68.8866 211.919C68.808 211.891 69.2928 210.498 70.0878 208.856C70.8798 207.213 71.6754 205.956 71.7492 205.995Z" fill="#263238"/>
<path d="M75.6288 209.913C75.633 210.006 74.0064 210.024 72.1206 210.59C70.2294 211.14 68.877 212.003 68.8254 211.924C68.7738 211.872 70.0812 210.874 72.0282 210.306C73.9698 209.724 75.6402 209.842 75.6288 209.913Z" fill="#263238"/>
<path d="M273.75 273.203H233.156V244.129C233.156 233.442 242.243 224.779 253.453 224.779C264.663 224.779 273.751 233.442 273.751 244.129V273.203H273.75Z" fill="#455A64"/>
<path d="M265.668 246.618C267.193 240.432 263.169 234.238 256.68 232.784C250.191 231.33 243.694 235.166 242.168 241.353C240.643 247.539 244.667 253.733 251.157 255.187C257.646 256.641 264.143 252.804 265.668 246.618Z" fill="#F5F5F5"/>
<path d="M258.221 242.431C258.293 242.522 256.541 243.908 254.058 245.739L253.654 246.037L253.651 245.546C253.648 244.883 253.644 244.182 253.64 243.455C253.64 241.451 253.67 239.638 253.718 238.326C253.766 237.014 253.832 236.202 253.906 236.202C253.979 236.202 254.045 237.014 254.093 238.326C254.141 239.638 254.171 241.451 254.171 243.455C254.167 244.182 254.163 244.883 254.159 245.546L253.753 245.353C256.274 243.572 258.149 242.34 258.221 242.431Z" fill="#263238"/>
<path d="M264.703 266.92C264.691 266.909 264.68 266.746 264.667 266.444C264.656 266.093 264.642 265.662 264.625 265.135C264.602 263.953 264.57 262.344 264.531 260.351L264.703 260.515C259.574 260.569 251.795 260.604 243.109 260.604C243.227 260.491 242.843 260.856 243.373 260.352V260.354V260.357V260.364V260.377V260.404V260.457V260.563V260.776V261.201V262.046C243.373 262.606 243.372 263.161 243.371 263.709C243.37 264.807 243.367 265.88 243.365 266.92L243.108 266.674C249.265 266.687 254.622 266.739 258.475 266.787C260.356 266.816 261.883 266.839 263.017 266.857C263.51 266.869 263.918 266.879 264.253 266.889C264.538 266.9 264.691 266.91 264.703 266.92C264.713 266.93 264.581 266.941 264.316 266.951C263.995 266.96 263.606 266.97 263.134 266.983C262.016 267 260.507 267.024 258.652 267.052C254.813 267.1 249.373 267.153 243.107 267.165L242.851 267.166L242.85 266.92C242.848 265.88 242.846 264.808 242.844 263.71C242.843 263.161 242.843 262.606 242.842 262.046L242.842 261.202V260.777V260.564V260.458V260.404V260.378V260.364V260.358V260.354V260.352C243.371 259.846 242.989 260.212 243.108 260.099C251.794 260.099 259.573 260.134 264.701 260.188L264.877 260.19L264.874 260.352C264.835 262.385 264.803 264.027 264.779 265.234C264.763 265.746 264.748 266.165 264.737 266.505C264.725 266.79 264.714 266.931 264.703 266.92Z" fill="#263238"/>
<path d="M105.769 99.7499C104.395 99.4279 97.776 97.8777 84.9714 94.8782L85.1244 94.8553C80.5506 97.6358 74.355 99.8803 67.1718 99.9867C63.5988 99.9741 59.8188 99.5646 56.0466 98.4383C52.2786 97.3189 48.5724 95.4628 45.2052 92.9591C38.4672 87.9907 33.2208 80.0273 32.0886 70.8616C31.5102 66.3091 31.8972 61.522 33.3834 56.9391C34.8972 52.3683 37.5078 48.0371 41.0244 44.3912C42.807 42.4647 44.9064 40.8654 47.0478 39.3879C48.1722 38.7261 49.281 38.0385 50.4396 37.4568L52.2084 36.6451L53.0898 36.2413L54.006 35.9216C58.8522 34.1301 64.0092 33.4368 68.9592 33.7508C73.9152 34.0546 78.6612 35.3764 82.8126 37.4585C86.9712 39.5366 90.5358 42.3577 93.3348 45.562C96.141 48.7664 98.1804 52.3494 99.4782 55.9656C100.775 59.5869 101.366 63.2294 101.399 66.6706C101.443 73.5843 99.1758 79.5154 96.417 83.8454L96.4194 83.6664C102.203 93.6146 105.124 98.6408 105.769 99.7499C105.103 98.6534 102.079 93.6815 96.0954 83.8414L96.0414 83.7522L96.0978 83.6618C98.7864 79.3541 100.978 73.4871 100.897 66.6728C100.844 63.2803 100.243 59.6973 98.952 56.14C97.6602 52.5874 95.6412 49.0724 92.8728 45.9316C90.1116 42.7913 86.6022 40.0297 82.5156 37.9996C78.4356 35.965 73.7784 34.6775 68.9166 34.3863C64.0596 34.0854 59.0046 34.7707 54.2562 36.5302L53.358 36.8436L52.494 37.2406L50.7606 38.0374C49.6248 38.6082 48.5394 39.2838 47.4366 39.9318C45.339 41.3819 43.2798 42.9486 41.5332 44.8379C38.0856 48.4123 35.5254 52.6554 34.038 57.1348C32.5782 61.625 32.193 66.3194 32.7534 70.7861C33.8508 79.7751 38.976 87.6 45.5814 92.5027C48.882 94.972 52.5174 96.8098 56.2194 97.9246C59.925 99.0463 63.6432 99.4656 67.1646 99.4959C74.2428 99.4256 80.3688 97.2525 84.9156 94.539L84.9882 94.4955L85.0686 94.5161C97.8138 97.7387 104.403 99.4044 105.769 99.7499Z" fill="#263238"/>
<path d="M63.7608 52.1212L64.8606 68.6834C64.9506 70.0379 66.0852 71.1156 67.506 71.1962C69.0048 71.2815 70.3104 70.2313 70.4754 68.8087L72.4044 52.1635C72.5502 50.9028 71.505 49.8057 70.1748 49.8235L65.937 49.8801C64.6728 49.8961 63.6804 50.9183 63.7608 52.1212Z" fill="#E8505B"/>
<path d="M72.111 80.512C71.373 82.6307 68.9736 83.7782 66.7512 83.0746C64.5288 82.371 63.3252 80.0836 64.0632 77.9649C64.8012 75.8462 67.2006 74.6988 69.4236 75.4024C71.6454 76.1054 72.849 78.3934 72.111 80.512Z" fill="#E8505B"/>
</svg>
