<svg width="346" height="346" viewBox="0 0 346 346" fill="none" xmlns="http://www.w3.org/2000/svg">
<path d="M17.256 120.792C21.8326 120.792 26.2217 118.974 29.4578 115.738C32.694 112.502 34.512 108.113 34.512 103.536V51.768C34.512 47.1914 36.33 42.8023 39.5662 39.5662C42.8023 36.33 47.1914 34.512 51.768 34.512H103.536C108.113 34.512 112.502 32.694 115.738 29.4578C118.974 26.2217 120.792 21.8326 120.792 17.256C120.792 12.6794 118.974 8.29029 115.738 5.05416C112.502 1.81804 108.113 0 103.536 0H51.768C38.0383 0 24.8709 5.45411 15.1625 15.1625C5.45411 24.8709 0 38.0383 0 51.768V103.536C0 108.113 1.81804 112.502 5.05416 115.738C8.29029 118.974 12.6794 120.792 17.256 120.792ZM103.536 310.608H51.768C47.1914 310.608 42.8023 308.79 39.5662 305.554C36.33 302.318 34.512 297.929 34.512 293.352V241.584C34.512 237.007 32.694 232.618 29.4578 229.382C26.2217 226.146 21.8326 224.328 17.256 224.328C12.6794 224.328 8.29029 226.146 5.05416 229.382C1.81804 232.618 0 237.007 0 241.584V293.352C0 307.082 5.45411 320.249 15.1625 329.958C24.8709 339.666 38.0383 345.12 51.768 345.12H103.536C108.113 345.12 112.502 343.302 115.738 340.066C118.974 336.83 120.792 332.441 120.792 327.864C120.792 323.287 118.974 318.898 115.738 315.662C112.502 312.426 108.113 310.608 103.536 310.608ZM172.56 103.536C158.908 103.536 145.563 107.584 134.212 115.169C122.861 122.753 114.014 133.533 108.79 146.146C103.566 158.758 102.199 172.637 104.862 186.026C107.526 199.415 114.099 211.714 123.753 221.367C133.406 231.021 145.705 237.594 159.094 240.258C172.483 242.921 186.362 241.554 198.974 236.33C211.587 231.106 222.367 222.259 229.951 210.908C237.536 199.557 241.584 186.212 241.584 172.56C241.584 154.254 234.312 136.697 221.367 123.753C208.423 110.808 190.866 103.536 172.56 103.536ZM172.56 207.072C165.734 207.072 159.062 205.048 153.386 201.256C147.711 197.463 143.287 192.073 140.675 185.767C138.063 179.461 137.379 172.522 138.711 165.827C140.043 159.132 143.33 152.983 148.156 148.156C152.983 143.33 159.132 140.043 165.827 138.711C172.522 137.379 179.461 138.063 185.767 140.675C192.073 143.287 197.463 147.711 201.256 153.386C205.048 159.062 207.072 165.734 207.072 172.56C207.072 181.713 203.436 190.491 196.964 196.964C190.491 203.436 181.713 207.072 172.56 207.072ZM293.352 0H241.584C237.007 0 232.618 1.81804 229.382 5.05416C226.146 8.29029 224.328 12.6794 224.328 17.256C224.328 21.8326 226.146 26.2217 229.382 29.4578C232.618 32.694 237.007 34.512 241.584 34.512H293.352C297.929 34.512 302.318 36.33 305.554 39.5662C308.79 42.8023 310.608 47.1914 310.608 51.768V103.536C310.608 108.113 312.426 112.502 315.662 115.738C318.898 118.974 323.287 120.792 327.864 120.792C332.441 120.792 336.83 118.974 340.066 115.738C343.302 112.502 345.12 108.113 345.12 103.536V51.768C345.12 38.0383 339.666 24.8709 329.958 15.1625C320.249 5.45411 307.082 0 293.352 0ZM327.864 224.328C323.287 224.328 318.898 226.146 315.662 229.382C312.426 232.618 310.608 237.007 310.608 241.584V293.352C310.608 297.929 308.79 302.318 305.554 305.554C302.318 308.79 297.929 310.608 293.352 310.608H241.584C237.007 310.608 232.618 312.426 229.382 315.662C226.146 318.898 224.328 323.287 224.328 327.864C224.328 332.441 226.146 336.83 229.382 340.066C232.618 343.302 237.007 345.12 241.584 345.12H293.352C307.082 345.12 320.249 339.666 329.958 329.958C339.666 320.249 345.12 307.082 345.12 293.352V241.584C345.12 237.007 343.302 232.618 340.066 229.382C336.83 226.146 332.441 224.328 327.864 224.328Z" fill="white"/>
</svg>
