<svg width="1920" height="403" viewBox="0 0 1920 403" fill="none" xmlns="http://www.w3.org/2000/svg">
<g style="mix-blend-mode:multiply">
<path d="M2130.64 22.079C2110.72 25.8028 2090.27 31.0257 2068.87 37.6118C2033.07 48.6316 1997.27 59.6514 1961.47 62.1343C1928.63 64.4124 1891.19 53.3671 1847.03 40.3365C1791.33 23.9006 1724.92 4.30627 1643.51 4.30627C1585.37 4.30627 1535.51 17.6311 1487.49 30.4626C1414.96 49.8439 1346.64 68.0996 1260.39 37.6118C1117.05 -13.0605 1027.13 -11.6612 908.548 43.7553C789.963 99.1718 693.335 88.8207 614.459 63.6023C606.82 61.1598 599.258 58.6001 591.75 56.0588C561.812 45.925 532.735 36.0826 503.042 35.1224C461.423 33.5843 419.804 47.5588 378.185 61.5332C345.525 72.4992 312.865 83.4652 280.206 86.9352C238.9 91.3239 197.595 83.616 156.289 75.908C123.317 69.7551 90.3446 63.6023 57.3722 63.6023C23.0612 63.6023 -11.25 70.265 -45.5611 76.9277C-85.528 84.6887 -125.495 92.4497 -165.462 89.6803C-201.262 87.1995 -237.063 76.1896 -272.864 65.1798C-311.341 53.3467 -349.818 41.5136 -388.296 40.2694C-445.113 38.1696 -494.169 49.6562 -543.105 61.1148C-603.28 75.2051 -663.275 89.253 -737.299 77.945C-777.302 71.8339 -815.549 61.958 -853.287 52.2136C-943.308 28.9687 -1030.43 6.47181 -1131.6 37.6118C-1167.4 48.6316 -1203.2 59.6514 -1239 62.1343C-1278.97 64.9063 -1318.94 57.1383 -1358.9 49.3704C-1430.81 35.3944 -1488.69 34.8897 -1560.75 48.3497C-1602.06 56.0646 -1643.36 63.7795 -1684.67 59.3868C-1717.33 55.9137 -1749.99 44.9379 -1782.65 33.9621C-1872.4 3.79884 -1930.96 3.69854 -2018.92 36.033C-2027.02 39.0102 -2035.43 42.3391 -2044.02 45.7372C-2074.79 57.9206 -2107.82 70.9932 -2136.86 71.9331C-2357.28 71.9331 -2357.21 76.5993 -2354.08 299.441C-2353.65 329.542 -2353.17 363.624 -2353.17 402.212L2130.64 402.212V22.079Z" fill="#93DCEC"/>
</g>
</svg>
