<svg width="869" height="403" viewBox="0 0 869 403" fill="none" xmlns="http://www.w3.org/2000/svg">
<g style="mix-blend-mode:multiply">
<path d="M0.656363 22.079C20.5764 25.8028 41.0287 31.0257 62.4253 37.6118C98.2259 48.6316 134.027 59.6514 169.828 62.1343C202.674 64.4124 240.108 53.3671 284.27 40.3365C339.974 23.9006 406.382 4.30627 487.79 4.30627C545.927 4.30627 595.793 17.6311 643.813 30.4626C716.345 49.8439 784.664 68.0996 870.909 37.6118C1014.25 -13.0605 1104.17 -11.6612 1222.75 43.7553C1341.34 99.1718 1437.97 88.8207 1516.84 63.6023C1524.48 61.1598 1532.04 58.6001 1539.55 56.0588C1569.49 45.925 1598.57 36.0826 1628.26 35.1224C1669.88 33.5843 1711.5 47.5588 1753.12 61.5332C1785.78 72.4992 1818.43 83.4652 1851.09 86.9352C1892.4 91.3239 1933.71 83.616 1975.01 75.908C2007.98 69.7551 2040.96 63.6023 2073.93 63.6023C2108.24 63.6023 2142.55 70.265 2176.86 76.9277C2216.83 84.6887 2256.79 92.4497 2296.76 89.6803C2332.56 87.1995 2368.36 76.1896 2404.16 65.1798C2442.64 53.3467 2481.12 41.5136 2519.6 40.2694C2576.41 38.1696 2625.47 49.6562 2674.41 61.1148C2734.58 75.2051 2794.58 89.253 2868.6 77.945C2908.6 71.8339 2946.85 61.958 2984.59 52.2136C3074.61 28.9687 3161.73 6.47181 3262.9 37.6118C3298.7 48.6316 3334.5 59.6514 3370.3 62.1343C3410.27 64.9063 3450.24 57.1383 3490.2 49.3704C3562.11 35.3944 3619.99 34.8897 3692.05 48.3497C3733.36 56.0646 3774.66 63.7795 3815.97 59.3868C3848.63 55.9137 3881.29 44.9379 3913.95 33.9621C4003.7 3.79884 4062.26 3.69854 4150.22 36.033C4158.32 39.0102 4166.73 42.3391 4175.32 45.7372C4206.09 57.9206 4239.12 70.9932 4268.16 71.9331C4488.58 71.9331 4488.51 76.5993 4485.38 299.441C4484.95 329.542 4484.47 363.624 4484.47 402.212L0.656363 402.212V22.079Z" fill="#93DCEC"/>
</g>
</svg>
