<svg width="981" height="403" viewBox="0 0 981 403" fill="none" xmlns="http://www.w3.org/2000/svg">
<g style="mix-blend-mode:multiply">
<path d="M0.587516 22.079C20.5076 25.8028 40.9599 31.0257 62.3565 37.6118C98.1571 48.6316 133.958 59.6514 169.759 62.1343C202.605 64.4124 240.039 53.3671 284.201 40.3365C339.905 23.9006 406.313 4.30627 487.721 4.30627C545.858 4.30627 595.725 17.6311 643.745 30.4626C716.276 49.8439 784.595 68.0996 870.84 37.6118C1014.18 -13.0605 1104.1 -11.6612 1222.68 43.7553C1341.27 99.1718 1437.9 88.8207 1516.77 63.6023C1524.41 61.1598 1531.97 58.6001 1539.48 56.0588C1569.42 45.925 1598.5 36.0826 1628.19 35.1224C1669.81 33.5843 1711.43 47.5588 1753.05 61.5332C1785.71 72.4992 1818.37 83.4652 1851.02 86.9352C1892.33 91.3239 1933.64 83.616 1974.94 75.908C2007.91 69.7551 2040.89 63.6023 2073.86 63.6023C2108.17 63.6023 2142.48 70.265 2176.79 76.9277C2216.76 84.6887 2256.73 92.4497 2296.69 89.6803C2332.49 87.1995 2368.29 76.1896 2404.09 65.1798C2442.57 53.3467 2481.05 41.5136 2519.53 40.2694C2576.34 38.1696 2625.4 49.6562 2674.34 61.1148C2734.51 75.2051 2794.51 89.253 2868.53 77.945C2908.53 71.8339 2946.78 61.958 2984.52 52.2136C3074.54 28.9687 3161.66 6.47181 3262.83 37.6118C3298.63 48.6316 3334.43 59.6514 3370.23 62.1343C3410.2 64.9063 3450.17 57.1383 3490.13 49.3704C3562.04 35.3944 3619.92 34.8897 3691.98 48.3497C3733.29 56.0646 3774.6 63.7795 3815.9 59.3868C3848.56 55.9137 3881.22 44.9379 3913.88 33.9621C4003.63 3.79884 4062.19 3.69854 4150.15 36.033C4158.25 39.0102 4166.66 42.3391 4175.25 45.7372C4206.02 57.9206 4239.05 70.9932 4268.09 71.9331C4488.51 71.9331 4488.45 76.5993 4485.31 299.441C4484.88 329.542 4484.41 363.624 4484.41 402.212L0.587516 402.212V22.079Z" fill="#93DCEC"/>
</g>
</svg>
