<svg width="1756" height="403" viewBox="0 0 1756 403" fill="none" xmlns="http://www.w3.org/2000/svg">
<g style="mix-blend-mode:multiply">
<path d="M1755.34 22.079C1735.42 25.8028 1714.97 31.0257 1693.57 37.6118C1657.77 48.6316 1621.97 59.6514 1586.17 62.1343C1553.33 64.4124 1515.89 53.3671 1471.73 40.3365C1416.03 23.9006 1349.62 4.30627 1268.21 4.30627C1210.07 4.30627 1160.21 17.6311 1112.19 30.4626C1039.66 49.8439 971.336 68.0996 885.091 37.6118C741.748 -13.0605 651.832 -11.6612 533.248 43.7553C414.663 99.1718 318.035 88.8207 239.16 63.6023C231.52 61.1598 223.958 58.6001 216.45 56.0588C186.512 45.925 157.435 36.0826 127.742 35.1224C86.1234 33.5843 44.5039 47.5588 2.88474 61.5332C-29.7748 72.4992 -62.4344 83.4652 -95.0935 86.9352C-136.399 91.3239 -177.705 83.616 -219.011 75.908C-251.983 69.7551 -284.955 63.6023 -317.928 63.6023C-352.239 63.6023 -386.55 70.265 -420.861 76.9277C-460.828 84.6887 -500.795 92.4497 -540.762 89.6803C-576.562 87.1995 -612.363 76.1896 -648.163 65.1798C-686.641 53.3467 -725.118 41.5136 -763.596 40.2694C-820.413 38.1696 -869.469 49.6562 -918.405 61.1148C-978.58 75.2051 -1038.57 89.253 -1112.6 77.945C-1152.6 71.8339 -1190.85 61.958 -1228.59 52.2136C-1318.61 28.9687 -1405.73 6.47181 -1506.9 37.6118C-1542.7 48.6316 -1578.5 59.6514 -1614.3 62.1343C-1654.27 64.9063 -1694.24 57.1383 -1734.2 49.3704C-1806.11 35.3944 -1863.99 34.8897 -1936.05 48.3497C-1977.36 56.0646 -2018.66 63.7795 -2059.97 59.3868C-2092.63 55.9137 -2125.29 44.9379 -2157.95 33.9621C-2247.7 3.79884 -2306.26 3.69854 -2394.22 36.033C-2402.32 39.0102 -2410.73 42.3391 -2419.31 45.7372C-2450.09 57.9206 -2483.12 70.9932 -2512.15 71.9331C-2732.58 71.9331 -2732.51 76.5993 -2729.38 299.441C-2728.95 329.542 -2728.47 363.624 -2728.47 402.212L1755.34 402.212V22.079Z" fill="#93DCEC"/>
</g>
</svg>
