<svg width="60" height="60" viewBox="0 0 60 60" fill="none" xmlns="http://www.w3.org/2000/svg">
<path d="M30 55C26.5417 55 23.2917 54.3438 20.25 53.0312C17.2083 51.7188 14.5625 49.9375 12.3125 47.6875C10.0625 45.4375 8.28125 42.7917 6.96875 39.75C5.65625 36.7083 5 33.4583 5 30C5 26.5417 5.65625 23.2917 6.96875 20.25C8.28125 17.2083 10.0625 14.5625 12.3125 12.3125C14.5625 10.0625 17.2083 8.28125 20.25 6.96875C23.2917 5.65625 26.5417 5 30 5C33.4583 5 36.7083 5.65625 39.75 6.96875C42.7917 8.28125 45.4375 10.0625 47.6875 12.3125C49.9375 14.5625 51.7188 17.2083 53.0313 20.25C54.3438 23.2917 55 26.5417 55 30V33.3125C55 35.6458 54.1771 37.6146 52.5313 39.2188C50.8854 40.8229 48.875 41.625 46.5 41.625C45 41.625 43.5833 41.2604 42.25 40.5312C40.9167 39.8021 39.8958 38.7708 39.1875 37.4375C38.1042 38.8542 36.75 39.9062 35.125 40.5938C33.5 41.2812 31.7917 41.625 30 41.625C26.75 41.625 23.9896 40.5 21.7188 38.25C19.4479 36 18.3125 33.25 18.3125 30C18.3125 26.75 19.4479 23.9792 21.7188 21.6875C23.9896 19.3958 26.75 18.25 30 18.25C33.25 18.25 36.0104 19.3958 38.2813 21.6875C40.5521 23.9792 41.6875 26.75 41.6875 30V33.3125C41.6875 34.6042 42.1563 35.6875 43.0938 36.5625C44.0313 37.4375 45.1667 37.875 46.5 37.875C47.7917 37.875 48.9063 37.4375 49.8438 36.5625C50.7813 35.6875 51.25 34.6042 51.25 33.3125V30C51.25 24.0833 49.1875 19.0625 45.0625 14.9375C40.9375 10.8125 35.9167 8.75 30 8.75C24.0833 8.75 19.0625 10.8125 14.9375 14.9375C10.8125 19.0625 8.75 24.0833 8.75 30C8.75 35.9167 10.8125 40.9375 14.9375 45.0625C19.0625 49.1875 24.0833 51.25 30 51.25H43.375V55H30ZM30 37.875C32.2083 37.875 34.0833 37.1146 35.625 35.5938C37.1667 34.0729 37.9375 32.2083 37.9375 30C37.9375 27.75 37.1667 25.8542 35.625 24.3125C34.0833 22.7708 32.2083 22 30 22C27.7917 22 25.9167 22.7708 24.375 24.3125C22.8333 25.8542 22.0625 27.75 22.0625 30C22.0625 32.2083 22.8333 34.0729 24.375 35.5938C25.9167 37.1146 27.7917 37.875 30 37.875Z" fill="#566F6A"/>
</svg>
