<svg width="14" height="16" viewBox="0 0 14 16" fill="none" xmlns="http://www.w3.org/2000/svg">
<path d="M13.125 6.70372H7.875V0.957674C7.875 0.703683 7.78281 0.460095 7.61872 0.280496C7.45462 0.100898 7.23206 0 7 0C6.76794 0 6.54538 0.100898 6.38128 0.280496C6.21719 0.460095 6.125 0.703683 6.125 0.957674V6.70372H0.875C0.642936 6.70372 0.420376 6.80462 0.256282 6.98421C0.0921874 7.16381 0 7.4074 0 7.66139C0 7.91538 0.0921874 8.15897 0.256282 8.33857C0.420376 8.51817 0.642936 8.61907 0.875 8.61907H6.125V14.3651C6.125 14.6191 6.21719 14.8627 6.38128 15.0423C6.54538 15.2219 6.76794 15.3228 7 15.3228C7.23206 15.3228 7.45462 15.2219 7.61872 15.0423C7.78281 14.8627 7.875 14.6191 7.875 14.3651V8.61907H13.125C13.3571 8.61907 13.5796 8.51817 13.7437 8.33857C13.9078 8.15897 14 7.91538 14 7.66139C14 7.4074 13.9078 7.16381 13.7437 6.98421C13.5796 6.80462 13.3571 6.70372 13.125 6.70372Z" fill="#91C8E4"/>
</svg>
