<svg width="21" height="24" viewBox="0 0 21 24" fill="none" xmlns="http://www.w3.org/2000/svg">
<path d="M19.8333 7.02787L12.8334 0.891248C12.1917 0.317304 11.361 0 10.5 0C9.63912 0 8.80841 0.317304 8.16672 0.891248L1.16677 7.02787C0.796201 7.35929 0.50049 7.76585 0.299326 8.22048C0.0981609 8.67511 -0.00384129 9.16738 0.000110592 9.66452V19.8611C0.000110592 20.7894 0.368857 21.6796 1.02523 22.336C1.6816 22.9923 2.57183 23.3611 3.50009 23.3611H17.5C18.4282 23.3611 19.3185 22.9923 19.9748 22.336C20.6312 21.6796 21 20.7894 21 19.8611V9.65285C21.0023 9.15768 20.8995 8.66766 20.6983 8.21516C20.4972 7.76266 20.2024 7.35798 19.8333 7.02787ZM12.8334 21.0278H8.16672V15.1945C8.16672 14.8851 8.28964 14.5883 8.50843 14.3695C8.72722 14.1507 9.02396 14.0278 9.33338 14.0278H11.6667C11.9761 14.0278 12.2729 14.1507 12.4916 14.3695C12.7104 14.5883 12.8334 14.8851 12.8334 15.1945V21.0278ZM18.6666 19.8611C18.6666 20.1705 18.5437 20.4673 18.3249 20.6861C18.1061 20.9049 17.8094 21.0278 17.5 21.0278H15.1667V15.1945C15.1667 14.2662 14.7979 13.376 14.1416 12.7196C13.4852 12.0632 12.5949 11.6945 11.6667 11.6945H9.33338C8.40513 11.6945 7.51489 12.0632 6.85852 12.7196C6.20215 13.376 5.8334 14.2662 5.8334 15.1945V21.0278H3.50009C3.19067 21.0278 2.89392 20.9049 2.67513 20.6861C2.45634 20.4673 2.33343 20.1705 2.33343 19.8611V9.65285C2.33364 9.4872 2.36912 9.3235 2.43751 9.17263C2.50591 9.02176 2.60565 8.88719 2.73009 8.77786L9.73004 2.6529C9.94294 2.46586 10.2166 2.36271 10.5 2.36271C10.7834 2.36271 11.0571 2.46586 11.27 2.6529L18.27 8.77786C18.3944 8.88719 18.4942 9.02176 18.5626 9.17263C18.631 9.3235 18.6664 9.4872 18.6666 9.65285V19.8611Z" fill="white"/>
</svg>
