<svg width="32" height="32" viewBox="0 0 32 32" fill="none" xmlns="http://www.w3.org/2000/svg">
<circle cx="16" cy="16" r="16" fill="url(#paint0_linear_540_47)"/>
<path d="M14.1889 21.8823C14.0482 21.8825 13.9088 21.8549 13.7789 21.801C13.6489 21.7471 13.5308 21.6681 13.4315 21.5685L9.31808 17.4551C9.21768 17.3558 9.13789 17.2377 9.08331 17.1075C9.02872 16.9773 9.00041 16.8376 9 16.6964C8.9996 16.5553 9.0271 16.4154 9.08094 16.2849C9.13478 16.1544 9.21388 16.0358 9.31371 15.936C9.41353 15.8361 9.53211 15.757 9.66261 15.7032C9.79312 15.6493 9.93298 15.6218 10.0742 15.6222C10.2153 15.6226 10.355 15.6509 10.4852 15.7055C10.6154 15.7601 10.7336 15.8399 10.8328 15.9403L14.1889 19.2963L22.1731 11.3121C22.3741 11.112 22.6463 10.9997 22.93 11C23.2137 11.0003 23.4857 11.1131 23.6863 11.3138C23.8869 11.5144 23.9997 11.7864 24 12.0701C24.0003 12.3538 23.888 12.626 23.6878 12.827L14.9463 21.5686C14.8469 21.6682 14.7289 21.7472 14.5989 21.801C14.4689 21.8549 14.3296 21.8825 14.1889 21.8823Z" fill="white"/>
<defs>
<linearGradient id="paint0_linear_540_47" x1="16" y1="32" x2="16" y2="-2.25753e-06" gradientUnits="userSpaceOnUse">
<stop stop-color="#30E3CA"/>
<stop offset="1" stop-color="#30E3CA" stop-opacity="0.6"/>
</linearGradient>
</defs>
</svg>
