<svg width="24" height="23" viewBox="0 0 24 23" fill="none" xmlns="http://www.w3.org/2000/svg">
<path d="M12.4551 4.6C12.304 4.59996 12.1545 4.62968 12.0149 4.68746C11.8754 4.74524 11.7486 4.82994 11.6418 4.93674C11.535 5.04353 11.4503 5.17032 11.3925 5.30987C11.3348 5.44941 11.305 5.59897 11.3051 5.75V10.7914L8.50982 12.198C8.37495 12.2658 8.25476 12.3595 8.15612 12.4738C8.05747 12.5881 7.98231 12.7207 7.93491 12.8641C7.88751 13.0074 7.86881 13.1587 7.87987 13.3092C7.89094 13.4598 7.93155 13.6067 7.99939 13.7416C8.06723 13.8765 8.16097 13.9967 8.27526 14.0953C8.38955 14.1939 8.52215 14.2691 8.66549 14.3165C8.80883 14.3639 8.9601 14.3826 9.11067 14.3715C9.26123 14.3605 9.40814 14.3199 9.54302 14.252L12.9717 12.527C13.1621 12.4314 13.3223 12.2848 13.4341 12.1034C13.546 11.922 13.6052 11.7131 13.6051 11.5V5.75C13.6051 5.59897 13.5754 5.44941 13.5176 5.30987C13.4598 5.17032 13.3751 5.04353 13.2683 4.93674C13.1615 4.82994 13.0348 4.74524 12.8952 4.68746C12.7557 4.62968 12.6061 4.59996 12.4551 4.6ZM12.4551 0C10.1806 0 7.95719 0.674463 6.06602 1.9381C4.17486 3.20174 2.70088 4.99779 1.83047 7.09914C0.960061 9.20049 0.732323 11.5128 1.17605 13.7435C1.61978 15.9743 2.71505 18.0234 4.32335 19.6317C5.93166 21.24 7.98076 22.3353 10.2115 22.779C12.4423 23.2228 14.7546 22.995 16.8559 22.1246C18.9573 21.2542 20.7533 19.7802 22.017 17.8891C23.2806 15.9979 23.9551 13.7745 23.9551 11.5C23.9516 8.45108 22.7389 5.52804 20.583 3.37212C18.427 1.21621 15.504 0.00348807 12.4551 0ZM12.4551 20.7C10.6355 20.7 8.85677 20.1604 7.34384 19.1495C5.8309 18.1386 4.65172 16.7018 3.95539 15.0207C3.25907 13.3396 3.07687 11.4898 3.43186 9.70517C3.78684 7.92054 4.66306 6.28126 5.9497 4.99462C7.23634 3.70797 8.87563 2.83176 10.6603 2.47678C12.4449 2.12179 14.2947 2.30398 15.9758 3.00031C17.6568 3.69663 19.0937 4.87582 20.1046 6.38875C21.1155 7.90168 21.6551 9.68041 21.6551 11.5C21.6523 13.9391 20.6821 16.2776 18.9574 18.0023C17.2326 19.727 14.8942 20.6972 12.4551 20.7Z" fill="#E4F9F5"/>
</svg>
