<svg width="87" height="87" viewBox="0 0 87 87" fill="none" xmlns="http://www.w3.org/2000/svg">
<path d="M50.6895 43.14L84.6623 9.16725C86.8193 7.01025 86.8193 3.77475 84.6623 1.61775C82.5053 -0.53925 79.2697 -0.53925 77.1127 1.61775L43.14 35.5905L9.16725 1.61775C7.01025 -0.53925 3.77475 -0.53925 1.61775 1.61775C-0.539249 3.77475 -0.539249 7.01025 1.61775 9.16725L35.5905 43.14L1.61775 77.1127C0.539251 78.1912 0 79.2697 0 80.8875C0 84.123 2.157 86.28 5.3925 86.28C7.01025 86.28 8.08875 85.7408 9.16725 84.6623L43.14 50.6895L77.1127 84.6623C78.1912 85.7408 79.2697 86.28 80.8875 86.28C82.5052 86.28 83.5838 85.7408 84.6623 84.6623C86.8193 82.5053 86.8193 79.2697 84.6623 77.1127L50.6895 43.14Z" fill="black"/>
</svg>
