<svg width="60" height="42" viewBox="0 0 60 42" fill="none" xmlns="http://www.w3.org/2000/svg">
<path d="M59.7186 13.5946C59.5401 13.1341 59.2724 12.7134 58.9309 12.3567L47.6774 1.10319C47.3276 0.753434 46.9124 0.475995 46.4554 0.28671C45.9984 0.097425 45.5087 0 45.014 0C44.0151 0 43.0571 0.396829 42.3507 1.10319C42.0009 1.45294 41.7235 1.86816 41.5342 2.32513C41.3449 2.78211 41.2475 3.27189 41.2475 3.76652C41.2475 4.76546 41.6443 5.72349 42.3507 6.42985L47.2272 11.2689H11.2535C8.26889 11.2689 5.40652 12.4545 3.29608 14.5649C1.18563 16.6754 0 19.5377 0 22.5224V37.527C0 38.5219 0.395212 39.476 1.09869 40.1795C1.80217 40.883 2.7563 41.2782 3.75117 41.2782C4.74604 41.2782 5.70017 40.883 6.40365 40.1795C7.10713 39.476 7.50234 38.5219 7.50234 37.527V22.5224C7.50234 21.5275 7.89755 20.5734 8.60103 19.8699C9.30451 19.1664 10.2586 18.7712 11.2535 18.7712H47.2272L42.3507 23.6102C41.9991 23.9589 41.72 24.3738 41.5296 24.8309C41.3392 25.288 41.2411 25.7783 41.2411 26.2735C41.2411 26.7687 41.3392 27.259 41.5296 27.7161C41.72 28.1733 41.9991 28.5881 42.3507 28.9369C42.6994 29.2885 43.1143 29.5675 43.5714 29.758C44.0285 29.9484 44.5188 30.0464 45.014 30.0464C45.5092 30.0464 45.9995 29.9484 46.4566 29.758C46.9138 29.5675 47.3286 29.2885 47.6774 28.9369L58.9309 17.6834C59.2724 17.3266 59.5401 16.9059 59.7186 16.4455C60.0938 15.5322 60.0938 14.5078 59.7186 13.5946Z" fill="#566F6A"/>
</svg>
