<svg width="80" height="80" viewBox="0 0 80 80" fill="none" xmlns="http://www.w3.org/2000/svg">
<path d="M71.9059 24.72V4C71.9059 2.93913 71.4845 1.92172 70.7343 1.17157C69.9842 0.421427 68.9668 0 67.9059 0C66.845 0 65.8276 0.421427 65.0775 1.17157C64.3273 1.92172 63.9059 2.93913 63.9059 4V24.72C61.5893 25.5608 59.5877 27.0945 58.1733 29.1127C56.7588 31.1308 56 33.5355 56 36C56 38.4645 56.7588 40.8692 58.1733 42.8873C59.5877 44.9055 61.5893 46.4392 63.9059 47.28V76C63.9059 77.0609 64.3273 78.0783 65.0775 78.8284C65.8276 79.5786 66.845 80 67.9059 80C68.9668 80 69.9842 79.5786 70.7343 78.8284C71.4845 78.0783 71.9059 77.0609 71.9059 76V47.28C74.2225 46.4392 76.2241 44.9055 77.6385 42.8873C79.053 40.8692 79.8118 38.4645 79.8118 36C79.8118 33.5355 79.053 31.1308 77.6385 29.1127C76.2241 27.0945 74.2225 25.5608 71.9059 24.72ZM67.9059 40C67.1148 40 66.3414 39.7654 65.6836 39.3259C65.0258 38.8864 64.5131 38.2616 64.2104 37.5307C63.9076 36.7998 63.8284 35.9956 63.9828 35.2196C64.1371 34.4437 64.5181 33.731 65.0775 33.1716C65.6369 32.6122 66.3496 32.2312 67.1255 32.0769C67.9015 31.9225 68.7057 32.0017 69.4366 32.3045C70.1675 32.6072 70.7923 33.1199 71.2318 33.7777C71.6713 34.4355 71.9059 35.2089 71.9059 36C71.9059 37.0609 71.4845 38.0783 70.7343 38.8284C69.9842 39.5786 68.9668 40 67.9059 40ZM43.9059 48.72V4C43.9059 2.93913 43.4845 1.92172 42.7343 1.17157C41.9842 0.421427 40.9668 0 39.9059 0C38.845 0 37.8276 0.421427 37.0775 1.17157C36.3273 1.92172 35.9059 2.93913 35.9059 4V48.72C33.5893 49.5608 31.5877 51.0945 30.1733 53.1127C28.7588 55.1308 28 57.5355 28 60C28 62.4645 28.7588 64.8692 30.1733 66.8873C31.5877 68.9055 33.5893 70.4392 35.9059 71.28V76C35.9059 77.0609 36.3273 78.0783 37.0775 78.8284C37.8276 79.5786 38.845 80 39.9059 80C40.9668 80 41.9842 79.5786 42.7343 78.8284C43.4845 78.0783 43.9059 77.0609 43.9059 76V71.28C46.2225 70.4392 48.2241 68.9055 49.6385 66.8873C51.053 64.8692 51.8118 62.4645 51.8118 60C51.8118 57.5355 51.053 55.1308 49.6385 53.1127C48.2241 51.0945 46.2225 49.5608 43.9059 48.72ZM39.9059 64C39.1148 64 38.3414 63.7654 37.6836 63.3259C37.0258 62.8864 36.5131 62.2616 36.2104 61.5307C35.9076 60.7998 35.8284 59.9956 35.9828 59.2196C36.1371 58.4437 36.5181 57.731 37.0775 57.1716C37.6369 56.6122 38.3496 56.2312 39.1255 56.0769C39.9015 55.9225 40.7057 56.0017 41.4366 56.3045C42.1675 56.6072 42.7923 57.1199 43.2318 57.7777C43.6713 58.4355 43.9059 59.2089 43.9059 60C43.9059 61.0609 43.4845 62.0783 42.7343 62.8284C41.9842 63.5786 40.9668 64 39.9059 64ZM15.9059 16.72V4C15.9059 2.93913 15.4845 1.92172 14.7343 1.17157C13.9842 0.421427 12.9668 0 11.9059 0C10.845 0 9.82762 0.421427 9.07748 1.17157C8.32733 1.92172 7.90591 2.93913 7.90591 4V16.72C5.5893 17.5608 3.58775 19.0945 2.17327 21.1127C0.758798 23.1308 0 25.5355 0 28C0 30.4645 0.758798 32.8692 2.17327 34.8873C3.58775 36.9055 5.5893 38.4392 7.90591 39.28V76C7.90591 77.0609 8.32733 78.0783 9.07748 78.8284C9.82762 79.5786 10.845 80 11.9059 80C12.9668 80 13.9842 79.5786 14.7343 78.8284C15.4845 78.0783 15.9059 77.0609 15.9059 76V39.28C18.2225 38.4392 20.2241 36.9055 21.6385 34.8873C23.053 32.8692 23.8118 30.4645 23.8118 28C23.8118 25.5355 23.053 23.1308 21.6385 21.1127C20.2241 19.0945 18.2225 17.5608 15.9059 16.72ZM11.9059 32C11.1148 32 10.3414 31.7654 9.68363 31.3259C9.02583 30.8864 8.51314 30.2616 8.21039 29.5307C7.90764 28.7998 7.82842 27.9956 7.98276 27.2196C8.13711 26.4437 8.51807 25.731 9.07748 25.1716C9.63689 24.6122 10.3496 24.2312 11.1255 24.0769C11.9015 23.9225 12.7057 24.0017 13.4366 24.3045C14.1675 24.6072 14.7923 25.1199 15.2318 25.7777C15.6713 26.4355 15.9059 27.2089 15.9059 28C15.9059 29.0609 15.4845 30.0783 14.7343 30.8284C13.9842 31.5786 12.9668 32 11.9059 32Z" fill="#566F6A"/>
</svg>
