<svg width="40" height="40" viewBox="0 0 40 40" fill="none" xmlns="http://www.w3.org/2000/svg">
<path d="M5.922 32.0954H14.2918C14.5516 32.0969 14.8091 32.0472 15.0496 31.9489C15.2901 31.8507 15.5088 31.7059 15.6933 31.523L29.3534 17.8432L34.9595 12.3554C35.1446 12.1719 35.2914 11.9536 35.3916 11.7131C35.4919 11.4725 35.5434 11.2145 35.5434 10.9539C35.5434 10.6933 35.4919 10.4353 35.3916 10.1948C35.2914 9.9542 35.1446 9.73588 34.9595 9.55237L26.5898 1.08391C26.4063 0.898886 26.1879 0.752032 25.9474 0.651814C25.7068 0.551597 25.4488 0.5 25.1882 0.5C24.9276 0.5 24.6696 0.551597 24.4291 0.651814C24.1885 0.752032 23.9702 0.898886 23.7867 1.08391L18.22 6.67033L4.52046 20.3501C4.33751 20.5346 4.19276 20.7533 4.09453 20.9939C3.99629 21.2344 3.9465 21.4919 3.948 21.7517V30.1214C3.948 30.645 4.15597 31.1471 4.52617 31.5173C4.89637 31.8875 5.39846 32.0954 5.922 32.0954ZM25.1882 5.26879L30.7747 10.8552L27.9716 13.6583L22.3852 8.07187L25.1882 5.26879ZM7.896 22.561L19.6018 10.8552L25.1882 16.4416L13.4824 28.1474H7.896V22.561ZM37.506 36.0434H1.974C1.45046 36.0434 0.948368 36.2514 0.578171 36.6216C0.207974 36.9918 0 37.4939 0 38.0174C0 38.541 0.207974 39.0431 0.578171 39.4133C0.948368 39.7835 1.45046 39.9914 1.974 39.9914H37.506C38.0295 39.9914 38.5316 39.7835 38.9018 39.4133C39.272 39.0431 39.48 38.541 39.48 38.0174C39.48 37.4939 39.272 36.9918 38.9018 36.6216C38.5316 36.2514 38.0295 36.0434 37.506 36.0434Z" fill="url(#paint0_linear_1084_10)"/>
<defs>
<linearGradient id="paint0_linear_1084_10" x1="19.74" y1="0.5" x2="19.74" y2="39.9914" gradientUnits="userSpaceOnUse">
<stop stop-color="#30E3CA" stop-opacity="0.6"/>
<stop offset="1" stop-color="#30E3CA"/>
</linearGradient>
</defs>
</svg>
