<svg width="87" height="87" viewBox="0 0 87 87" fill="none" xmlns="http://www.w3.org/2000/svg">
<path d="M12.942 69.049H31.2334C31.8011 69.0523 32.3639 68.9435 32.8895 68.7288C33.4151 68.5141 33.8932 68.1978 34.2963 67.798L64.1492 37.9019L76.4009 25.909C76.8053 25.508 77.1262 25.0308 77.3452 24.5051C77.5643 23.9794 77.677 23.4156 77.677 22.8461C77.677 22.2766 77.5643 21.7127 77.3452 21.187C77.1262 20.6613 76.8053 20.1842 76.4009 19.7831L58.1096 1.27607C57.7085 0.871729 57.2314 0.550793 56.7057 0.331776C56.18 0.11276 55.6161 0 55.0466 0C54.4771 0 53.9133 0.11276 53.3876 0.331776C52.8619 0.550793 52.3847 0.871729 51.9837 1.27607L39.8182 13.4847L9.87906 43.3807C9.47923 43.7838 9.16291 44.2619 8.94822 44.7875C8.73354 45.3131 8.62472 45.8759 8.628 46.4437V64.735C8.628 65.8792 9.08251 66.9764 9.89154 67.7855C10.7006 68.5945 11.7979 69.049 12.942 69.049ZM55.0466 10.4218L67.2553 22.6304L61.1294 28.7563L48.9208 16.5476L55.0466 10.4218ZM17.256 48.2124L42.838 22.6304L55.0466 34.839L29.4646 60.421H17.256V48.2124ZM81.966 77.677H4.314C3.16986 77.677 2.07257 78.1315 1.26354 78.9406C0.454509 79.7496 0 80.8469 0 81.991C0 83.1352 0.454509 84.2324 1.26354 85.0415C2.07257 85.8505 3.16986 86.305 4.314 86.305H81.966C83.1101 86.305 84.2074 85.8505 85.0165 85.0415C85.8255 84.2324 86.28 83.1352 86.28 81.991C86.28 80.8469 85.8255 79.7496 85.0165 78.9406C84.2074 78.1315 83.1101 77.677 81.966 77.677Z" fill="white"/>
</svg>
