<svg width="41" height="41" viewBox="0 0 41 41" fill="none" xmlns="http://www.w3.org/2000/svg">
<path d="M6.012 32.0756H14.509C14.7727 32.0771 15.0341 32.0266 15.2783 31.9269C15.5225 31.8271 15.7445 31.6802 15.9318 31.4945L29.7995 17.6067L35.4908 12.0356C35.6787 11.8493 35.8278 11.6277 35.9295 11.3835C36.0312 11.1393 36.0836 10.8773 36.0836 10.6128C36.0836 10.3482 36.0312 10.0863 35.9295 9.84209C35.8278 9.59788 35.6787 9.37624 35.4908 9.18994L26.9939 0.59278C26.8076 0.404948 26.5859 0.255862 26.3417 0.154121C26.0975 0.052381 25.8356 0 25.571 0C25.3065 0 25.0446 0.052381 24.8004 0.154121C24.5561 0.255862 24.3345 0.404948 24.1482 0.59278L18.4969 6.2641L4.58916 20.1518C4.40343 20.3391 4.25648 20.5612 4.15675 20.8053C4.05703 21.0495 4.00648 21.3109 4.008 21.5747V30.0716C4.008 30.6031 4.21914 31.1128 4.59496 31.4887C4.97078 31.8645 5.48051 32.0756 6.012 32.0756ZM25.571 4.84126L31.2424 10.5126L28.3967 13.3583L22.7254 7.68694L25.571 4.84126ZM8.016 22.3963L19.8997 10.5126L25.571 16.1839L13.6873 28.0676H8.016V22.3963ZM38.076 36.0836H2.004C1.47251 36.0836 0.962781 36.2948 0.586958 36.6706C0.211135 37.0464 0 37.5561 0 38.0876C0 38.6191 0.211135 39.1288 0.586958 39.5047C0.962781 39.8805 1.47251 40.0916 2.004 40.0916H38.076C38.6075 40.0916 39.1172 39.8805 39.493 39.5047C39.8689 39.1288 40.08 38.6191 40.08 38.0876C40.08 37.5561 39.8689 37.0464 39.493 36.6706C39.1172 36.2948 38.6075 36.0836 38.076 36.0836Z" fill="#566F6A"/>
</svg>
