<svg width="44" height="55" viewBox="0 0 44 55" fill="none" xmlns="http://www.w3.org/2000/svg">
<path d="M42.9191 17.8674C42.7174 17.4037 42.3899 17.0058 41.9737 16.7188C41.5575 16.4317 41.0691 16.267 40.5641 16.2432H28.1663L31.6041 3.41233C31.7136 3.01082 31.7291 2.58948 31.6492 2.18104C31.5694 1.77259 31.3965 1.38805 31.1439 1.05729C30.8918 0.729714 30.5679 0.464244 30.1972 0.281245C29.8265 0.0982462 29.4189 0.00258123 29.0055 0.00158757H10.0569C9.44577 -0.0193458 8.84556 0.167252 8.35402 0.530989C7.86249 0.894726 7.50858 1.41417 7.34996 2.00472L0.0953627 29.0741C-0.0141271 29.4756 -0.0295668 29.897 0.0502439 30.3054C0.130055 30.7138 0.302965 31.0984 0.555541 31.4291C0.810495 31.7604 1.13869 32.028 1.5144 32.2112C1.89011 32.3943 2.30313 32.488 2.72109 32.4848H13.1969L8.29738 50.7296C8.13686 51.3179 8.17969 51.9432 8.41893 52.5042C8.65818 53.0651 9.07983 53.5288 9.61556 53.8202C10.1513 54.1115 10.7697 54.2135 11.3706 54.1094C11.9715 54.0054 12.5196 53.7016 12.9263 53.2471L42.4319 20.7638C42.7832 20.3791 43.0161 19.9012 43.1025 19.3874C43.1889 18.8737 43.1253 18.3459 42.9191 17.8674ZM16.4182 41.3636L19.3146 30.5359C19.4241 30.1343 19.4396 29.713 19.3597 29.3046C19.2799 28.8961 19.107 28.5116 18.8544 28.1808C18.6023 27.8532 18.2784 27.5878 17.9077 27.4048C17.537 27.2218 17.1294 27.1261 16.716 27.1251H6.32132L12.1142 5.41546H25.4594L22.0216 18.2464C21.9112 18.6553 21.8983 19.0843 21.9839 19.4991C22.0696 19.9139 22.2514 20.3028 22.5147 20.6346C22.7779 20.9663 23.1154 21.2317 23.4999 21.4092C23.8844 21.5868 24.3052 21.6717 24.7285 21.6571H34.3923L16.4182 41.3636Z" fill="#566F6A"/>
</svg>
