<svg width="23" height="22" viewBox="0 0 23 22" fill="none" xmlns="http://www.w3.org/2000/svg">
<path d="M11.5 20.1667C10.1743 20.1667 8.92843 19.926 7.76246 19.4448C6.59649 18.9635 5.58225 18.3104 4.71975 17.4854C3.85725 16.6604 3.17444 15.6903 2.67131 14.575C2.16819 13.4597 1.91663 12.2681 1.91663 11C1.91663 9.73194 2.16819 8.54027 2.67131 7.42499C3.17444 6.30972 3.85725 5.33958 4.71975 4.51458C5.58225 3.68958 6.59649 3.03645 7.76246 2.5552C8.92843 2.07395 10.1743 1.83333 11.5 1.83333C12.8257 1.83333 14.0715 2.07395 15.2375 2.5552C16.4034 3.03645 17.4177 3.68958 18.2802 4.51458C19.1427 5.33958 19.8255 6.30972 20.3286 7.42499C20.8317 8.54027 21.0833 9.73194 21.0833 11V12.2146C21.0833 13.0701 20.7678 13.792 20.1369 14.3802C19.506 14.9684 18.7354 15.2625 17.825 15.2625C17.25 15.2625 16.7069 15.1288 16.1958 14.8615C15.6847 14.5941 15.2934 14.216 15.0218 13.7271C14.6066 14.2465 14.0875 14.6323 13.4645 14.8844C12.8416 15.1365 12.1868 15.2625 11.5 15.2625C10.2541 15.2625 9.19597 14.85 8.32548 14.025C7.45499 13.2 7.01975 12.1917 7.01975 11C7.01975 9.80833 7.45499 8.79236 8.32548 7.95208C9.19597 7.1118 10.2541 6.69166 11.5 6.69166C12.7458 6.69166 13.804 7.1118 14.6744 7.95208C15.5449 8.79236 15.9802 9.80833 15.9802 11V12.2146C15.9802 12.6882 16.1599 13.0854 16.5192 13.4062C16.8786 13.7271 17.3138 13.8875 17.825 13.8875C18.3201 13.8875 18.7474 13.7271 19.1067 13.4062C19.4661 13.0854 19.6458 12.6882 19.6458 12.2146V11C19.6458 8.83055 18.8552 6.98958 17.2739 5.47708C15.6927 3.96458 13.768 3.20833 11.5 3.20833C9.2319 3.20833 7.30725 3.96458 5.726 5.47708C4.14475 6.98958 3.35413 8.83055 3.35413 11C3.35413 13.1694 4.14475 15.0104 5.726 16.5229C7.30725 18.0354 9.2319 18.7917 11.5 18.7917H16.627V20.1667H11.5ZM11.5 13.8875C12.3465 13.8875 13.0652 13.6087 13.6562 13.051C14.2472 12.4934 14.5427 11.8097 14.5427 11C14.5427 10.175 14.2472 9.47986 13.6562 8.91458C13.0652 8.3493 12.3465 8.06666 11.5 8.06666C10.6534 8.06666 9.93468 8.3493 9.34371 8.91458C8.75274 9.47986 8.45725 10.175 8.45725 11C8.45725 11.8097 8.75274 12.4934 9.34371 13.051C9.93468 13.6087 10.6534 13.8875 11.5 13.8875Z" fill="#AAAAAA"/>
</svg>
