<svg width="60" height="61" viewBox="0 0 60 61" fill="none" xmlns="http://www.w3.org/2000/svg">
<path d="M57.4735 0.569258C55.326 0.199348 53.1513 0.00894222 50.9722 1.30334e-05C43.5371 -0.00608233 36.2572 2.12591 30 6.14186C23.7268 2.17864 16.4479 0.0989742 9.02783 0.149814C6.84866 0.158743 4.67402 0.349149 2.52645 0.719059C1.82301 0.840333 1.18597 1.20878 0.730076 1.75806C0.274178 2.30733 0.0293746 3.00133 0.039752 3.71508V39.6674C0.0333354 40.1076 0.124019 40.5438 0.30535 40.945C0.48668 41.3462 0.754202 41.7025 1.08888 41.9885C1.42356 42.2746 1.81717 42.4834 2.2417 42.6C2.66623 42.7167 3.11125 42.7383 3.5451 42.6634C7.83846 41.92 12.2372 42.0434 16.4821 43.0262C20.7271 44.0089 24.7325 45.8313 28.2623 48.3858L28.6218 48.5955H28.9514C29.2837 48.734 29.64 48.8053 30 48.8053C30.36 48.8053 30.7163 48.734 31.0486 48.5955H31.3782L31.7377 48.3858C35.2429 45.7742 39.2368 43.8928 43.4826 42.8532C47.7283 41.8136 52.1396 41.637 56.4549 42.3338C56.8887 42.4087 57.3338 42.3871 57.7583 42.2704C58.1828 42.1538 58.5764 41.945 58.9111 41.659C59.2458 41.3729 59.5133 41.0166 59.6946 40.6154C59.876 40.2143 59.9667 39.778 59.9602 39.3378V3.38552C59.9291 2.70289 59.6655 2.05142 59.2132 1.53918C58.7609 1.02695 58.1471 0.684715 57.4735 0.569258ZM27.004 40.3864C21.461 37.4704 15.2911 35.9484 9.02783 35.9523C8.03914 35.9523 7.05045 35.9523 6.0318 35.9523V5.99206C7.02965 5.93455 8.02998 5.93455 9.02783 5.99206C15.4195 5.985 21.6717 7.86066 27.004 11.3849V40.3864ZM53.9682 36.0721C52.9495 36.0721 51.9609 36.0721 50.9722 36.0721C44.7089 36.0683 38.539 37.5902 32.996 40.5063V11.3849C38.3283 7.86066 44.5805 5.985 50.9722 5.99206C51.97 5.93455 52.9704 5.93455 53.9682 5.99206V36.0721ZM57.4735 48.5057C55.326 48.1357 53.1513 47.9453 50.9722 47.9364C43.5371 47.9303 36.2572 50.0623 30 54.0783C23.7428 50.0623 16.4629 47.9303 9.02783 47.9364C6.84866 47.9453 4.67402 48.1357 2.52645 48.5057C2.13645 48.5675 1.76253 48.7059 1.4262 48.9128C1.08987 49.1197 0.79775 49.3911 0.566653 49.7113C0.335556 50.0315 0.170035 50.3942 0.0796104 50.7786C-0.0108147 51.163 -0.0243604 51.5614 0.039752 51.9511C0.192006 52.7291 0.646418 53.4151 1.30345 53.8587C1.96047 54.3023 2.76655 54.4675 3.5451 54.3179C7.83846 53.5746 12.2372 53.6979 16.4821 54.6807C20.7271 55.6635 24.7325 57.4858 28.2623 60.0403C28.7697 60.4016 29.3771 60.5958 30 60.5958C30.6229 60.5958 31.2303 60.4016 31.7377 60.0403C35.2675 57.4858 39.2729 55.6635 43.5179 54.6807C47.7628 53.6979 52.1615 53.5746 56.4549 54.3179C57.2334 54.4675 58.0395 54.3023 58.6966 53.8587C59.3536 53.4151 59.808 52.7291 59.9602 51.9511C60.0244 51.5614 60.0108 51.163 59.9204 50.7786C59.83 50.3942 59.6644 50.0315 59.4333 49.7113C59.2022 49.3911 58.9101 49.1197 58.5738 48.9128C58.2375 48.7059 57.8635 48.5675 57.4735 48.5057Z" fill="#E0E0E0"/>
</svg>
