<svg width="50" height="50" viewBox="0 0 50 50" fill="none" xmlns="http://www.w3.org/2000/svg">
<path d="M47.8946 0.469717C46.105 0.16449 44.2928 0.00737858 42.4768 1.07544e-05C36.2809 -0.00501878 30.2143 1.75418 25 5.0679C19.7723 1.79768 13.7066 0.0816676 7.52319 0.123618C5.70721 0.130985 3.89501 0.288097 2.10538 0.593324C1.51917 0.693393 0.988311 0.997417 0.608396 1.45065C0.228482 1.90387 0.0244788 2.47652 0.0331266 3.06546V32.7311C0.0277795 33.0944 0.103349 33.4543 0.254458 33.7854C0.405567 34.1164 0.628502 34.4104 0.9074 34.6464C1.1863 34.8825 1.5143 35.0547 1.86808 35.151C2.22186 35.2472 2.59271 35.2651 2.95425 35.2033C6.53205 34.5899 10.1976 34.6917 13.7351 35.5026C17.2726 36.3135 20.6104 37.8172 23.5519 39.9251L23.8515 40.0981H24.1262C24.403 40.2124 24.7 40.2712 25 40.2712C25.3 40.2712 25.597 40.2124 25.8738 40.0981H26.1485L26.4481 39.9251C29.3691 37.7701 32.6973 36.2177 36.2355 35.3599C39.7736 34.5021 43.4497 34.3564 47.0457 34.9314C47.4073 34.9932 47.7781 34.9753 48.1319 34.879C48.4857 34.7828 48.8137 34.6105 49.0926 34.3745C49.3715 34.1385 49.5944 33.8445 49.7455 33.5134C49.8966 33.1824 49.9722 32.8225 49.9669 32.4592V2.79353C49.9409 2.23026 49.7212 1.69271 49.3443 1.27004C48.9674 0.847374 48.4559 0.564986 47.8946 0.469717ZM22.5033 33.3245C17.8841 30.9183 12.7426 29.6625 7.52319 29.6657C6.69928 29.6657 5.87537 29.6657 5.0265 29.6657V4.94429C5.85804 4.89684 6.69165 4.89684 7.52319 4.94429C12.8496 4.93846 18.0597 6.48614 22.5033 9.39415V33.3245ZM44.9735 29.7646C44.1246 29.7646 43.3007 29.7646 42.4768 29.7646C37.2574 29.7614 32.1158 31.0172 27.4967 33.4234V9.39415C31.9403 6.48614 37.1504 4.93846 42.4768 4.94429C43.3083 4.89684 44.142 4.89684 44.9735 4.94429V29.7646ZM47.8946 40.024C46.105 39.7187 44.2928 39.5616 42.4768 39.5543C36.2809 39.5492 30.2143 41.3084 25 44.6221C19.7857 41.3084 13.7191 39.5492 7.52319 39.5543C5.70721 39.5616 3.89501 39.7187 2.10538 40.024C1.78038 40.075 1.46878 40.1892 1.1885 40.3599C0.908221 40.5307 0.664791 40.7546 0.472211 41.0188C0.27963 41.283 0.141696 41.5823 0.066342 41.8995C-0.00901221 42.2166 -0.0203003 42.5454 0.0331266 42.8669C0.160005 43.5089 0.538682 44.0749 1.08621 44.441C1.63373 44.807 2.30546 44.9433 2.95425 44.8199C6.53205 44.2065 10.1976 44.3083 13.7351 45.1192C17.2726 45.9302 20.6104 47.4338 23.5519 49.5417C23.9748 49.8398 24.4809 50 25 50C25.5191 50 26.0252 49.8398 26.4481 49.5417C29.3896 47.4338 32.7274 45.9302 36.2649 45.1192C39.8024 44.3083 43.4679 44.2065 47.0457 44.8199C47.6945 44.9433 48.3663 44.807 48.9138 44.441C49.4613 44.0749 49.84 43.5089 49.9669 42.8669C50.0203 42.5454 50.009 42.2166 49.9337 41.8995C49.8583 41.5823 49.7204 41.283 49.5278 41.0188C49.3352 40.7546 49.0918 40.5307 48.8115 40.3599C48.5312 40.1892 48.2196 40.075 47.8946 40.024Z" fill="white"/>
</svg>
