<svg width="60" height="60" viewBox="0 0 60 60" fill="none" xmlns="http://www.w3.org/2000/svg">
<path d="M26.819 12.2462C27.8708 12.085 28.9334 12.0048 29.9974 12.0063C39.5327 12.0063 48.4983 18.8729 53.7157 29.9974C52.9178 31.6904 52.0165 33.3327 51.017 34.915C50.6997 35.4062 50.533 35.9794 50.5373 36.5642C50.544 37.2186 50.7645 37.8528 51.1654 38.3701C51.5662 38.8874 52.1252 39.2594 52.7572 39.4293C53.3892 39.5992 54.0594 39.5577 54.6656 39.3111C55.2718 39.0644 55.7806 38.6263 56.1145 38.0635C57.5116 35.8683 58.7251 33.5616 59.7427 31.1669C59.9036 30.7927 59.9866 30.3897 59.9866 29.9824C59.9866 29.5752 59.9036 29.1722 59.7427 28.798C53.6857 14.735 42.2914 6.0093 29.9974 6.0093C28.5901 6.00221 27.1851 6.12265 25.7995 6.36913C25.4057 6.43607 25.029 6.57991 24.6908 6.79245C24.3527 7.00498 24.0597 7.28205 23.8285 7.60782C23.5974 7.93359 23.4328 8.30169 23.3439 8.69111C23.2551 9.08052 23.2438 9.48362 23.3107 9.87739C23.3777 10.2712 23.5215 10.6479 23.7341 10.9861C23.9466 11.3243 24.2237 11.6173 24.5494 11.8484C24.8752 12.0795 25.2433 12.2441 25.6327 12.333C26.0221 12.4218 26.4252 12.4331 26.819 12.3662V12.2462ZM5.13973 0.881839C4.86016 0.602261 4.52825 0.380488 4.16296 0.229182C3.79768 0.0778761 3.40617 0 3.01079 0C2.6154 0 2.22389 0.0778761 1.85861 0.229182C1.49332 0.380488 1.16142 0.602261 0.881839 0.881839C0.317207 1.44647 0 2.21228 0 3.01079C0 3.8093 0.317207 4.5751 0.881839 5.13973L10.1772 14.4052C5.93606 18.4877 2.56058 23.3827 0.25215 28.798C0.0870416 29.1763 0.00181943 29.5847 0.00181943 29.9974C0.00181943 30.4102 0.0870416 30.8185 0.25215 31.1968C6.30915 45.2599 17.7035 53.9856 29.9974 53.9856C35.3861 53.9484 40.6475 52.3439 45.14 49.3679L54.8552 59.113C55.1339 59.3941 55.4655 59.6172 55.8309 59.7694C56.1963 59.9216 56.5883 60 56.9841 60C57.3799 60 57.7719 59.9216 58.1373 59.7694C58.5027 59.6172 58.8343 59.3941 59.113 59.113C59.3941 58.8343 59.6172 58.5027 59.7694 58.1373C59.9216 57.7719 60 57.3799 60 56.9841C60 56.5883 59.9216 56.1963 59.7694 55.8309C59.6172 55.4655 59.3941 55.1339 59.113 54.8552L5.13973 0.881839ZM24.2103 28.4382L31.5567 35.7846C31.0499 35.9299 30.5246 36.0006 29.9974 35.9945C28.4069 35.9945 26.8816 35.3626 25.7569 34.238C24.6322 33.1133 24.0004 31.588 24.0004 29.9974C23.9943 29.4703 24.065 28.945 24.2103 28.4382ZM29.9974 47.9885C20.4622 47.9885 11.4966 41.1219 6.30916 29.9974C8.24646 25.7208 10.9961 21.8612 14.4052 18.6331L19.7125 24.0004C18.4659 26.2757 17.9906 28.8938 18.358 31.4621C18.7253 34.0304 19.9156 36.4103 21.7501 38.2448C23.5846 40.0793 25.9645 41.2695 28.5328 41.6369C31.1011 42.0043 33.7192 41.529 35.9945 40.2824L40.7621 44.99C37.497 46.9117 33.7858 47.9455 29.9974 47.9885Z" fill="#B3B3B3"/>
</svg>
