<svg width="60" height="48" viewBox="0 0 60 48" fill="none" xmlns="http://www.w3.org/2000/svg">
<path d="M59.7496 22.7921C53.6917 8.72696 42.2957 0 30 0C17.7043 0 6.30826 8.72696 0.250367 22.7921C0.0852347 23.1704 0 23.5788 0 23.9916C0 24.4045 0.0852347 24.8129 0.250367 25.1912C6.30826 39.2563 17.7043 47.9833 30 47.9833C42.2957 47.9833 53.6917 39.2563 59.7496 25.1912C59.9148 24.8129 60 24.4045 60 23.9916C60 23.5788 59.9148 23.1704 59.7496 22.7921ZM30 41.9854C20.4933 41.9854 11.4964 35.1178 6.30826 23.9916C11.4964 12.8655 20.4933 5.99791 30 5.99791C39.5067 5.99791 48.5036 12.8655 53.6917 23.9916C48.5036 35.1178 39.5067 41.9854 30 41.9854ZM30 11.9958C27.6275 11.9958 25.3082 12.6994 23.3355 14.0175C21.3628 15.3356 19.8252 17.2091 18.9173 19.401C18.0094 21.593 17.7718 24.0049 18.2347 26.3319C18.6975 28.6589 19.84 30.7963 21.5177 32.474C23.1953 34.1516 25.3328 35.2941 27.6597 35.757C29.9867 36.2198 32.3987 35.9823 34.5906 35.0743C36.7826 34.1664 38.656 32.6289 39.9742 30.6562C41.2923 28.6835 41.9958 26.3642 41.9958 23.9916C41.9958 20.8102 40.732 17.759 38.4823 15.5093C36.2327 13.2597 33.1815 11.9958 30 11.9958ZM30 29.9896C28.8137 29.9896 27.6541 29.6378 26.6677 28.9787C25.6814 28.3197 24.9126 27.3829 24.4587 26.2869C24.0047 25.191 23.8859 23.985 24.1173 22.8215C24.3488 21.658 24.92 20.5893 25.7588 19.7505C26.5977 18.9117 27.6664 18.3404 28.8299 18.109C29.9933 17.8775 31.1993 17.9963 32.2953 18.4503C33.3913 18.9043 34.328 19.673 34.9871 20.6594C35.6461 21.6457 35.9979 22.8054 35.9979 23.9916C35.9979 25.5824 35.366 27.108 34.2412 28.2328C33.1163 29.3576 31.5907 29.9896 30 29.9896Z" fill="#B3B3B3"/>
</svg>
