<svg width="100" height="100" viewBox="0 0 100 100" fill="none" xmlns="http://www.w3.org/2000/svg">
<path opacity="0.873" fill-rule="evenodd" clip-rule="evenodd" d="M66.0156 20.7031C63.6719 20.7031 61.3281 20.7031 58.9844 20.7031C54.5283 20.9794 53.096 18.8961 54.6875 14.4531C55.0781 14.0625 55.4687 13.6719 55.8594 13.2813C60.2865 12.7604 64.7135 12.7604 69.1406 13.2813C70.8819 15.2758 71.1424 17.4894 69.9219 19.9219C68.7146 20.6656 67.4125 20.926 66.0156 20.7031Z" fill="#808080"/>
<path opacity="0.881" fill-rule="evenodd" clip-rule="evenodd" d="M58.9844 20.7031C61.3281 20.7031 63.6719 20.7031 66.0156 20.7031C66.0156 21.7448 66.0156 22.7865 66.0156 23.8281C63.6719 23.8281 61.3281 23.8281 58.9844 23.8281C58.9844 22.7865 58.9844 21.7448 58.9844 20.7031Z" fill="#CBCBCB"/>
<path opacity="0.969" fill-rule="evenodd" clip-rule="evenodd" d="M58.9844 23.8281C61.3281 23.8281 63.6719 23.8281 66.0156 23.8281C70.783 24.4622 75.2102 26.0247 79.2969 28.5156C81.6203 30.5765 83.9641 32.6598 86.3281 34.7656C94.9594 47.0076 95.6109 59.768 88.2812 73.0469C78.2266 85.1641 65.596 88.9398 50.3906 84.375C45.5057 82.9711 40.8182 81.1477 36.3281 78.9063C37.7745 77.5909 39.0766 76.1585 40.2344 74.6094C40.0709 74.1516 39.8105 73.7609 39.4531 73.4375C29.797 76.8123 23.2866 73.6873 19.9219 64.0625C20.0521 63.6719 20.1823 63.2813 20.3125 62.8906C24.5949 65.2179 28.5012 64.697 32.0312 61.3281C32.6986 59.6818 32.1777 58.6401 30.4687 58.2031C18.5755 61.957 10.6327 57.9205 6.64062 46.0938C7.48221 44.8886 8.52391 44.8886 9.76562 46.0938C11.849 46.6146 13.9323 46.6146 16.0156 46.0938C20.976 42.4473 26.4448 40.8848 32.4219 41.4063C29.7328 37.8566 26.087 36.1638 21.4844 36.3281C23.2457 33.8798 25.5895 32.1872 28.5156 31.25C33.1902 30.3962 37.8777 29.6149 42.5781 28.9063C47.8784 26.662 53.3471 24.9693 58.9844 23.8281Z" fill="#FC6B65"/>
<path opacity="0.865" fill-rule="evenodd" clip-rule="evenodd" d="M86.3281 34.7656C83.9641 32.6599 81.6203 30.5765 79.2969 28.5156C83.2109 25.2391 86.0758 26.1505 87.8906 31.25C87.4656 32.4883 86.9445 33.6602 86.3281 34.7656Z" fill="#828080"/>
<path fill-rule="evenodd" clip-rule="evenodd" d="M55.8594 33.2031C74.7159 31.6218 84.2211 40.2156 84.375 58.9843C80.1617 72.6218 70.9167 78.4812 56.6406 76.5625C44.6352 71.9578 39.2967 63.2338 40.625 50.3906C43.1032 42.3158 48.1813 36.5866 55.8594 33.2031Z" fill="#F0EFEF"/>
<path fill-rule="evenodd" clip-rule="evenodd" d="M61.3281 36.3281C62.1767 36.4219 62.6975 36.9427 62.8906 37.8906C62.6302 38.4115 62.3698 38.9323 62.1094 39.4531C61.3838 38.5244 61.1234 37.4827 61.3281 36.3281Z" fill="#7F807F"/>
<path fill-rule="evenodd" clip-rule="evenodd" d="M48.8281 41.0156C51.1619 41.3655 51.9431 42.5373 51.1719 44.5312C49.3958 44.2839 48.6145 43.112 48.8281 41.0156Z" fill="#919191"/>
<path fill-rule="evenodd" clip-rule="evenodd" d="M73.8281 41.0156C75.769 42.2091 75.6388 43.5112 73.4375 44.9219C72.0297 43.5368 72.1599 42.2348 73.8281 41.0156Z" fill="#8C8C8C"/>
<path fill-rule="evenodd" clip-rule="evenodd" d="M69.1406 45.7031C70.0586 45.532 70.8398 45.7924 71.4844 46.4844C69.9351 48.4247 68.2425 50.2477 66.4062 51.9531C67.3382 57.0029 65.3851 59.2165 60.5469 58.5937C56.9373 53.8304 58.2394 51.2262 64.4531 50.7812C66.1765 49.1901 67.739 47.4973 69.1406 45.7031Z" fill="#878787"/>
<path fill-rule="evenodd" clip-rule="evenodd" d="M61.3281 53.5156C63.4111 53.1764 64.3226 53.9577 64.0625 55.8594C61.2527 57.0829 60.3413 56.3016 61.3281 53.5156Z" fill="#E4E4E4"/>
<path fill-rule="evenodd" clip-rule="evenodd" d="M43.3594 53.5156C45.0506 53.2155 46.3527 53.7364 47.2656 55.0781C46.0584 55.8218 44.7562 56.0822 43.3594 55.8594C43.3594 55.0781 43.3594 54.2969 43.3594 53.5156Z" fill="#909090"/>
<path fill-rule="evenodd" clip-rule="evenodd" d="M77.7344 53.5156C78.7758 53.5156 79.818 53.5156 80.8594 53.5156C80.8594 54.2969 80.8594 55.0781 80.8594 55.8594C79.4625 56.0822 78.1602 55.8218 76.9531 55.0781C77.2365 54.5441 77.497 54.0234 77.7344 53.5156Z" fill="#909090"/>
<path fill-rule="evenodd" clip-rule="evenodd" d="M49.6094 65.2344C52.5359 66.1702 52.4057 67.2118 49.2188 68.3594C48.8281 68.099 48.4375 67.8385 48.0469 67.5781C48.5879 66.783 49.1088 66.0017 49.6094 65.2344Z" fill="#8D8D8D"/>
<path fill-rule="evenodd" clip-rule="evenodd" d="M73.0469 65.2344C74.5188 65.3998 75.5605 66.1811 76.1719 67.5781C75.1302 68.6198 74.0885 68.6198 73.0469 67.5781C72.038 66.7756 72.038 65.9944 73.0469 65.2344Z" fill="#929292"/>
<path fill-rule="evenodd" clip-rule="evenodd" d="M61.3281 69.9219C62.2259 70.1493 62.7467 70.8003 62.8906 71.875C62.6302 72.526 62.3698 73.1771 62.1094 73.8281C61.3657 72.6209 61.1053 71.3187 61.3281 69.9219Z" fill="#848484"/>
</svg>
