<svg width="30" height="26" viewBox="0 0 30 26" fill="none" xmlns="http://www.w3.org/2000/svg">
<path d="M11.315 16.9C11.0579 16.9 10.8066 16.9762 10.5928 17.1191C10.379 17.2619 10.2124 17.465 10.114 17.7025C10.0156 17.9401 9.98986 18.2014 10.04 18.4536C10.0902 18.7058 10.214 18.9374 10.3958 19.1192C10.5776 19.301 10.8092 19.4249 11.0614 19.475C11.3136 19.5252 11.575 19.4994 11.8125 19.401C12.0501 19.3026 12.2531 19.136 12.396 18.9222C12.5388 18.7085 12.615 18.4571 12.615 18.2C12.615 17.8552 12.4781 17.5246 12.2343 17.2808C11.9905 17.037 11.6598 16.9 11.315 16.9ZM2.21504 15.6C1.87026 15.6 1.5396 15.737 1.2958 15.9808C1.052 16.2246 0.915039 16.5552 0.915039 16.9V19.5C0.915039 19.8448 1.052 20.1754 1.2958 20.4192C1.5396 20.663 1.87026 20.8 2.21504 20.8C2.55982 20.8 2.89048 20.663 3.13428 20.4192C3.37808 20.1754 3.51504 19.8448 3.51504 19.5V16.9C3.51504 16.5552 3.37808 16.2246 3.13428 15.9808C2.89048 15.737 2.55982 15.6 2.21504 15.6ZM28.215 15.6C27.8703 15.6 27.5396 15.737 27.2958 15.9808C27.052 16.2246 26.915 16.5552 26.915 16.9V19.5C26.915 19.8448 27.052 20.1754 27.2958 20.4192C27.5396 20.663 27.8703 20.8 28.215 20.8C28.5598 20.8 28.8905 20.663 29.1343 20.4192C29.3781 20.1754 29.515 19.8448 29.515 19.5V16.9C29.515 16.5552 29.3781 16.2246 29.1343 15.9808C28.8905 15.737 28.5598 15.6 28.215 15.6ZM21.715 6.5H16.515V4.836C16.908 4.60914 17.2347 4.28338 17.4628 3.89112C17.6909 3.49886 17.8123 3.05374 17.815 2.6C17.815 1.91044 17.5411 1.24912 17.0535 0.761522C16.5659 0.273928 15.9046 0 15.215 0C14.5255 0 13.8642 0.273928 13.3766 0.761522C12.889 1.24912 12.615 1.91044 12.615 2.6C12.6178 3.05374 12.7392 3.49886 12.9673 3.89112C13.1953 4.28338 13.5221 4.60914 13.915 4.836V6.5H8.71504C7.6807 6.5 6.68871 6.91089 5.95732 7.64228C5.22593 8.37368 4.81504 9.36565 4.81504 10.4V22.1C4.81504 23.1343 5.22593 24.1263 5.95732 24.8577C6.68871 25.5891 7.6807 26 8.71504 26H21.715C22.7494 26 23.7414 25.5891 24.4728 24.8577C25.2041 24.1263 25.615 23.1343 25.615 22.1V10.4C25.615 9.36565 25.2041 8.37368 24.4728 7.64228C23.7414 6.91089 22.7494 6.5 21.715 6.5ZM17.451 9.1L16.801 11.7H13.629L12.979 9.1H17.451ZM23.015 22.1C23.015 22.4448 22.8781 22.7754 22.6343 23.0192C22.3905 23.263 22.0598 23.4 21.715 23.4H8.71504C8.37026 23.4 8.0396 23.263 7.7958 23.0192C7.552 22.7754 7.41504 22.4448 7.41504 22.1V10.4C7.41504 10.0552 7.552 9.72456 7.7958 9.48076C8.0396 9.23696 8.37026 9.1 8.71504 9.1H10.301L11.315 13.312C11.3862 13.6004 11.554 13.8558 11.7906 14.0356C12.0271 14.2153 12.3181 14.3087 12.615 14.3H17.815C18.112 14.3087 18.403 14.2153 18.6395 14.0356C18.876 13.8558 19.0439 13.6004 19.115 13.312L20.129 9.1H21.715C22.0598 9.1 22.3905 9.23696 22.6343 9.48076C22.8781 9.72456 23.015 10.0552 23.015 10.4V22.1ZM19.115 16.9C18.8579 16.9 18.6066 16.9762 18.3928 17.1191C18.179 17.2619 18.0124 17.465 17.914 17.7025C17.8156 17.9401 17.7899 18.2014 17.84 18.4536C17.8902 18.7058 18.014 18.9374 18.1958 19.1192C18.3776 19.301 18.6092 19.4249 18.8614 19.475C19.1136 19.5252 19.375 19.4994 19.6125 19.401C19.8501 19.3026 20.0531 19.136 20.196 18.9222C20.3388 18.7085 20.415 18.4571 20.415 18.2C20.415 17.8552 20.2781 17.5246 20.0343 17.2808C19.7905 17.037 19.4598 16.9 19.115 16.9Z" fill="#E4F9F5"/>
</svg>
