<svg width="60" height="74" viewBox="0 0 60 74" fill="none" xmlns="http://www.w3.org/2000/svg">
<path d="M18.226 24.6489L18.2185 24.655L18.2113 24.662L18.226 24.6489ZM51.4062 24.0272C51.1743 23.8036 50.917 23.6081 50.6396 23.4445C50.2469 23.2133 49.8109 23.0652 49.3587 23.0093C48.9064 22.9533 48.4475 22.9907 48.0103 23.1192C47.5731 23.2476 47.1669 23.4644 46.8168 23.756C46.4667 24.0477 46.1802 24.4081 45.9749 24.8149C44.8267 27.0772 43.243 29.0905 41.3149 30.7394C41.6097 29.0781 41.7584 27.3941 41.7592 25.7068C41.7654 20.5738 40.4113 15.5309 37.8348 11.0914C35.2582 6.65193 31.5513 2.9745 27.0913 0.433554C26.6 0.155045 26.046 0.00592053 25.4813 0.000172696C24.9165 -0.00557514 24.3596 0.132242 23.8627 0.400693C23.3659 0.669143 22.9453 1.05943 22.6406 1.53492C22.3359 2.01041 22.157 2.55553 22.1206 3.11911C21.9341 6.27969 21.1078 9.36949 19.6919 12.2013C18.276 15.0331 16.2999 17.548 13.8834 19.5936L13.1152 20.2186C10.5882 21.9189 8.3515 24.0149 6.49086 26.4262C3.59858 30.0699 1.59502 34.3374 0.639057 38.8901C-0.316902 43.4429 -0.198964 48.1558 0.983518 52.6551C2.166 57.1543 4.3805 61.3162 7.45141 64.8107C10.5223 68.3051 14.3652 71.036 18.6752 72.7868C19.1812 72.9936 19.7304 73.0727 20.2743 73.0171C20.8181 72.9614 21.3399 72.7728 21.7936 72.4679C22.2473 72.163 22.619 71.751 22.8759 71.2685C23.1328 70.7859 23.267 70.2476 23.2667 69.7009C23.2643 69.3473 23.2084 68.9961 23.1007 68.6592C22.355 65.856 22.1402 62.938 22.4675 60.0557C25.6217 66.0048 30.6847 70.7203 36.8425 73.4444C37.5942 73.7806 38.4439 73.8259 39.227 73.5713C44.0922 72.001 48.475 69.2128 51.9591 65.4715C55.4432 61.7302 57.9128 57.1602 59.1332 52.1957C60.3536 47.2312 60.2843 42.0371 58.9319 37.1069C57.5795 32.1767 54.9889 27.6742 51.4062 24.0272ZM38.3903 66.7972C35.4847 65.3247 32.9216 63.2571 30.8675 60.7288C28.8135 58.2006 27.3145 55.2684 26.4681 52.1228C26.2096 51.0637 26.0097 49.9911 25.8692 48.9099C25.774 48.2214 25.466 47.5799 24.9883 47.075C24.5105 46.5702 23.887 46.2272 23.2048 46.0942C22.9946 46.0527 22.7809 46.032 22.5667 46.0323C21.9809 46.0321 21.4053 46.1864 20.8981 46.4796C20.3909 46.7728 19.9699 47.1945 19.6777 47.7023C16.912 52.4727 15.5211 57.9157 15.6592 63.4282C13.2266 61.5369 11.1937 59.1816 9.6781 56.4988C8.16253 53.8161 7.19449 50.8592 6.83009 47.7995C6.46569 44.7399 6.71217 41.6384 7.55526 38.6747C8.39834 35.711 9.82126 32.9441 11.7415 30.5344C13.1996 28.6405 14.9585 26.9987 16.9482 25.6744C17.0343 25.6188 17.117 25.5579 17.1956 25.4921C17.1956 25.4921 18.1847 24.6738 18.2185 24.655C22.9674 20.6382 26.345 15.2402 27.8808 9.21286C31.5127 12.5703 33.9344 17.0329 34.77 21.9079C35.6055 26.7828 34.8081 31.7972 32.5016 36.1724C32.1968 36.7563 32.0718 37.4173 32.1423 38.0721C32.2128 38.7268 32.4756 39.3461 32.8976 39.8517C33.3196 40.3573 33.8819 40.7266 34.5136 40.913C35.1452 41.0994 35.8179 41.0945 36.4468 40.8991C41.5528 39.2985 46.0458 36.1721 49.3212 31.9408C51.2897 34.8484 52.5766 38.1628 53.0862 41.6369C53.5957 45.1111 53.3146 48.6554 52.2639 52.0059C51.2133 55.3563 49.42 58.4264 47.0179 60.9875C44.6157 63.5485 41.6667 65.5344 38.3903 66.7972Z" fill="#566F6A"/>
</svg>
