<svg width="44" height="44" viewBox="0 0 44 44" fill="none" xmlns="http://www.w3.org/2000/svg">
<path d="M22.07 0.5C17.8039 0.5 13.6335 1.76506 10.0864 4.1352C6.53919 6.50534 3.77451 9.87411 2.14193 13.8155C0.509346 17.7569 0.0821881 22.0939 0.914471 26.2781C1.74675 30.4623 3.8011 34.3057 6.81772 37.3223C9.83433 40.3389 13.6777 42.3932 17.8619 43.2255C22.0461 44.0578 26.3831 43.6307 30.3245 41.9981C34.2659 40.3655 37.6347 37.6008 40.0048 34.0536C42.3749 30.5065 43.64 26.3361 43.64 22.07C43.64 19.2374 43.0821 16.4325 41.9981 13.8155C40.9141 11.1985 39.3253 8.82066 37.3223 6.81771C35.3193 4.81475 32.9415 3.22591 30.3245 2.14192C27.7075 1.05792 24.9026 0.5 22.07 0.5ZM22.07 39.326C17.4934 39.326 13.1043 37.508 9.86817 34.2718C6.63205 31.0357 4.81401 26.6466 4.81401 22.07C4.80924 18.2378 6.09314 14.5152 8.45934 11.5007L32.6393 35.6807C29.6248 38.0469 25.9023 39.3308 22.07 39.326ZM35.6807 32.6393L11.5007 8.45933C14.5152 6.09313 18.2378 4.80923 22.07 4.814C26.6466 4.814 31.0357 6.63204 34.2718 9.86816C37.508 13.1043 39.326 17.4934 39.326 22.07C39.3308 25.9022 38.0469 29.6248 35.6807 32.6393Z" fill="#566F6A"/>
</svg>
