<svg width="60" height="67" viewBox="0 0 60 67" fill="none" xmlns="http://www.w3.org/2000/svg">
<path d="M56.6666 20.0796L36.6667 2.54642C34.8333 0.906584 32.4599 0 30.0001 0C27.5403 0 25.1669 0.906584 23.3335 2.54642L3.33363 20.0796C2.27486 21.0265 1.42997 22.1881 0.855216 23.4871C0.28046 24.786 -0.0109751 26.1925 0.000315978 27.6129V56.746C0.000315978 59.3982 1.05388 61.9417 2.92923 63.8171C4.80458 65.6924 7.3481 66.746 10.0002 66.746H50C52.6521 66.746 55.1956 65.6924 57.071 63.8171C58.9463 61.9417 59.9999 59.3982 59.9999 56.746V27.5796C60.0064 26.1648 59.7127 24.7647 59.1381 23.4719C58.5635 22.179 57.7211 21.0228 56.6666 20.0796ZM36.6667 60.0793H23.3335V43.4128C23.3335 42.5287 23.6847 41.6809 24.3098 41.0558C24.9349 40.4307 25.7827 40.0795 26.6668 40.0795H33.3334C34.2175 40.0795 35.0653 40.4307 35.6904 41.0558C36.3155 41.6809 36.6667 42.5287 36.6667 43.4128V60.0793ZM53.3333 56.746C53.3333 57.6301 52.9821 58.4779 52.357 59.103C51.7319 59.7282 50.884 60.0793 50 60.0793H43.3333V43.4128C43.3333 40.7607 42.2798 38.2171 40.4044 36.3418C38.5291 34.4664 35.9856 33.4129 33.3334 33.4129H26.6668C24.0146 33.4129 21.4711 34.4664 19.5958 36.3418C17.7204 38.2171 16.6669 40.7607 16.6669 43.4128V60.0793H10.0002C9.1162 60.0793 8.26836 59.7282 7.64324 59.103C7.01812 58.4779 6.66694 57.6301 6.66694 56.746V27.5796C6.66753 27.1063 6.76891 26.6386 6.96432 26.2075C7.15974 25.7765 7.4447 25.392 7.80026 25.0796L27.8001 7.57972C28.4084 7.04533 29.1904 6.75061 30.0001 6.75061C30.8098 6.75061 31.5918 7.04533 32.2001 7.57972L52.1999 25.0796C52.5555 25.392 52.8405 25.7765 53.0359 26.2075C53.2313 26.6386 53.3327 27.1063 53.3333 27.5796V56.746Z" fill="white"/>
</svg>
