<svg width="25" height="25" viewBox="0 0 25 25" fill="none" xmlns="http://www.w3.org/2000/svg">
<path d="M20.553 9.672C20.2324 9.672 19.9248 9.79938 19.6981 10.0261C19.4714 10.2528 19.344 10.5604 19.344 10.881V14.9674L17.5547 13.1781C16.9229 12.5513 16.069 12.1996 15.179 12.1996C14.289 12.1996 13.4351 12.5513 12.8033 13.1781L11.957 14.0365L8.95869 11.0261C8.32689 10.3993 7.47298 10.0475 6.58301 10.0475C5.69303 10.0475 4.83912 10.3993 4.20732 11.0261L2.418 12.8275V6.045C2.418 5.72435 2.54538 5.41684 2.77211 5.19011C2.99884 4.96338 3.30635 4.836 3.627 4.836H13.299C13.6196 4.836 13.9272 4.70862 14.1539 4.48189C14.3806 4.25516 14.508 3.94765 14.508 3.627C14.508 3.30635 14.3806 2.99884 14.1539 2.77211C13.9272 2.54538 13.6196 2.418 13.299 2.418H3.627C2.66506 2.418 1.74252 2.80013 1.06232 3.48032C0.382129 4.16052 0 5.08306 0 6.045V20.819C0.00318578 21.7094 0.358315 22.5624 0.987939 23.1921C1.61756 23.8217 2.4706 24.1768 3.36102 24.18H18.401C18.7286 24.1774 19.0542 24.1285 19.3682 24.0349C20.0663 23.8391 20.6809 23.4197 21.1177 22.8409C21.5545 22.2622 21.7893 21.5561 21.7862 20.8311V10.881C21.7862 10.7202 21.7542 10.561 21.6919 10.4127C21.6296 10.2644 21.5384 10.13 21.4236 10.0174C21.3087 9.90486 21.1726 9.81631 21.0231 9.757C20.8736 9.69768 20.7138 9.66878 20.553 9.672ZM3.627 21.762C3.30635 21.762 2.99884 21.6346 2.77211 21.4079C2.54538 21.1812 2.418 20.8736 2.418 20.553V16.2369L5.91201 12.7429C6.08871 12.5671 6.32777 12.4685 6.57696 12.4685C6.82615 12.4685 7.06521 12.5671 7.24191 12.7429L16.2731 21.762H3.627ZM19.344 20.553C19.3362 20.7871 19.2606 21.0139 19.1264 21.2059L13.6617 15.717L14.5201 14.8707C14.6068 14.7822 14.7102 14.712 14.8244 14.664C14.9386 14.616 15.0612 14.5913 15.185 14.5913C15.3089 14.5913 15.4315 14.616 15.5457 14.664C15.6599 14.712 15.7633 14.7822 15.85 14.8707L19.344 18.3889V20.553ZM22.971 2.418H21.762V1.209C21.762 0.888353 21.6346 0.580839 21.4079 0.354108C21.1812 0.127376 20.8736 0 20.553 0C20.2324 0 19.9248 0.127376 19.6981 0.354108C19.4714 0.580839 19.344 0.888353 19.344 1.209V2.418H18.135C17.8144 2.418 17.5068 2.54538 17.2801 2.77211C17.0534 2.99884 16.926 3.30635 16.926 3.627C16.926 3.94765 17.0534 4.25516 17.2801 4.48189C17.5068 4.70862 17.8144 4.836 18.135 4.836H19.344V6.045C19.344 6.36565 19.4714 6.67316 19.6981 6.89989C19.9248 7.12662 20.2324 7.254 20.553 7.254C20.8736 7.254 21.1812 7.12662 21.4079 6.89989C21.6346 6.67316 21.762 6.36565 21.762 6.045V4.836H22.971C23.2916 4.836 23.5992 4.70862 23.8259 4.48189C24.0526 4.25516 24.18 3.94765 24.18 3.627C24.18 3.30635 24.0526 2.99884 23.8259 2.77211C23.5992 2.54538 23.2916 2.418 22.971 2.418Z" fill="#566F6A"/>
</svg>
