<svg width="44" height="60" viewBox="0 0 44 60" fill="none" xmlns="http://www.w3.org/2000/svg">
<path d="M35.297 5.4111C32.817 3.37143 29.9129 1.91112 26.7967 1.13673C23.6805 0.362338 20.4306 0.293389 17.2844 0.934915C13.095 1.78113 9.25148 3.85272 6.24137 6.88684C3.23126 9.92095 1.19027 13.7808 0.377352 17.9768C-0.21629 21.1228 -0.108416 24.3611 0.693279 27.4607C1.49497 30.5603 2.97074 33.4448 5.01532 35.9085C6.91281 38.0497 8.00043 40.7878 8.08933 43.6474V51.7369C8.08933 53.8823 8.94161 55.9399 10.4587 57.457C11.9758 58.9741 14.0333 59.8264 16.1788 59.8264H26.9648C29.1103 59.8264 31.1678 58.9741 32.6849 57.457C34.202 55.9399 35.0543 53.8823 35.0543 51.7369V44.1597C35.1448 41.0026 36.3047 37.9697 38.344 35.5579C41.9172 31.1378 43.6015 25.486 43.031 19.8309C42.4604 14.1759 39.6811 8.97448 35.297 5.35717V5.4111ZM29.6613 51.7369C29.6613 52.452 29.3772 53.1379 28.8715 53.6436C28.3658 54.1493 27.6799 54.4334 26.9648 54.4334H16.1788C15.4637 54.4334 14.7778 54.1493 14.2721 53.6436C13.7664 53.1379 13.4823 52.452 13.4823 51.7369V49.0404H29.6613V51.7369ZM34.1644 32.2143C31.4531 35.4301 29.8712 39.4464 29.6613 43.6474H24.2683V35.5579C24.2683 34.8428 23.9842 34.1569 23.4785 33.6512C22.9728 33.1455 22.287 32.8614 21.5718 32.8614C20.8566 32.8614 20.1708 33.1455 19.6651 33.6512C19.1594 34.1569 18.8753 34.8428 18.8753 35.5579V43.6474H13.4823C13.4112 39.5166 11.8831 35.5438 9.16793 32.43C7.37649 30.2836 6.17183 27.7096 5.67141 24.9589C5.17099 22.2083 5.39189 19.3749 6.31257 16.7351C7.23325 14.0953 8.82229 11.7391 10.9248 9.89625C13.0272 8.05341 15.5713 6.78685 18.309 6.22004C20.6619 5.7356 23.0931 5.78117 25.4261 6.35344C27.7591 6.92571 29.9354 8.01032 31.797 9.52852C33.6586 11.0467 35.1588 12.9604 36.1886 15.1307C37.2185 17.3009 37.7521 19.6732 37.7508 22.0754C37.7707 25.7693 36.5025 29.3545 34.1644 32.2143Z" fill="white"/>
</svg>
