<svg width="44" height="60" viewBox="0 0 44 60" fill="none" xmlns="http://www.w3.org/2000/svg">
<path d="M35.6978 4.96686C33.1896 2.90403 30.2526 1.42715 27.101 0.643962C23.9493 -0.139225 20.6626 -0.208957 17.4806 0.439853C13.2437 1.29568 9.35653 3.39079 6.31224 6.45936C3.26795 9.52792 1.20379 13.4316 0.381637 17.6752C-0.218746 20.857 -0.109647 24.1321 0.701151 27.2668C1.51195 30.4016 3.00447 33.3188 5.07227 35.8105C6.9913 37.976 8.09128 40.7453 8.18118 43.6373V51.8187C8.18118 53.9885 9.04314 56.0694 10.5774 57.6037C12.1117 59.138 14.1927 60 16.3625 60H27.271C29.4408 60 31.5218 59.138 33.0561 57.6037C34.5904 56.0694 35.4523 53.9885 35.4523 51.8187V44.1555C35.5438 40.9625 36.7169 37.8952 38.7794 35.456C42.3931 30.9856 44.0966 25.2697 43.5196 19.5504C42.9425 13.8312 40.1316 8.57071 35.6978 4.91232V4.96686ZM29.9981 51.8187C29.9981 52.5419 29.7108 53.2356 29.1993 53.747C28.6879 54.2585 27.9942 54.5458 27.271 54.5458H16.3625C15.6392 54.5458 14.9456 54.2585 14.4342 53.747C13.9227 53.2356 13.6354 52.5419 13.6354 51.8187V49.0916H29.9981V51.8187ZM34.5524 32.0744C31.8103 35.3267 30.2104 39.3886 29.9981 43.6373H24.5439V35.456C24.5439 34.7327 24.2565 34.0391 23.7451 33.5276C23.2337 33.0162 22.54 32.7289 21.8167 32.7289C21.0935 32.7289 20.3998 33.0162 19.8884 33.5276C19.377 34.0391 19.0896 34.7327 19.0896 35.456V43.6373H13.6354C13.5635 39.4597 12.0181 35.4417 9.27203 32.2925C7.46025 30.1217 6.24191 27.5185 5.73581 24.7367C5.22971 21.9548 5.45312 19.0893 6.38425 16.4195C7.31539 13.7496 8.92247 11.3667 11.0488 9.50294C13.1751 7.63918 15.7481 6.35823 18.5169 5.78499C20.8965 5.29505 23.3553 5.34114 25.7148 5.9199C28.0743 6.49867 30.2753 7.59559 32.1581 9.13103C34.0408 10.6665 35.558 12.6019 36.5995 14.7968C37.6411 16.9917 38.1807 19.391 38.1794 21.8204C38.1996 25.5562 36.917 29.1822 34.5524 32.0744Z" fill="#566F6A"/>
</svg>
