<svg width="60" height="60" viewBox="0 0 60 60" fill="none" xmlns="http://www.w3.org/2000/svg">
<path d="M15 25V20C15 11.725 17.5 5 30 5C42.5 5 45 11.725 45 20V25M30 46.25C31.6576 46.25 33.2473 45.5915 34.4194 44.4194C35.5915 43.2473 36.25 41.6576 36.25 40C36.25 38.3424 35.5915 36.7527 34.4194 35.5806C33.2473 34.4085 31.6576 33.75 30 33.75C28.3424 33.75 26.7527 34.4085 25.5806 35.5806C24.4085 36.7527 23.75 38.3424 23.75 40C23.75 41.6576 24.4085 43.2473 25.5806 44.4194C26.7527 45.5915 28.3424 46.25 30 46.25Z" stroke="#566F6A" stroke-width="1.5" stroke-linecap="round" stroke-linejoin="round"/>
<path d="M42.5 55H17.5C7.5 55 5 52.5 5 42.5V37.5C5 27.5 7.5 25 17.5 25H42.5C52.5 25 55 27.5 55 37.5V42.5C55 52.5 52.5 55 42.5 55Z" stroke="#566F6A" stroke-width="1.5" stroke-linecap="round" stroke-linejoin="round"/>
</svg>
