<svg width="173" height="216" viewBox="0 0 173 216" fill="none" xmlns="http://www.w3.org/2000/svg">
<path d="M0 107.85C0 110.71 1.13628 113.454 3.15886 115.476C5.18144 117.499 7.92464 118.635 10.785 118.635H92.6432L67.8376 143.333C66.8268 144.335 66.0244 145.528 65.4769 146.842C64.9294 148.157 64.6475 149.566 64.6475 150.99C64.6475 152.414 64.9294 153.823 65.4769 155.138C66.0244 156.452 66.8268 157.645 67.8376 158.647C68.8403 159.658 70.0331 160.461 71.3473 161.008C72.6616 161.556 74.0713 161.838 75.495 161.838C76.9187 161.838 78.3284 161.556 79.6427 161.008C80.9569 160.461 82.1497 159.658 83.1523 158.647L126.292 115.507C127.274 114.482 128.044 113.272 128.557 111.948C129.636 109.323 129.636 106.377 128.557 103.752C128.044 102.428 127.274 101.218 126.292 100.193L83.1523 57.0526C82.1468 56.0471 80.953 55.2494 79.6391 54.7052C78.3253 54.161 76.9171 53.8809 75.495 53.8809C74.0729 53.8809 72.6647 54.161 71.3509 54.7052C70.037 55.2494 68.8432 56.0471 67.8376 57.0526C66.8321 58.0582 66.0344 59.252 65.4902 60.5659C64.946 61.8797 64.6659 63.2879 64.6659 64.71C64.6659 66.1321 64.946 67.5403 65.4902 68.8541C66.0344 70.168 66.8321 71.3618 67.8376 72.3673L92.6432 97.065H10.785C7.92464 97.065 5.18144 98.2013 3.15886 100.224C1.13628 102.246 0 104.99 0 107.85ZM140.205 0H32.355C23.7739 0 15.5443 3.40882 9.47656 9.47656C3.40882 15.5443 0 23.7739 0 32.355V64.71C0 67.5704 1.13628 70.3136 3.15886 72.3361C5.18144 74.3587 7.92464 75.495 10.785 75.495C13.6454 75.495 16.3886 74.3587 18.4111 72.3361C20.4337 70.3136 21.57 67.5704 21.57 64.71V32.355C21.57 29.4946 22.7063 26.7514 24.7289 24.7289C26.7514 22.7063 29.4946 21.57 32.355 21.57H140.205C143.065 21.57 145.809 22.7063 147.831 24.7289C149.854 26.7514 150.99 29.4946 150.99 32.355V183.345C150.99 186.205 149.854 188.949 147.831 190.971C145.809 192.994 143.065 194.13 140.205 194.13H32.355C29.4946 194.13 26.7514 192.994 24.7289 190.971C22.7063 188.949 21.57 186.205 21.57 183.345V150.99C21.57 148.13 20.4337 145.386 18.4111 143.364C16.3886 141.341 13.6454 140.205 10.785 140.205C7.92464 140.205 5.18144 141.341 3.15886 143.364C1.13628 145.386 0 148.13 0 150.99V183.345C0 191.926 3.40882 200.156 9.47656 206.223C15.5443 212.291 23.7739 215.7 32.355 215.7H140.205C148.786 215.7 157.016 212.291 163.083 206.223C169.151 200.156 172.56 191.926 172.56 183.345V32.355C172.56 23.7739 169.151 15.5443 163.083 9.47656C157.016 3.40882 148.786 0 140.205 0Z" fill="#EA5455"/>
</svg>
