<svg width="29" height="29" viewBox="0 0 29 29" fill="none" xmlns="http://www.w3.org/2000/svg">
<path d="M18.145 6.34889L3.29149 11.3001C2.70619 11.4963 2.19568 11.8684 1.82954 12.3654C1.46341 12.8625 1.25948 13.4603 1.24556 14.0775C1.23164 14.6947 1.4084 15.3011 1.75175 15.8142C2.0951 16.3272 2.58832 16.7219 3.16418 16.9444L8.65997 19.0451C8.79032 19.0984 8.90874 19.1772 9.00832 19.2767C9.10791 19.3763 9.18665 19.4947 9.23997 19.6251L11.3407 25.1209C11.5199 25.5877 11.813 26.0024 12.1932 26.3271C12.5735 26.6519 13.0289 26.8765 13.518 26.9805C14.0071 27.0845 14.5145 27.0646 14.994 26.9227C15.4734 26.7807 15.9099 26.5212 16.2635 26.1677C16.5914 25.8332 16.8403 25.4296 16.9921 24.9865L21.9432 10.133C22.1178 9.60505 22.1422 9.03899 22.0138 8.49797C21.8854 7.95695 21.6092 7.46225 21.216 7.06906C20.8228 6.67587 20.3281 6.39966 19.7871 6.27124C19.2461 6.14283 18.68 6.16726 18.1521 6.34181L18.145 6.34889ZM20.0406 9.50349L15.0894 24.357C15.0218 24.5494 14.897 24.7166 14.7317 24.8362C14.5664 24.9557 14.3685 25.0218 14.1645 25.0256C13.9606 25.0295 13.7603 24.9709 13.5906 24.8577C13.4209 24.7445 13.2899 24.5821 13.215 24.3923L11.1073 18.9036C11.0784 18.831 11.0454 18.7602 11.0082 18.6914L15.8816 13.8181C16.0692 13.6305 16.1746 13.3761 16.1746 13.1108C16.1746 12.8455 16.0692 12.591 15.8816 12.4035C15.694 12.2159 15.4396 12.1105 15.1743 12.1105C14.909 12.1105 14.6546 12.2159 14.467 12.4035L9.59362 17.2768C9.52488 17.2397 9.45403 17.2066 9.38143 17.1778L3.89271 15.07C3.70293 14.9952 3.54056 14.8642 3.42737 14.6945C3.31418 14.5248 3.25558 14.3245 3.25942 14.1205C3.26327 13.9166 3.32938 13.7187 3.4489 13.5534C3.56841 13.3881 3.73561 13.2632 3.92807 13.1956L18.7816 8.24447C18.9568 8.18797 19.1442 8.18092 19.3232 8.2241C19.5021 8.26727 19.6657 8.359 19.7959 8.48918C19.9261 8.61935 20.0178 8.78293 20.061 8.9619C20.1041 9.14086 20.0971 9.32827 20.0406 9.50349Z" fill="white"/>
</svg>
