<svg width="16" height="24" viewBox="0 0 16 24" fill="none" xmlns="http://www.w3.org/2000/svg">
<path d="M8 15.12C9.06087 15.12 10.0783 14.6649 10.8284 13.8547C11.5786 13.0445 12 11.9457 12 10.8V4.32C12 3.17426 11.5786 2.07546 10.8284 1.2653C10.0783 0.455142 9.06087 0 8 0C6.93913 0 5.92172 0.455142 5.17157 1.2653C4.42143 2.07546 4 3.17426 4 4.32V10.8C4 11.9457 4.42143 13.0445 5.17157 13.8547C5.92172 14.6649 6.93913 15.12 8 15.12ZM6 4.32C6 3.74713 6.21071 3.19773 6.58579 2.79265C6.96086 2.38757 7.46957 2.16 8 2.16C8.53043 2.16 9.03914 2.38757 9.41421 2.79265C9.78929 3.19773 10 3.74713 10 4.32V10.8C10 11.3729 9.78929 11.9223 9.41421 12.3274C9.03914 12.7324 8.53043 12.96 8 12.96C7.46957 12.96 6.96086 12.7324 6.58579 12.3274C6.21071 11.9223 6 11.3729 6 10.8V4.32ZM16 10.8C16 10.5136 15.8946 10.2389 15.7071 10.0363C15.5196 9.83379 15.2652 9.72 15 9.72C14.7348 9.72 14.4804 9.83379 14.2929 10.0363C14.1054 10.2389 14 10.5136 14 10.8C14 12.5186 13.3679 14.1668 12.2426 15.3821C11.1174 16.5973 9.5913 17.28 8 17.28C6.4087 17.28 4.88258 16.5973 3.75736 15.3821C2.63214 14.1668 2 12.5186 2 10.8C2 10.5136 1.89464 10.2389 1.70711 10.0363C1.51957 9.83379 1.26522 9.72 1 9.72C0.734784 9.72 0.48043 9.83379 0.292893 10.0363C0.105357 10.2389 0 10.5136 0 10.8C0.00176579 12.9031 0.713722 14.9333 2.0024 16.5099C3.29107 18.0866 5.06798 19.1015 7 19.3644V21.6H5C4.73478 21.6 4.48043 21.7138 4.29289 21.9163C4.10536 22.1189 4 22.3936 4 22.68C4 22.9664 4.10536 23.2411 4.29289 23.4437C4.48043 23.6462 4.73478 23.76 5 23.76H11C11.2652 23.76 11.5196 23.6462 11.7071 23.4437C11.8946 23.2411 12 22.9664 12 22.68C12 22.3936 11.8946 22.1189 11.7071 21.9163C11.5196 21.7138 11.2652 21.6 11 21.6H9V19.3644C10.932 19.1015 12.7089 18.0866 13.9976 16.5099C15.2863 14.9333 15.9982 12.9031 16 10.8Z" fill="#A7A7A7"/>
</svg>
