<svg width="87" height="84" viewBox="0 0 87 84" fill="none" xmlns="http://www.w3.org/2000/svg">
<path d="M84.5853 46.1379C83.9631 45.6236 83.2089 45.2943 82.4086 45.1876C81.6084 45.0809 80.7943 45.2011 80.059 45.5344C75.5006 47.6204 70.5444 48.694 65.5315 48.6813C56.2582 48.6701 47.3655 44.9932 40.7922 38.4522C34.2189 31.9112 30.4982 23.0366 30.4413 13.7636C30.461 10.8574 30.8227 7.96355 31.519 5.14191C31.6668 4.38984 31.6113 3.61197 31.3584 2.88844C31.1055 2.16491 30.6643 1.52189 30.0802 1.02563C29.4961 0.529368 28.7903 0.197806 28.0354 0.0651047C27.2805 -0.0675967 26.5039 0.00336125 25.7856 0.270668C19.0276 3.30941 13.153 8.0162 8.71366 13.9489C4.27431 19.8815 1.41594 26.8453 0.407071 34.1861C-0.601796 41.5268 0.271954 49.0035 2.94624 55.9139C5.62053 62.8242 10.0076 68.9413 15.6952 73.6905C21.3829 78.4397 28.1845 81.6651 35.461 83.0637C42.7376 84.4623 50.2502 83.9883 57.2932 81.686C64.3363 79.3838 70.6784 75.329 75.724 69.9025C80.7695 64.476 84.3528 57.856 86.1372 50.6643C86.3546 49.8409 86.3232 48.9716 86.047 48.166C85.7708 47.3605 85.2622 46.6547 84.5853 46.1379ZM43.6324 74.9774C36.3978 74.9263 29.3558 72.6403 23.4706 68.4324C17.5855 64.2244 13.1448 58.3003 10.7567 51.471C8.36854 44.6417 8.1497 37.2412 10.1301 30.2827C12.1105 23.3242 16.1934 17.148 21.8196 12.5996V13.7636C21.831 25.3532 26.44 36.4648 34.6351 44.6599C42.8302 52.855 53.9419 57.464 65.5315 57.4754C68.5744 57.4866 71.6096 57.1686 74.5842 56.527C71.6094 62.1549 67.1544 66.8637 61.6998 70.1456C56.2453 73.4274 49.9982 75.1577 43.6324 75.1498V74.9774Z" fill="#566F6A"/>
</svg>
