<svg width="23" height="22" viewBox="0 0 23 22" fill="none" xmlns="http://www.w3.org/2000/svg">
<path d="M5.75 9.16666V7.33333C5.75 4.29916 6.70833 1.83333 11.5 1.83333C16.2917 1.83333 17.25 4.29916 17.25 7.33333V9.16666M11.5 16.9583C12.1354 16.9583 12.7448 16.7169 13.1941 16.2871C13.6434 15.8573 13.8958 15.2744 13.8958 14.6667C13.8958 14.0589 13.6434 13.476 13.1941 13.0462C12.7448 12.6164 12.1354 12.375 11.5 12.375C10.8646 12.375 10.2552 12.6164 9.80589 13.0462C9.35658 13.476 9.10417 14.0589 9.10417 14.6667C9.10417 15.2744 9.35658 15.8573 9.80589 16.2871C10.2552 16.7169 10.8646 16.9583 11.5 16.9583Z" stroke="#AAAAAA" stroke-width="1.5" stroke-linecap="round" stroke-linejoin="round"/>
<path d="M16.2916 20.1667H6.70829C2.87496 20.1667 1.91663 19.25 1.91663 15.5833V13.75C1.91663 10.0833 2.87496 9.16667 6.70829 9.16667H16.2916C20.125 9.16667 21.0833 10.0833 21.0833 13.75V15.5833C21.0833 19.25 20.125 20.1667 16.2916 20.1667Z" stroke="#AAAAAA" stroke-width="1.5" stroke-linecap="round" stroke-linejoin="round"/>
</svg>
