<svg width="60" height="60" viewBox="0 0 60 60" fill="none" xmlns="http://www.w3.org/2000/svg">
<path d="M51 24C50.2044 24 49.4413 24.3161 48.8787 24.8787C48.3161 25.4413 48 26.2044 48 27V37.14L43.56 32.7C41.9923 31.1446 39.8734 30.2719 37.665 30.2719C35.4566 30.2719 33.3377 31.1446 31.77 32.7L29.67 34.83L22.23 27.36C20.6623 25.8046 18.5434 24.9319 16.335 24.9319C14.1266 24.9319 12.0077 25.8046 10.44 27.36L6 31.83V15C6 14.2044 6.31607 13.4413 6.87868 12.8787C7.44129 12.3161 8.20435 12 9 12H33C33.7956 12 34.5587 11.6839 35.1213 11.1213C35.6839 10.5587 36 9.79565 36 9C36 8.20435 35.6839 7.44129 35.1213 6.87868C34.5587 6.31607 33.7956 6 33 6H9C6.61305 6 4.32387 6.94821 2.63604 8.63604C0.948212 10.3239 0 12.6131 0 15V51.66C0.00790517 53.8695 0.889119 55.9862 2.45146 57.5485C4.01381 59.1109 6.13053 59.9921 8.34 60H45.66C46.473 59.9935 47.2809 59.8723 48.06 59.64C49.7923 59.1541 51.3174 58.1133 52.4012 56.6772C53.485 55.2411 54.0678 53.4891 54.06 51.69V27C54.0601 26.6009 53.9805 26.2059 53.826 25.8379C53.6715 25.47 53.4452 25.1366 53.1602 24.8572C52.8753 24.5778 52.5374 24.3581 52.1665 24.2109C51.7956 24.0637 51.399 23.992 51 24ZM9 54C8.20435 54 7.44129 53.6839 6.87868 53.1213C6.31607 52.5587 6 51.7956 6 51V40.29L14.67 31.62C15.1085 31.184 15.7017 30.9392 16.32 30.9392C16.9383 30.9392 17.5315 31.184 17.97 31.62L40.38 54H9ZM48 51C47.9807 51.5809 47.7931 52.1437 47.46 52.62L33.9 39L36.03 36.9C36.2451 36.6805 36.5018 36.5061 36.7851 36.387C37.0684 36.268 37.3727 36.2067 37.68 36.2067C37.9873 36.2067 38.2916 36.268 38.5749 36.387C38.8582 36.5061 39.1149 36.6805 39.33 36.9L48 45.63V51ZM57 6H54V3C54 2.20435 53.6839 1.44129 53.1213 0.87868C52.5587 0.31607 51.7956 0 51 0C50.2044 0 49.4413 0.31607 48.8787 0.87868C48.3161 1.44129 48 2.20435 48 3V6H45C44.2044 6 43.4413 6.31607 42.8787 6.87868C42.3161 7.44129 42 8.20435 42 9C42 9.79565 42.3161 10.5587 42.8787 11.1213C43.4413 11.6839 44.2044 12 45 12H48V15C48 15.7956 48.3161 16.5587 48.8787 17.1213C49.4413 17.6839 50.2044 18 51 18C51.7956 18 52.5587 17.6839 53.1213 17.1213C53.6839 16.5587 54 15.7956 54 15V12H57C57.7956 12 58.5587 11.6839 59.1213 11.1213C59.6839 10.5587 60 9.79565 60 9C60 8.20435 59.6839 7.44129 59.1213 6.87868C58.5587 6.31607 57.7956 6 57 6Z" fill="#566F6A" fill-opacity="0.6"/>
</svg>
