<svg width="44" height="43" viewBox="0 0 44 43" fill="none" xmlns="http://www.w3.org/2000/svg">
<path d="M31.841 20.6777C32.6981 20.6883 33.5485 20.5271 34.3423 20.2037C35.1361 19.8804 35.857 19.4013 36.4626 18.7948L42.5178 12.7396C42.9163 12.3387 43.14 11.7964 43.14 11.2312C43.14 10.6659 42.9163 10.1236 42.5178 9.72272C42.3189 9.52217 42.0823 9.36299 41.8215 9.25437C41.5608 9.14574 41.2811 9.08981 40.9987 9.08981C40.7162 9.08981 40.4365 9.14574 40.1758 9.25437C39.9151 9.36299 39.6784 9.52217 39.4795 9.72272L33.3602 15.7565C33.1612 15.957 32.9246 16.1162 32.6639 16.2248C32.4031 16.3335 32.1235 16.3894 31.841 16.3894C31.5586 16.3894 31.2789 16.3335 31.0182 16.2248C30.7574 16.1162 30.5208 15.957 30.3219 15.7565L37.8962 8.20357C38.0957 8.00407 38.2539 7.76724 38.3619 7.50658C38.4699 7.24593 38.5254 6.96656 38.5254 6.68443C38.5254 6.4023 38.4699 6.12293 38.3619 5.86227C38.2539 5.60162 38.0957 5.36478 37.8962 5.16528C37.6967 4.96579 37.4599 4.80754 37.1992 4.69957C36.9385 4.5916 36.6592 4.53603 36.377 4.53603C36.0949 4.53603 35.8155 4.5916 35.5549 4.69957C35.2942 4.80754 35.0574 4.96579 34.8579 5.16528L27.305 12.7396C26.9065 12.3387 26.6828 11.7964 26.6828 11.2312C26.6828 10.6659 26.9065 10.1236 27.305 9.72272L33.3602 3.66754C33.5597 3.46804 33.7179 3.2312 33.8259 2.97055C33.9338 2.70989 33.9894 2.43052 33.9894 2.14839C33.9894 1.86626 33.9338 1.58689 33.8259 1.32624C33.7179 1.06558 33.5597 0.828747 33.3602 0.62925C33.1607 0.429753 32.9238 0.271504 32.6632 0.163537C32.4025 0.05557 32.1231 -5.56148e-09 31.841 0C31.5589 5.56147e-09 31.2795 0.05557 31.0189 0.163537C30.7582 0.271504 30.5214 0.429753 30.3219 0.62925L24.2667 6.68443C23.0646 7.88798 22.3895 9.51944 22.3895 11.2205C22.3895 12.9215 23.0646 14.5529 24.2667 15.7565L21.4852 18.5166L3.79035 0.757628L3.57639 0.62925C3.46701 0.533822 3.34452 0.454563 3.21265 0.39389L2.82751 0.244115L2.57076 0.0729439H2.42098H1.99306C1.86549 0.0525457 1.73549 0.0525457 1.60792 0.0729439C1.47839 0.120089 1.35599 0.18489 1.24418 0.265511L0.901839 0.479475H0.752064L0.623686 0.693439C0.533128 0.80641 0.454271 0.928281 0.388326 1.05718C0.325663 1.18765 0.275513 1.32377 0.238551 1.46371C0.238551 1.46371 0.238551 1.61348 0.238551 1.69907C-0.280664 5.31808 0.0503701 9.00828 1.2054 12.4771C2.36044 15.9459 4.30771 19.098 6.89283 21.6833L12.5415 27.3105L0.966029 38.8646C0.765484 39.0635 0.606307 39.3001 0.49768 39.5609C0.389053 39.8216 0.333127 40.1013 0.333127 40.3837C0.333127 40.6662 0.389053 40.9459 0.49768 41.2066C0.606307 41.4673 0.765484 41.704 0.966029 41.9029C1.16596 42.1012 1.40306 42.2581 1.66375 42.3646C1.92444 42.471 2.20358 42.525 2.48517 42.5234C2.76676 42.525 3.0459 42.471 3.30659 42.3646C3.56728 42.2581 3.80439 42.1012 4.00432 41.9029L16.9919 29.1078L23.0471 23.0527L27.3264 18.7734C28.5203 19.9801 30.1435 20.6648 31.841 20.6777ZM15.4728 24.5718L9.84553 18.9232C6.76115 15.7966 4.82989 11.7153 4.36805 7.34772L18.5111 21.4693L15.4728 24.5718ZM28.8241 25.7914C28.4212 25.3857 27.8736 25.1566 27.3018 25.1546C26.7301 25.1526 26.1809 25.3778 25.7751 25.7807C25.3694 26.1836 25.1403 26.7312 25.1383 27.303C25.1363 27.8748 25.3615 28.4239 25.7644 28.8297L39.2442 42.3094C39.6528 42.6813 40.1896 42.8806 40.7419 42.8657C41.0235 42.8673 41.3026 42.8134 41.5633 42.7069C41.824 42.6004 42.0611 42.4435 42.2611 42.2452C42.4616 42.0463 42.6208 41.8097 42.7294 41.5489C42.838 41.2882 42.894 41.0085 42.894 40.7261C42.894 40.4436 42.838 40.164 42.7294 39.9032C42.6208 39.6425 42.4616 39.4058 42.2611 39.2069L28.8241 25.7914Z" fill="#566F6A"/>
</svg>
