<svg width="87" height="87" viewBox="0 0 87 87" fill="none" xmlns="http://www.w3.org/2000/svg">
<path d="M85.0685 78.9463L69.0731 63.0802C75.282 55.3386 78.2888 45.5124 77.4753 35.622C76.6617 25.7315 72.0897 16.5287 64.6992 9.90572C57.3088 3.28276 47.6617 -0.256916 37.7416 0.0145337C27.8214 0.285984 18.3823 4.34792 11.3651 11.3651C4.34792 18.3823 0.285984 27.8214 0.0145337 37.7416C-0.256916 47.6617 3.28276 57.3088 9.90572 64.6992C16.5287 72.0897 25.7315 76.6617 35.622 77.4753C45.5124 78.2888 55.3386 75.282 63.0802 69.0731L78.9463 84.9392C79.3471 85.3433 79.8239 85.664 80.3493 85.8829C80.8747 86.1018 81.4382 86.2145 82.0074 86.2145C82.5766 86.2145 83.1401 86.1018 83.6655 85.8829C84.1909 85.664 84.6677 85.3433 85.0685 84.9392C85.8456 84.1352 86.28 83.0609 86.28 81.9427C86.28 80.8246 85.8456 79.7502 85.0685 78.9463ZM38.893 69.0731C32.924 69.0731 27.089 67.3031 22.1259 63.9868C17.1628 60.6706 13.2946 55.9571 11.0103 50.4425C8.72605 44.9278 8.12838 38.8596 9.29289 33.0052C10.4574 27.1508 13.3318 21.7733 17.5525 17.5525C21.7733 13.3318 27.1508 10.4574 33.0052 9.29289C38.8596 8.12838 44.9278 8.72605 50.4425 11.0103C55.9571 13.2946 60.6706 17.1628 63.9868 22.1259C67.3031 27.089 69.0731 32.924 69.0731 38.893C69.0731 46.8973 65.8934 54.5737 60.2336 60.2336C54.5737 65.8934 46.8973 69.0731 38.893 69.0731Z" fill="#566F6A"/>
</svg>
