<svg width="59" height="60" viewBox="0 0 59 60" fill="none" xmlns="http://www.w3.org/2000/svg">
<path d="M54.123 31.9797C53.6421 31.4323 53.3769 30.7286 53.3769 30C53.3769 29.2714 53.6421 28.5677 54.123 28.0203L57.9625 23.7009C58.3856 23.2289 58.6483 22.6351 58.7129 22.0046C58.7776 21.3741 58.6409 20.7393 58.3224 20.1913L52.3232 9.81275C52.008 9.26538 51.528 8.83151 50.9517 8.57297C50.3753 8.31444 49.7321 8.24443 49.1137 8.37294L43.4744 9.51279C42.7569 9.66105 42.0099 9.54155 41.3744 9.17683C40.7389 8.81212 40.2589 8.22741 40.0249 7.53306L38.1952 2.0438C37.9939 1.44802 37.6105 0.930548 37.0992 0.564529C36.5878 0.19851 35.9744 0.00245605 35.3455 0.00407932H23.3472C22.6931 -0.0300622 22.0458 0.150838 21.5041 0.519151C20.9625 0.887464 20.5563 1.42294 20.3476 2.0438L18.6678 7.53306C18.4338 8.22741 17.9538 8.81212 17.3183 9.17683C16.6828 9.54155 15.9358 9.66105 15.2183 9.51279L9.42907 8.37294C8.8428 8.29009 8.24513 8.38261 7.71135 8.63882C7.17756 8.89504 6.73154 9.3035 6.42948 9.81275L0.430294 20.1913C0.103819 20.7332 -0.042975 21.3644 0.0108992 21.9948C0.0647733 22.6251 0.316557 23.2222 0.730253 23.7009L4.53973 28.0203C5.02063 28.5677 5.28584 29.2714 5.28584 30C5.28584 30.7286 5.02063 31.4323 4.53973 31.9797L0.730253 36.2991C0.316557 36.7778 0.0647733 37.3749 0.0108992 38.0052C-0.042975 38.6356 0.103819 39.2668 0.430294 39.8087L6.42948 50.1873C6.74473 50.7346 7.22473 51.1685 7.80105 51.427C8.37737 51.6856 9.0206 51.7556 9.63904 51.6271L15.2783 50.4872C15.9958 50.3389 16.7428 50.4584 17.3783 50.8232C18.0138 51.1879 18.4938 51.7726 18.7278 52.4669L20.5576 57.9562C20.7663 58.5771 21.1725 59.1125 21.7141 59.4808C22.2557 59.8492 22.903 60.0301 23.5571 59.9959H35.5555C36.1844 59.9975 36.7978 59.8015 37.3092 59.4355C37.8205 59.0695 38.2039 58.552 38.4051 57.9562L40.2349 52.4669C40.4688 51.7726 40.9489 51.1879 41.5844 50.8232C42.2198 50.4584 42.9669 50.3389 43.6844 50.4872L49.3236 51.6271C49.9421 51.7556 50.5853 51.6856 51.1616 51.427C51.738 51.1685 52.218 50.7346 52.5332 50.1873L58.5324 39.8087C58.8509 39.2607 58.9876 38.6259 58.9229 37.9954C58.8582 37.3649 58.5955 36.7711 58.1724 36.2991L54.123 31.9797ZM49.6536 35.9992L52.0533 38.6988L48.2138 45.3579L44.6743 44.638C42.5139 44.1964 40.2666 44.5634 38.3589 45.6693C36.4512 46.7752 35.016 48.543 34.3257 50.6372L33.1858 53.9967H25.5069L24.427 50.5772C23.7367 48.483 22.3015 46.7152 20.3938 45.6093C18.4861 44.5034 16.2388 44.1364 14.0784 44.578L10.5389 45.2979L6.63945 38.6688L9.03912 35.9692C10.5148 34.3193 11.3306 32.1835 11.3306 29.97C11.3306 27.7565 10.5148 25.6207 9.03912 23.9708L6.63945 21.2712L10.4789 14.6721L14.0184 15.392C16.1788 15.8336 18.4261 15.4666 20.3338 14.3607C22.2415 13.2548 23.6767 11.487 24.367 9.3928L25.5069 6.00326H33.1858L34.3257 9.4228C35.016 11.517 36.4512 13.2848 38.3589 14.3907C40.2666 15.4966 42.5139 15.8636 44.6743 15.422L48.2138 14.7021L52.0533 21.3612L49.6536 24.0608C48.1945 25.7069 47.3888 27.8303 47.3888 30.03C47.3888 32.2297 48.1945 34.3531 49.6536 35.9992ZM29.3464 18.0016C26.9733 18.0016 24.6535 18.7053 22.6804 20.0237C20.7073 21.3421 19.1694 23.216 18.2613 25.4084C17.3532 27.6008 17.1156 30.0133 17.5785 32.3408C18.0415 34.6682 19.1842 36.8061 20.8622 38.4841C22.5402 40.1621 24.6781 41.3049 27.0056 41.7678C29.3331 42.2308 31.7455 41.9932 33.9379 41.085C36.1303 40.1769 38.0042 38.6391 39.3226 36.6659C40.641 34.6928 41.3447 32.3731 41.3447 30C41.3447 26.8178 40.0806 23.766 37.8305 21.5159C35.5804 19.2657 32.5285 18.0016 29.3464 18.0016ZM29.3464 35.9992C28.1598 35.9992 27 35.6473 26.0134 34.9881C25.0268 34.3289 24.2579 33.392 23.8038 32.2958C23.3498 31.1996 23.231 29.9933 23.4624 28.8296C23.6939 27.6659 24.2653 26.5969 25.1043 25.7579C25.9433 24.9189 27.0122 24.3476 28.176 24.1161C29.3397 23.8846 30.5459 24.0034 31.6421 24.4575C32.7384 24.9115 33.6753 25.6805 34.3345 26.667C34.9937 27.6536 35.3455 28.8135 35.3455 30C35.3455 31.5911 34.7135 33.117 33.5884 34.2421C32.4634 35.3671 30.9374 35.9992 29.3464 35.9992Z" fill="#566F6A"/>
</svg>
