<svg width="121" height="121" viewBox="0 0 121 121" fill="none" xmlns="http://www.w3.org/2000/svg">
<path d="M81.4209 73.3693C80.8633 72.8071 80.1999 72.3609 79.469 72.0564C78.7382 71.7519 77.9542 71.5952 77.1624 71.5952C76.3707 71.5952 75.5867 71.7519 74.8558 72.0564C74.125 72.3609 73.4616 72.8071 72.904 73.3693C71.7869 74.4931 71.1599 76.0132 71.1599 77.5977C71.1599 79.1823 71.7869 80.7024 72.904 81.8262L109.97 118.892C110.528 119.455 111.191 119.901 111.922 120.205C112.653 120.51 113.437 120.667 114.229 120.667C115.02 120.667 115.804 120.51 116.535 120.205C117.266 119.901 117.93 119.455 118.487 118.892C119.604 117.769 120.231 116.248 120.231 114.664C120.231 113.079 119.604 111.559 118.487 110.436L81.4209 73.3693ZM88.7981 58.4349C93.5686 58.4307 98.1422 56.5322 101.513 53.1568L118.487 36.1831C119.604 35.0594 120.231 33.5392 120.231 31.9547C120.231 30.3702 119.604 28.85 118.487 27.7263C117.93 27.1641 117.266 26.7179 116.535 26.4134C115.804 26.1089 115.02 25.9521 114.229 25.9521C113.437 25.9521 112.653 26.1089 111.922 26.4134C111.191 26.7179 110.528 27.1641 109.97 27.7263L92.9965 44.7C91.8728 45.817 90.3526 46.4441 88.7681 46.4441C87.1836 46.4441 85.6634 45.817 84.5397 44.7L105.772 23.4678C106.889 22.3441 107.516 20.8239 107.516 19.2394C107.516 17.6549 106.889 16.1347 105.772 15.011C105.214 14.4488 104.551 14.0026 103.82 13.6981C103.089 13.3936 102.305 13.2368 101.513 13.2368C100.722 13.2368 99.9377 13.3936 99.2068 13.6981C98.4759 14.0026 97.8125 14.4488 97.255 15.011L76.0828 36.1831C74.9657 35.0594 74.3387 33.5392 74.3387 31.9547C74.3387 30.3702 74.9657 28.85 76.0828 27.7263L92.9965 10.7526C93.6244 10.2149 94.1343 9.55322 94.4944 8.8091C94.8544 8.06499 95.0567 7.25449 95.0886 6.42849C95.1205 5.60248 94.9813 4.77879 94.6797 4.00913C94.3782 3.23946 93.9208 2.54044 93.3363 1.95593C92.7518 1.37141 92.0528 0.914037 91.2831 0.612502C90.5135 0.310966 89.6898 0.171783 88.8638 0.203688C88.0378 0.235593 87.2273 0.437898 86.4831 0.797904C85.739 1.15791 85.0774 1.66784 84.5397 2.2957L67.566 19.2694C64.1964 22.6432 62.3038 27.2164 62.3038 31.9847C62.3038 36.7529 64.1964 41.3262 67.566 44.7L60.2487 52.1372L50.8922 42.9006C53.5477 38.1081 54.5519 32.5748 53.7497 27.1548C52.9476 21.7349 50.3837 16.7296 46.4538 12.9118C37.817 4.27497 15.4454 -5.38145 4.88928 5.35457C-5.6668 16.0906 3.86966 38.2224 12.2665 46.9191C16.9558 51.6252 23.2604 54.37 29.9 54.5963H30.7397C34.7949 54.5386 38.7646 53.4221 42.2554 51.3575L51.6719 60.594L2.01035 110.256C1.45506 110.815 1.01536 111.478 0.716352 112.207C0.417341 112.936 0.264875 113.717 0.267659 114.505C0.270444 115.293 0.428424 116.073 0.732581 116.8C1.03674 117.527 1.48111 118.187 2.04034 118.742C2.59956 119.298 3.26268 119.737 3.99183 120.036C4.72099 120.335 5.5019 120.488 6.28997 120.485C7.07805 120.482 7.85786 120.324 8.58488 120.02C9.31191 119.716 9.9719 119.272 10.5272 118.712L64.5071 64.7325L76.0229 53.2168C77.7042 54.8844 79.6981 56.2038 81.8904 57.0992C84.0826 57.9947 86.4301 58.4485 88.7981 58.4349ZM38.8367 39.242C37.713 40.359 36.372 41.2334 34.8967 41.8112C33.4214 42.3889 31.8432 42.6577 30.2599 42.6007C26.7536 42.4497 23.4425 40.9447 21.0233 38.4023C14.5457 31.9247 9.98739 17.2302 13.4061 13.8114C14.5416 12.9548 15.9446 12.5297 17.3646 12.6119C25.0196 13.222 32.2651 16.3182 37.997 21.4286C40.4457 23.6941 41.9061 26.8311 42.0631 30.1634C42.2202 33.4957 41.0614 36.7562 38.8367 39.242Z" fill="white"/>
</svg>
