<svg width="50" height="50" viewBox="0 0 50 50" fill="none" xmlns="http://www.w3.org/2000/svg">
<path d="M25 10C24.6717 9.99991 24.3466 10.0645 24.0432 10.1901C23.7398 10.3157 23.4642 10.4999 23.2321 10.732C22.9999 10.9642 22.8157 11.2398 22.6901 11.5432C22.5645 11.8465 22.4999 12.1717 22.5 12.5V23.4595L16.4234 26.5173C16.1302 26.6648 15.8689 26.8686 15.6544 27.117C15.44 27.3655 15.2766 27.6538 15.1735 27.9654C15.0705 28.277 15.0299 28.6058 15.0539 28.9331C15.078 29.2605 15.1662 29.5798 15.3137 29.873C15.4612 30.1662 15.665 30.4275 15.9134 30.642C16.1619 30.8564 16.4502 31.0198 16.7618 31.1228C17.0734 31.2259 17.4022 31.2665 17.7295 31.2425C18.0569 31.2184 18.3762 31.1301 18.6694 30.9827L26.1231 27.2327C26.5371 27.0249 26.8852 26.706 27.1283 26.3117C27.3715 25.9174 27.5002 25.4632 27.5 25V12.5C27.5001 12.1717 27.4355 11.8465 27.3099 11.5432C27.1843 11.2398 27.0001 10.9642 26.768 10.732C26.5358 10.4999 26.2602 10.3157 25.9568 10.1901C25.6535 10.0645 25.3283 9.99991 25 10ZM25 0C20.0555 0 15.222 1.46622 11.1108 4.21326C6.99952 6.96029 3.79521 10.8648 1.90302 15.4329C0.0108321 20.0011 -0.484251 25.0277 0.480379 29.8773C1.44501 34.7268 3.82603 39.1813 7.32234 42.6777C10.8187 46.174 15.2732 48.555 20.1228 49.5196C24.9723 50.4843 29.9989 49.9892 34.5671 48.097C39.1352 46.2048 43.0397 43.0005 45.7867 38.8892C48.5338 34.778 50 29.9445 50 25C49.9924 18.3719 47.3561 12.0175 42.6693 7.3307C37.9825 2.64394 31.6281 0.00758276 25 0ZM25 45C21.0444 45 17.1776 43.827 13.8886 41.6294C10.5996 39.4318 8.03617 36.3082 6.52242 32.6537C5.00867 28.9991 4.6126 24.9778 5.38431 21.0982C6.15601 17.2186 8.06082 13.6549 10.8579 10.8579C13.6549 8.06081 17.2186 6.156 21.0982 5.38429C24.9778 4.61259 28.9992 5.00866 32.6537 6.52241C36.3082 8.03616 39.4318 10.5996 41.6294 13.8886C43.827 17.1776 45 21.0444 45 25C44.9939 30.3025 42.8848 35.386 39.1354 39.1354C35.386 42.8848 30.3025 44.9939 25 45Z" fill="white"/>
</svg>
