<svg width="50" height="50" viewBox="0 0 50 50" fill="none" xmlns="http://www.w3.org/2000/svg">
<path d="M34.2835 26.7733C36.7466 24.8461 38.5444 22.2032 39.4269 19.2125C40.3094 16.2218 40.2326 13.0319 39.2072 10.0866C38.1818 7.1413 36.2589 4.58707 33.7059 2.77928C31.1529 0.971477 28.0968 0 24.9627 0C21.8287 0 18.7726 0.971477 16.2196 2.77928C13.6666 4.58707 11.7436 7.1413 10.7183 10.0866C9.69291 13.0319 9.61611 16.2218 10.4986 19.2125C11.381 22.2032 13.1789 24.8461 15.6419 26.7733C11.4214 28.4549 7.73882 31.2441 4.98681 34.8434C2.23481 38.4428 0.516525 42.7174 0.0151541 47.2115C-0.0211378 47.5396 0.00790981 47.8716 0.100638 48.1886C0.193366 48.5055 0.347958 48.8012 0.555588 49.0588C0.974917 49.5789 1.58483 49.912 2.25114 49.9849C2.91746 50.0578 3.5856 49.8645 4.10858 49.4474C4.63156 49.0304 4.96655 48.4239 5.03984 47.7612C5.59152 42.877 7.93328 38.3661 11.6177 35.0905C15.3021 31.8148 20.0709 30.004 25.013 30.004C29.955 30.004 34.7238 31.8148 38.4083 35.0905C42.0927 38.3661 44.4344 42.877 44.9861 47.7612C45.0544 48.3751 45.349 48.9422 45.813 49.3528C46.2769 49.7635 46.8774 49.9887 47.4985 49.9849H47.7748C48.4334 49.9096 49.0353 49.5784 49.4495 49.0636C49.8636 48.5488 50.0563 47.892 49.9857 47.2365C49.4819 42.7296 47.7544 38.444 44.9883 34.8392C42.2221 31.2343 38.5216 28.446 34.2835 26.7733ZM24.9627 24.9993C22.9752 24.9993 21.0322 24.4132 19.3796 23.315C17.727 22.2168 16.4389 20.6559 15.6783 18.8297C14.9177 17.0035 14.7187 14.994 15.1065 13.0553C15.4942 11.1166 16.4513 9.33581 17.8568 7.93809C19.2622 6.54037 21.0528 5.58852 23.0022 5.20289C24.9516 4.81726 26.9722 5.01518 28.8085 5.77162C30.6448 6.52806 32.2142 7.80904 33.3185 9.45259C34.4227 11.0961 35.0121 13.0284 35.0121 15.0051C35.0121 17.6557 33.9533 20.1978 32.0687 22.0721C30.1841 23.9464 27.628 24.9993 24.9627 24.9993Z" fill="white"/>
</svg>
