<svg width="60" height="61" viewBox="0 0 60 61" fill="none" xmlns="http://www.w3.org/2000/svg">
<path d="M41.1402 32.3052C44.0959 29.9798 46.2533 26.7909 47.3123 23.1822C48.3712 19.5736 48.2791 15.7245 47.0486 12.1707C45.8182 8.61684 43.5107 5.53486 40.447 3.35353C37.3834 1.1722 33.7161 0 29.9553 0C26.1945 0 22.5271 1.1722 19.4635 3.35353C16.3999 5.53486 14.0924 8.61684 12.8619 12.1707C11.6315 15.7245 11.5393 19.5736 12.5983 23.1822C13.6572 26.7909 15.8146 29.9798 18.7703 32.3052C13.7057 34.3343 9.28659 37.6998 5.98418 42.0428C2.68177 46.3859 0.61983 51.5437 0.0181849 56.9664C-0.0253653 57.3623 0.00949177 57.7629 0.120765 58.1454C0.232039 58.5278 0.417549 58.8846 0.666706 59.1953C1.1699 59.8229 1.90179 60.2249 2.70137 60.3128C3.50095 60.4008 4.30272 60.1675 4.9303 59.6643C5.55788 59.1611 5.95986 58.4292 6.04781 57.6297C6.70982 51.7363 9.51993 46.2934 13.9413 42.3409C18.3626 38.3884 24.0851 36.2035 30.0156 36.2035C35.946 36.2035 41.6686 38.3884 46.0899 42.3409C50.5112 46.2934 53.3213 51.7363 53.9833 57.6297C54.0653 58.3705 54.4188 59.0546 54.9755 59.5501C55.5323 60.0456 56.2529 60.3174 56.9982 60.3128H57.3298C58.1201 60.2219 58.8424 59.8223 59.3393 59.2011C59.8363 58.5799 60.0676 57.7875 59.9828 56.9965C59.3783 51.5584 57.3053 46.3874 53.9859 42.0377C50.6665 37.6879 46.226 34.3236 41.1402 32.3052ZM29.9553 30.1647C27.5702 30.1647 25.2387 29.4574 23.2555 28.1324C21.2724 26.8073 19.7267 24.9239 18.814 22.7203C17.9012 20.5168 17.6624 18.0921 18.1277 15.7528C18.5931 13.4135 19.7416 11.2648 21.4281 9.57827C23.1146 7.89175 25.2634 6.74322 27.6026 6.27791C29.9419 5.8126 32.3666 6.05142 34.5702 6.96415C36.7737 7.87689 38.6571 9.42255 39.9822 11.4057C41.3073 13.3888 42.0145 15.7204 42.0145 18.1055C42.0145 21.3038 40.744 24.3711 38.4825 26.6326C36.2209 28.8942 33.1536 30.1647 29.9553 30.1647Z" fill="#E0E0E0"/>
</svg>
