<svg width="22" height="21" viewBox="0 0 22 21" fill="none" xmlns="http://www.w3.org/2000/svg">
<path d="M14.4402 11.2448C15.469 10.4353 16.22 9.32536 16.5886 8.06926C16.9572 6.81315 16.9251 5.47339 16.4968 4.23637C16.0685 2.99934 15.2653 1.92657 14.1989 1.1673C13.1325 0.40802 11.856 0 10.5469 0C9.23787 0 7.96135 0.40802 6.89497 1.1673C5.82859 1.92657 5.02538 2.99934 4.59709 4.23637C4.1688 5.47339 4.13672 6.81315 4.50532 8.06926C4.87392 9.32536 5.62486 10.4353 6.65368 11.2448C4.89078 11.9511 3.35259 13.1225 2.20309 14.6342C1.05359 16.146 0.335867 17.9413 0.126447 19.8288C0.111288 19.9666 0.123421 20.1061 0.162153 20.2392C0.200885 20.3723 0.265458 20.4965 0.352184 20.6047C0.527336 20.8231 0.782092 20.9631 1.06041 20.9937C1.33873 21.0243 1.6178 20.9431 1.83625 20.7679C2.0547 20.5928 2.19462 20.338 2.22524 20.0597C2.45567 18.0083 3.43381 16.1138 4.97278 14.738C6.51175 13.3622 8.50366 12.6017 10.5679 12.6017C12.6322 12.6017 14.6241 13.3622 16.1631 14.738C17.702 16.1138 18.6802 18.0083 18.9106 20.0597C18.9391 20.3176 19.0622 20.5557 19.256 20.7282C19.4498 20.9007 19.7006 20.9952 19.96 20.9937H20.0754C20.3505 20.962 20.602 20.8229 20.7749 20.6067C20.9479 20.3905 21.0284 20.1147 20.9989 19.8393C20.7885 17.9464 20.0669 16.1465 18.9115 14.6324C17.7561 13.1184 16.2104 11.9473 14.4402 11.2448ZM10.5469 10.4997C9.71674 10.4997 8.90518 10.2535 8.21489 9.7923C7.5246 9.33106 6.98658 8.67549 6.66888 7.90848C6.35117 7.14147 6.26805 6.29748 6.43001 5.48323C6.59198 4.66898 6.99176 3.92104 7.5788 3.334C8.16584 2.74696 8.91378 2.34718 9.72803 2.18521C10.5423 2.02325 11.3863 2.10637 12.1533 2.42408C12.9203 2.74178 13.5759 3.2798 14.0371 3.97009C14.4983 4.66038 14.7445 5.47193 14.7445 6.30214C14.7445 7.4154 14.3023 8.48308 13.5151 9.27028C12.7279 10.0575 11.6602 10.4997 10.5469 10.4997Z" fill="#E4F9F5"/>
</svg>
