<svg width="100" height="134" viewBox="0 0 100 134" fill="none" xmlns="http://www.w3.org/2000/svg">
<path fill-rule="evenodd" clip-rule="evenodd" d="M25.1268 0.129873C49.4063 -0.216576 73.6761 0.130081 97.9359 1.17026C100.688 10.7416 100.688 20.1051 97.9359 29.2607C92.3795 25.8938 86.1387 24.5067 79.2135 25.0991C58.8018 31.8225 37.9992 37.3713 16.8057 41.7453C7.66734 43.6548 2.81347 40.1868 2.24389 31.3414C2.22746 25.0059 1.5339 18.7636 0.163631 12.6145C-0.506213 7.9902 0.880488 4.17552 4.32415 1.17026C11.224 0.13341 18.1581 -0.213455 25.1268 0.129873Z" fill="#EAEAEA"/>
<path fill-rule="evenodd" clip-rule="evenodd" d="M79.2133 25.0995C86.1385 24.5071 92.3793 25.8942 97.9356 29.2611C95.7784 62.6312 92.658 95.9228 88.5745 129.138C87.5343 130.179 86.4942 131.219 85.4541 132.259C61.8881 133.3 38.3117 133.647 14.7252 133.3C12.1669 129.561 10.7802 125.399 10.5647 120.815C29.3 121.16 48.0223 120.815 66.7317 119.775C68.4652 118.041 70.1989 116.306 71.9324 114.573C74.9111 84.7804 77.339 54.9559 79.2133 25.0995Z" fill="#93CBF8"/>
<path fill-rule="evenodd" clip-rule="evenodd" d="M79.2133 25.0994C77.339 54.9557 74.9111 84.7803 71.9324 114.573C70.1989 116.306 68.4652 118.041 66.7318 119.774C48.0223 120.815 29.3 121.16 10.5647 120.815C9.55497 100.983 7.47471 81.5634 4.32394 62.5533C4.97465 55.1834 4.28109 48.2475 2.24368 41.7455C2.24368 38.2775 2.24368 34.8097 2.24368 31.3417C2.81326 40.187 7.66713 43.6551 16.8055 41.7455C37.999 37.3716 58.8016 31.8228 79.2133 25.0994Z" fill="#BBDEFA"/>
</svg>
