<svg width="76" height="106" viewBox="0 0 76 106" fill="none" xmlns="http://www.w3.org/2000/svg">
<path fill-rule="evenodd" clip-rule="evenodd" d="M19.0963 0.10317C37.5488 -0.172047 55.9938 0.103336 74.4313 0.929648C76.5229 8.53308 76.5229 15.9714 74.4313 23.2446C70.2084 20.5699 65.4654 19.468 60.2023 19.9386C44.6894 25.2797 28.8794 29.6876 12.7723 33.1623C5.82718 34.6792 2.13823 31.9242 1.70536 24.8975C1.69287 19.8646 1.16576 14.9057 0.124359 10.0209C-0.384722 6.34738 0.669171 3.31701 3.28636 0.929648C8.53021 0.10598 13.8001 -0.169567 19.0963 0.10317Z" fill="#EAEAEA"/>
<path fill-rule="evenodd" clip-rule="evenodd" d="M60.2017 19.9425C65.4649 19.4719 70.2079 20.5738 74.4307 23.2485C72.7912 49.7576 70.4197 76.2042 67.3162 102.59C66.5257 103.417 65.7352 104.243 64.9447 105.07C47.0346 105.896 29.1165 106.172 11.1908 105.896C9.24649 102.926 8.1926 99.62 8.02881 95.9785C22.2676 96.2529 36.4966 95.9785 50.7157 95.152C52.0332 93.7751 53.3508 92.3966 54.6682 91.0197C56.9321 67.3528 58.7773 43.6603 60.2017 19.9425Z" fill="#93CBF8"/>
<path fill-rule="evenodd" clip-rule="evenodd" d="M60.202 19.9414C58.7775 43.6592 56.9323 67.3517 54.6685 91.0185C53.3511 92.3954 52.0335 93.774 50.716 95.1509C36.4968 95.9774 22.2679 96.2518 8.02907 95.9774C7.26165 80.2231 5.68066 64.7962 3.28608 49.6946C3.78061 43.84 3.25351 38.3302 1.70508 33.1651C1.70508 30.4101 1.70508 27.6553 1.70508 24.9003C2.13796 31.927 5.8269 34.682 12.7721 33.1651C28.8791 29.6904 44.6891 25.2824 60.202 19.9414Z" fill="#BBDEFA"/>
</svg>
