<svg width="60" height="60" viewBox="0 0 60 60" fill="none" xmlns="http://www.w3.org/2000/svg">
<path d="M51 6.00057H46.65C46.2917 4.90651 45.7321 3.88905 45 3.00057C44.1511 2.05148 43.1105 1.29332 41.947 0.77617C40.7834 0.259024 39.5233 -0.00533107 38.25 0.00057002H21.81C20.5266 -0.0138742 19.255 0.246347 18.0804 0.763771C16.9059 1.28119 15.8556 2.04385 15 3.00057C14.2465 3.88423 13.6664 4.902 13.29 6.00057H9C6.61305 6.00057 4.32387 6.94878 2.63604 8.63661C0.948212 10.3244 0 12.6136 0 15.0006V51.0006C0 53.3875 0.948212 55.6767 2.63604 57.3645C4.32387 59.0524 6.61305 60.0006 9 60.0006H51C53.3869 60.0006 55.6761 59.0524 57.364 57.3645C59.0518 55.6767 60 53.3875 60 51.0006V15.0006C60 12.6136 59.0518 10.3244 57.364 8.63661C55.6761 6.94878 53.3869 6.00057 51 6.00057ZM19.56 7.02057C19.8411 6.70056 20.1872 6.44409 20.5751 6.26822C20.9631 6.09235 21.384 6.00111 21.81 6.00057H38.19C38.616 6.00111 39.0369 6.09235 39.4249 6.26822C39.8128 6.44409 40.1589 6.70056 40.44 7.02057C40.7231 7.33557 40.9363 7.70694 41.0656 8.11026C41.1948 8.51357 41.2372 8.93969 41.19 9.36057L39.69 21.3606C39.6016 22.0923 39.2469 22.7659 38.6936 23.2528C38.1402 23.7397 37.427 24.0059 36.69 24.0006H31.77L35.19 16.8006C35.4673 16.0945 35.4668 15.3096 35.1887 14.6039C34.9106 13.8982 34.3754 13.324 33.6909 12.997C33.0065 12.67 32.2236 12.6144 31.4998 12.8414C30.776 13.0684 30.1651 13.5612 29.79 14.2206L25.11 24.0006H23.31C22.573 24.0059 21.8598 23.7397 21.3064 23.2528C20.7531 22.7659 20.3984 22.0923 20.31 21.3606L18.81 9.36057C18.7628 8.93969 18.8052 8.51357 18.9344 8.11026C19.0637 7.70694 19.2769 7.33557 19.56 7.02057ZM54 51.0006C54 51.7962 53.6839 52.5593 53.1213 53.1219C52.5587 53.6845 51.7956 54.0006 51 54.0006H9C8.20435 54.0006 7.44129 53.6845 6.87868 53.1219C6.31607 52.5593 6 51.7962 6 51.0006V15.0006C6 14.2049 6.31607 13.4419 6.87868 12.8792C7.44129 12.3166 8.20435 12.0006 9 12.0006H13.11L14.37 22.1106C14.6421 24.3003 15.7091 26.3138 17.3684 27.7684C19.0277 29.223 21.1635 30.0174 23.37 30.0006H36.75C38.9565 30.0174 41.0924 29.223 42.7516 27.7684C44.4109 26.3138 45.4779 24.3003 45.75 22.1106L46.89 12.0006H51C51.7956 12.0006 52.5587 12.3166 53.1213 12.8792C53.6839 13.4419 54 14.2049 54 15.0006V51.0006ZM36 42.0006H24C23.2044 42.0006 22.4413 42.3166 21.8787 42.8792C21.3161 43.4419 21 44.2049 21 45.0006C21 45.7962 21.3161 46.5593 21.8787 47.1219C22.4413 47.6845 23.2044 48.0006 24 48.0006H36C36.7956 48.0006 37.5587 47.6845 38.1213 47.1219C38.6839 46.5593 39 45.7962 39 45.0006C39 44.2049 38.6839 43.4419 38.1213 42.8792C37.5587 42.3166 36.7956 42.0006 36 42.0006Z" fill="#FFD36E"/>
</svg>
