<svg width="173" height="173" viewBox="0 0 173 173" fill="none" xmlns="http://www.w3.org/2000/svg">
<path d="M161.775 75.495H97.065V10.785C97.065 7.92464 95.9287 5.18144 93.9061 3.15886C91.8836 1.13628 89.1404 0 86.28 0C83.4196 0 80.6764 1.13628 78.6539 3.15886C76.6313 5.18144 75.495 7.92464 75.495 10.785V75.495H10.785C7.92464 75.495 5.18144 76.6313 3.15886 78.6539C1.13628 80.6764 0 83.4196 0 86.28C0 89.1404 1.13628 91.8836 3.15886 93.9061C5.18144 95.9287 7.92464 97.065 10.785 97.065H75.495V161.775C75.495 164.635 76.6313 167.379 78.6539 169.401C80.6764 171.424 83.4196 172.56 86.28 172.56C89.1404 172.56 91.8836 171.424 93.9061 169.401C95.9287 167.379 97.065 164.635 97.065 161.775V97.065H161.775C164.635 97.065 167.379 95.9287 169.401 93.9061C171.424 91.8836 172.56 89.1404 172.56 86.28C172.56 83.4196 171.424 80.6764 169.401 78.6539C167.379 76.6313 164.635 75.495 161.775 75.495Z" fill="white"/>
</svg>
