<svg width="30" height="30" viewBox="0 0 30 30" fill="none" xmlns="http://www.w3.org/2000/svg">
<path d="M19.6472 15.9507L16.5 14.1343V7.5C16.5 7.10217 16.342 6.72064 16.0607 6.43934C15.7794 6.15803 15.3978 6 15 6C14.6022 6 14.2206 6.15803 13.9393 6.43934C13.658 6.72064 13.5 7.10217 13.5 7.5V15C13.4999 15.2634 13.5692 15.5221 13.7009 15.7502C13.8325 15.9783 14.0219 16.1677 14.25 16.2993L18.1472 18.5493C18.3178 18.6479 18.5062 18.7119 18.7016 18.7377C18.897 18.7635 19.0956 18.7505 19.2859 18.6996C19.4763 18.6486 19.6548 18.5606 19.8111 18.4406C19.9675 18.3207 20.0987 18.1711 20.1972 18.0004C20.2957 17.8297 20.3596 17.6413 20.3853 17.4459C20.411 17.2505 20.3979 17.0519 20.3469 16.8616C20.2958 16.6712 20.2077 16.4928 20.0877 16.3365C19.9676 16.1802 19.8179 16.0491 19.6472 15.9507ZM15 0C12.0333 0 9.13319 0.879735 6.66645 2.52796C4.19972 4.17618 2.27713 6.51886 1.14181 9.25975C0.00649926 12.0006 -0.290551 15.0166 0.288228 17.9264C0.867006 20.8361 2.29562 23.5088 4.3934 25.6066C6.49119 27.7044 9.16394 29.133 12.0737 29.7118C14.9834 30.2906 17.9994 29.9935 20.7403 28.8582C23.4811 27.7229 25.8238 25.8003 27.472 23.3335C29.1203 20.8668 30 17.9667 30 15C29.9956 11.0231 28.4138 7.21037 25.6017 4.39828C22.7896 1.5862 18.9769 0.00442287 15 0ZM15 27C12.6266 27 10.3066 26.2962 8.33316 24.9776C6.35977 23.6591 4.8217 21.7849 3.91345 19.5922C3.0052 17.3995 2.76756 14.9867 3.23058 12.6589C3.69361 10.3311 4.83649 8.19295 6.51472 6.51472C8.19295 4.83649 10.3311 3.6936 12.6589 3.23058C14.9867 2.76755 17.3995 3.00519 19.5922 3.91345C21.7849 4.8217 23.6591 6.35977 24.9776 8.33316C26.2962 10.3065 27 12.6266 27 15C26.9964 18.1815 25.7309 21.2316 23.4813 23.4813C21.2316 25.7309 18.1815 26.9964 15 27Z" fill="white"/>
</svg>
